{"glyphs":{"0":{"ha":719,"x_min":49,"x_max":671,"o":"m 375 719 q 593 627 515 719 q 671 367 671 535 q 586 85 671 185 q 347 -14 501 -14 q 127 78 206 -14 q 49 338 49 169 q 134 619 49 518 q 375 719 219 719 m 358 514 q 252 476 285 514 q 219 351 219 438 q 253 221 219 263 q 360 179 286 179 q 467 218 433 179 q 501 342 501 257 q 467 473 501 432 q 358 514 432 514 z "},"1":{"ha":511,"x_min":10,"x_max":386,"o":"m 386 693 l 375 290 l 385 0 l 161 0 l 171 267 l 171 465 l 25 429 l 10 440 l 10 618 l 354 717 l 386 693 z "},"2":{"ha":665,"x_min":49,"x_max":635,"o":"m 343 717 q 510 669 444 717 q 575 539 575 622 q 540 417 575 482 q 422 267 504 353 l 336 174 l 340 168 l 494 168 l 624 181 l 635 167 l 610 -10 l 428 0 l 111 0 l 61 -4 l 50 4 l 50 139 l 233 310 q 327 412 297 372 q 357 481 357 451 q 340 516 357 503 q 290 529 322 529 q 201 509 249 529 q 110 453 153 489 l 86 453 l 49 624 q 343 717 204 717 z "},"3":{"ha":611,"x_min":28,"x_max":563,"o":"m 292 718 q 478 664 407 718 q 549 521 549 610 q 518 414 549 467 q 419 324 488 361 l 419 315 q 563 131 563 272 q 517 -6 563 53 q 390 -98 472 -65 q 199 -131 307 -131 q 43 -117 122 -131 l 31 50 l 46 64 q 206 36 133 36 q 314 60 276 36 q 351 132 351 85 q 251 208 351 207 l 146 208 l 136 222 l 142 374 l 203 376 q 288 404 253 378 q 324 474 324 431 q 303 523 324 506 q 242 540 282 540 q 169 526 207 540 q 82 483 131 511 l 60 483 l 28 639 q 157 698 89 678 q 292 718 225 718 z "},"4":{"ha":714,"x_min":26,"x_max":679,"o":"m 669 60 l 563 63 l 569 -107 l 558 -122 l 386 -133 l 375 -119 l 381 64 l 175 64 l 40 60 l 26 78 l 26 218 l 361 707 l 564 707 l 560 233 l 665 233 l 679 214 l 669 60 m 214 233 l 383 233 l 383 461 l 369 461 l 214 233 z "},"5":{"ha":608,"x_min":18,"x_max":571,"o":"m 571 703 l 547 533 l 533 518 l 394 535 l 256 535 l 251 408 l 336 390 q 506 311 453 365 q 558 167 558 257 q 513 10 558 78 q 384 -96 467 -58 q 193 -133 301 -133 q 29 -115 108 -133 l 18 49 l 33 64 q 203 35 122 35 q 310 63 271 35 q 349 139 349 90 q 322 201 349 179 q 236 235 296 224 l 94 258 l 82 275 l 89 688 l 113 711 l 196 707 l 407 707 l 558 717 l 571 703 z "},"6":{"ha":679,"x_min":38,"x_max":640,"o":"m 406 510 q 532 476 479 510 q 613 387 585 443 q 640 264 640 331 q 606 126 640 190 q 502 24 571 63 q 335 -15 433 -15 q 116 69 194 -15 q 38 301 38 154 q 142 604 38 467 q 438 829 247 742 l 449 829 l 594 732 l 594 710 q 384 608 458 658 q 275 493 310 558 l 285 482 q 406 510 344 510 m 342 128 q 416 156 390 128 q 442 240 442 185 q 339 357 442 357 q 238 328 293 357 l 238 304 q 260 170 238 213 q 342 128 282 128 z "},"7":{"ha":611,"x_min":17,"x_max":575,"o":"m 203 707 l 503 707 l 575 710 l 575 549 l 365 92 l 279 -137 l 103 -89 l 90 -54 l 364 525 l 167 525 l 28 510 l 17 528 l 31 713 l 203 707 z "},"8":{"ha":697,"x_min":53,"x_max":639,"o":"m 367 828 q 551 772 483 828 q 618 621 618 717 q 588 518 618 563 q 500 436 557 474 l 500 426 q 601 350 564 394 q 639 235 639 306 q 555 53 639 119 q 329 -14 471 -14 q 125 44 197 -14 q 53 197 53 103 q 91 312 53 267 q 201 389 129 357 l 201 399 q 110 475 144 429 q 76 590 76 521 q 156 764 76 700 q 367 828 235 828 m 351 678 q 281 656 306 678 q 256 599 256 635 q 285 534 256 558 q 369 488 314 510 q 426 536 407 511 q 446 596 446 561 q 420 656 446 633 q 351 678 394 678 m 331 333 q 258 292 282 315 q 235 226 235 268 q 265 158 235 183 q 347 132 294 132 q 431 157 401 132 q 460 218 460 182 q 428 283 460 260 q 331 333 396 307 z "},"9":{"ha":679,"x_min":39,"x_max":642,"o":"m 274 197 q 147 231 200 197 q 67 320 94 264 q 39 443 39 376 q 74 581 39 517 q 177 683 108 644 q 344 722 246 722 q 563 638 485 722 q 642 406 642 553 q 537 103 642 240 q 242 -122 432 -35 l 231 -122 l 85 -25 l 85 -3 q 295 99 221 49 q 404 214 369 149 l 394 225 q 274 197 335 197 m 338 579 q 263 551 289 579 q 238 467 238 522 q 340 350 238 350 q 442 379 386 350 l 442 403 q 419 537 442 494 q 338 579 397 579 z "},"\r":{"ha":201,"x_min":0,"x_max":0,"o":""}," ":{"ha":201,"x_min":0,"x_max":0,"o":""},"A":{"ha":849,"x_min":8,"x_max":831,"o":"m 831 0 l 601 0 l 578 129 l 565 181 l 404 183 l 265 179 l 254 143 l 229 0 l 8 0 l 297 896 l 568 896 l 831 0 m 522 350 l 435 690 l 421 690 l 317 350 l 419 347 l 522 350 z "},"Á":{"ha":849,"x_min":8,"x_max":831,"o":"m 831 0 l 601 0 l 578 129 l 565 181 l 404 183 l 265 179 l 254 143 l 229 0 l 8 0 l 297 896 l 568 896 l 831 0 m 522 350 l 435 690 l 421 690 l 317 350 l 419 347 l 522 350 m 582 1246 l 638 1114 l 631 1096 q 318 992 494 1046 l 299 997 l 264 1089 q 561 1250 418 1165 l 582 1246 z "},"Ă":{"ha":849,"x_min":8,"x_max":831,"o":"m 831 0 l 601 0 l 578 129 l 565 181 l 404 183 l 265 179 l 254 143 l 229 0 l 8 0 l 297 896 l 568 896 l 831 0 m 522 350 l 435 690 l 421 690 l 317 350 l 419 347 l 522 350 m 653 1156 q 566 1038 625 1079 q 425 997 507 997 q 288 1038 344 997 q 204 1156 231 1079 l 251 1224 l 282 1224 q 342 1169 303 1188 q 432 1150 381 1150 q 517 1169 481 1150 q 574 1224 554 1188 l 606 1224 l 653 1156 z "},"Ắ":{"ha":849,"x_min":8,"x_max":831,"o":"m 831 0 l 601 0 l 578 129 l 565 181 l 404 183 l 265 179 l 254 143 l 229 0 l 8 0 l 297 896 l 568 896 l 831 0 m 522 350 l 435 690 l 421 690 l 317 350 l 419 347 l 522 350 m 593 1349 l 596 1332 l 438 1181 l 419 1176 l 353 1229 q 483 1415 422 1325 l 499 1419 l 593 1349 m 651 1128 q 565 1010 624 1051 q 424 969 506 969 q 286 1010 343 969 q 203 1128 229 1051 l 250 1196 l 281 1196 q 340 1141 301 1160 q 431 1122 379 1122 q 516 1141 479 1122 q 572 1196 553 1160 l 604 1196 l 651 1128 z "},"Ặ":{"ha":849,"x_min":8,"x_max":831,"o":"m 831 0 l 601 0 l 578 129 l 565 181 l 404 183 l 265 179 l 254 143 l 229 0 l 8 0 l 297 896 l 568 896 l 831 0 m 522 350 l 435 690 l 421 690 l 317 350 l 419 347 l 522 350 m 429 -61 q 509 -90 481 -61 q 538 -171 538 -119 q 506 -259 538 -226 q 421 -292 474 -292 q 340 -262 368 -292 q 313 -181 313 -233 q 344 -94 313 -126 q 429 -61 375 -61 m 653 1156 q 566 1038 625 1079 q 425 997 507 997 q 288 1038 344 997 q 204 1156 231 1079 l 251 1224 l 282 1224 q 342 1169 303 1188 q 432 1150 381 1150 q 517 1169 481 1150 q 574 1224 554 1188 l 606 1224 l 653 1156 z "},"Ằ":{"ha":849,"x_min":8,"x_max":831,"o":"m 831 0 l 601 0 l 578 129 l 565 181 l 404 183 l 265 179 l 254 143 l 229 0 l 8 0 l 297 896 l 568 896 l 831 0 m 522 350 l 435 690 l 421 690 l 317 350 l 419 347 l 522 350 m 419 1181 l 261 1332 l 264 1349 l 358 1419 l 374 1415 q 504 1229 435 1325 l 438 1176 l 419 1181 m 651 1128 q 565 1010 624 1051 q 424 969 506 969 q 286 1010 343 969 q 203 1128 229 1051 l 250 1196 l 281 1196 q 340 1141 301 1160 q 431 1122 379 1122 q 516 1141 479 1122 q 572 1196 553 1160 l 604 1196 l 651 1128 z "},"Ẳ":{"ha":849,"x_min":8,"x_max":831,"o":"m 831 0 l 601 0 l 578 129 l 565 181 l 404 183 l 265 179 l 254 143 l 229 0 l 8 0 l 297 896 l 568 896 l 831 0 m 522 350 l 435 690 l 421 690 l 317 350 l 419 347 l 522 350 m 651 1128 q 565 1010 624 1051 q 424 969 506 969 q 286 1010 343 969 q 203 1128 229 1051 l 250 1196 l 281 1196 q 340 1141 301 1160 q 431 1122 379 1122 q 516 1141 479 1122 q 572 1196 553 1160 l 604 1196 l 651 1128 m 365 1266 q 416 1316 398 1290 q 435 1362 435 1342 q 424 1384 435 1376 q 396 1391 413 1391 q 354 1382 377 1391 q 310 1358 331 1373 l 278 1411 q 348 1463 309 1444 q 426 1482 387 1482 q 509 1454 476 1482 q 542 1381 542 1426 q 526 1330 542 1354 q 467 1269 510 1306 l 498 1216 l 427 1174 l 365 1266 z "},"Ẵ":{"ha":849,"x_min":8,"x_max":831,"o":"m 831 0 l 601 0 l 578 129 l 565 181 l 404 183 l 265 179 l 254 143 l 229 0 l 8 0 l 297 896 l 568 896 l 831 0 m 522 350 l 435 690 l 421 690 l 317 350 l 419 347 l 522 350 m 640 1119 q 558 1008 614 1047 q 425 970 502 970 q 295 1008 349 970 q 216 1119 241 1047 l 261 1184 l 290 1184 q 346 1132 309 1149 q 431 1114 383 1114 q 512 1132 477 1114 q 565 1184 547 1149 l 595 1184 l 640 1119 m 650 1382 l 650 1365 l 559 1242 l 542 1235 q 486 1247 519 1238 q 440 1259 453 1256 q 355 1279 376 1279 q 321 1264 336 1279 q 275 1212 306 1249 l 258 1212 l 202 1269 l 202 1285 l 294 1408 l 310 1414 q 416 1389 336 1410 q 498 1371 479 1371 q 528 1384 514 1371 q 558 1414 543 1397 q 577 1438 572 1432 l 593 1438 l 650 1382 z "},"Ǎ":{"ha":849,"x_min":8,"x_max":831,"o":"m 831 0 l 601 0 l 578 129 l 565 181 l 404 183 l 265 179 l 254 143 l 229 0 l 8 0 l 297 896 l 568 896 l 831 0 m 522 350 l 435 690 l 421 690 l 317 350 l 419 347 l 522 350 m 644 1146 q 449 993 539 1075 l 407 993 q 210 1146 313 1078 l 249 1233 l 269 1233 l 332 1200 q 375 1176 351 1189 q 426 1147 399 1164 l 585 1233 l 606 1233 l 644 1146 z "},"Â":{"ha":849,"x_min":8,"x_max":831,"o":"m 831 0 l 601 0 l 578 129 l 565 181 l 404 183 l 265 179 l 254 143 l 229 0 l 8 0 l 297 896 l 568 896 l 831 0 m 522 350 l 435 690 l 421 690 l 317 350 l 419 347 l 522 350 m 211 1094 q 407 1247 317 1165 l 449 1247 q 646 1094 543 1163 l 607 1007 l 586 1007 l 524 1040 q 481 1064 504 1051 q 429 1093 457 1076 l 271 1007 l 250 1007 l 211 1094 z "},"Ấ":{"ha":849,"x_min":8,"x_max":831,"o":"m 831 0 l 601 0 l 578 129 l 565 181 l 404 183 l 265 179 l 254 143 l 229 0 l 8 0 l 297 896 l 568 896 l 831 0 m 522 350 l 435 690 l 421 690 l 317 350 l 419 347 l 522 350 m 708 1336 l 714 1319 l 596 1168 l 582 1168 l 506 1222 l 586 1378 l 601 1386 l 708 1336 m 210 1065 q 407 1218 331 1149 l 449 1218 q 644 1065 529 1144 l 606 979 l 585 979 q 428 1065 513 1017 q 271 979 343 1017 l 250 979 l 210 1065 z "},"Ậ":{"ha":849,"x_min":8,"x_max":831,"o":"m 831 0 l 601 0 l 578 129 l 565 181 l 404 183 l 265 179 l 254 143 l 229 0 l 8 0 l 297 896 l 568 896 l 831 0 m 522 350 l 435 690 l 421 690 l 317 350 l 419 347 l 522 350 m 429 -61 q 509 -90 481 -61 q 538 -171 538 -119 q 506 -259 538 -226 q 421 -292 474 -292 q 340 -262 368 -292 q 313 -181 313 -233 q 344 -94 313 -126 q 429 -61 375 -61 m 211 1094 q 407 1247 317 1165 l 449 1247 q 646 1094 543 1163 l 607 1007 l 586 1007 l 524 1040 q 481 1064 504 1051 q 429 1093 457 1076 l 271 1007 l 250 1007 l 211 1094 z "},"Ầ":{"ha":849,"x_min":8,"x_max":831,"o":"m 831 0 l 601 0 l 578 129 l 565 181 l 404 183 l 265 179 l 254 143 l 229 0 l 8 0 l 297 896 l 568 896 l 831 0 m 522 350 l 435 690 l 421 690 l 317 350 l 419 347 l 522 350 m 463 1319 l 467 1336 l 574 1386 l 589 1378 l 671 1222 l 594 1168 l 581 1168 l 463 1319 m 210 1065 q 407 1218 331 1149 l 449 1218 q 644 1065 529 1144 l 606 979 l 585 979 q 428 1065 513 1017 q 271 979 343 1017 l 250 979 l 210 1065 z "},"Ẩ":{"ha":849,"x_min":8,"x_max":831,"o":"m 831 0 l 601 0 l 578 129 l 565 181 l 404 183 l 265 179 l 254 143 l 229 0 l 8 0 l 297 896 l 568 896 l 831 0 m 522 350 l 435 690 l 421 690 l 317 350 l 419 347 l 522 350 m 210 1094 q 406 1247 315 1165 l 447 1247 q 644 1094 542 1163 l 606 1007 l 585 1007 l 522 1040 q 479 1064 503 1051 q 428 1093 456 1076 l 269 1007 l 249 1007 l 210 1094 m 540 1280 q 593 1331 573 1303 q 612 1377 612 1358 q 601 1400 612 1392 q 572 1408 589 1408 q 529 1399 552 1408 q 484 1374 505 1389 l 451 1428 q 523 1481 482 1462 q 603 1500 563 1500 q 688 1472 654 1500 q 722 1397 722 1444 q 705 1345 722 1370 q 645 1282 689 1321 l 677 1228 l 604 1184 l 540 1280 z "},"Ẫ":{"ha":849,"x_min":8,"x_max":831,"o":"m 831 0 l 601 0 l 578 129 l 565 181 l 404 183 l 265 179 l 254 143 l 229 0 l 8 0 l 297 896 l 568 896 l 831 0 m 522 350 l 435 690 l 421 690 l 317 350 l 419 347 l 522 350 m 211 1094 q 407 1247 317 1165 l 449 1247 q 646 1094 543 1163 l 607 1007 l 586 1007 l 524 1040 q 481 1064 504 1051 q 429 1093 457 1076 l 271 1007 l 250 1007 l 211 1094 m 681 1442 l 681 1422 l 576 1285 l 557 1278 q 493 1291 531 1281 q 442 1304 456 1301 q 344 1326 368 1326 q 306 1310 324 1326 q 254 1251 289 1293 l 235 1251 l 171 1315 l 171 1333 l 275 1471 l 293 1478 q 414 1450 324 1474 q 507 1429 486 1429 q 542 1444 525 1429 q 575 1478 558 1458 q 597 1504 592 1497 l 615 1504 l 681 1442 z "},"Ȁ":{"ha":849,"x_min":8,"x_max":831,"o":"m 831 0 l 601 0 l 578 129 l 565 181 l 404 183 l 265 179 l 254 143 l 229 0 l 8 0 l 297 896 l 568 896 l 831 0 m 522 350 l 435 690 l 421 690 l 317 350 l 419 347 l 522 350 m 335 990 l 318 996 q 140 1160 217 1083 l 143 1176 l 246 1243 l 261 1239 q 324 1153 296 1190 q 371 1088 351 1115 l 403 1044 l 335 990 m 558 990 l 539 996 q 363 1160 432 1090 l 367 1176 l 468 1243 l 485 1239 q 626 1044 529 1172 l 558 990 z "},"Ä":{"ha":849,"x_min":8,"x_max":831,"o":"m 831 0 l 601 0 l 578 129 l 565 181 l 404 183 l 265 179 l 254 143 l 229 0 l 8 0 l 297 896 l 568 896 l 831 0 m 522 350 l 435 690 l 421 690 l 317 350 l 419 347 l 522 350 m 304 1213 q 374 1187 349 1213 q 400 1115 400 1161 q 372 1038 400 1067 q 296 1010 344 1010 q 224 1035 249 1010 q 200 1107 200 1060 q 228 1184 200 1156 q 304 1213 256 1213 m 557 1213 q 626 1187 601 1213 q 651 1115 651 1161 q 624 1038 651 1067 q 549 1010 596 1010 q 477 1035 501 1010 q 453 1107 453 1060 q 481 1184 453 1156 q 557 1213 508 1213 z "},"Ạ":{"ha":849,"x_min":8,"x_max":831,"o":"m 831 0 l 601 0 l 578 129 l 565 181 l 404 183 l 265 179 l 254 143 l 229 0 l 8 0 l 297 896 l 568 896 l 831 0 m 522 350 l 435 690 l 421 690 l 317 350 l 419 347 l 522 350 m 429 -61 q 509 -90 481 -61 q 538 -171 538 -119 q 506 -259 538 -226 q 421 -292 474 -292 q 340 -262 368 -292 q 313 -181 313 -233 q 344 -94 313 -126 q 429 -61 375 -61 z "},"À":{"ha":849,"x_min":8,"x_max":831,"o":"m 831 0 l 601 0 l 578 129 l 565 181 l 404 183 l 265 179 l 254 143 l 229 0 l 8 0 l 297 896 l 568 896 l 831 0 m 522 350 l 435 690 l 421 690 l 317 350 l 419 347 l 522 350 m 317 1250 q 614 1089 463 1164 l 579 997 l 560 992 q 247 1096 381 1049 l 240 1114 l 296 1246 l 317 1250 z "},"Ả":{"ha":849,"x_min":8,"x_max":831,"o":"m 831 0 l 601 0 l 578 129 l 565 181 l 404 183 l 265 179 l 254 143 l 229 0 l 8 0 l 297 896 l 568 896 l 831 0 m 522 350 l 435 690 l 421 690 l 317 350 l 419 347 l 522 350 m 361 1046 q 416 1099 396 1071 q 436 1149 436 1128 q 424 1172 436 1164 q 394 1181 413 1181 q 349 1171 374 1181 q 301 1144 324 1161 l 267 1201 q 342 1258 300 1238 q 426 1278 385 1278 q 516 1248 481 1278 q 551 1169 551 1218 q 534 1115 551 1140 q 471 1049 517 1089 l 504 992 l 428 946 l 361 1046 z "},"Ȃ":{"ha":849,"x_min":8,"x_max":831,"o":"m 831 0 l 601 0 l 578 129 l 565 181 l 404 183 l 265 179 l 254 143 l 229 0 l 8 0 l 297 896 l 568 896 l 831 0 m 522 350 l 435 690 l 421 690 l 317 350 l 419 347 l 522 350 m 201 1081 q 282 1210 224 1160 q 432 1261 340 1261 q 576 1210 522 1261 q 650 1081 631 1158 l 599 1010 l 568 1010 q 512 1081 550 1056 q 425 1107 474 1107 q 339 1081 376 1107 q 283 1010 301 1056 l 254 1010 l 201 1081 z "},"Ā":{"ha":849,"x_min":8,"x_max":831,"o":"m 831 0 l 601 0 l 578 129 l 565 181 l 404 183 l 265 179 l 254 143 l 229 0 l 8 0 l 297 896 l 568 896 l 831 0 m 522 350 l 435 690 l 421 690 l 317 350 l 419 347 l 522 350 m 632 1165 l 621 1043 l 235 1043 l 221 1058 l 231 1181 l 617 1181 l 632 1165 z "},"Ą":{"ha":849,"x_min":8,"x_max":858,"o":"m 831 0 l 601 0 l 578 129 l 565 181 l 404 183 l 265 179 l 254 143 l 229 0 l 8 0 l 297 896 l 568 896 l 831 0 m 522 350 l 435 690 l 421 690 l 317 350 l 419 347 l 522 350 m 831 0 q 724 -79 753 -53 q 696 -124 696 -106 q 728 -150 696 -150 q 821 -112 765 -150 l 832 -115 l 858 -210 q 701 -271 785 -271 q 605 -240 642 -271 q 568 -157 568 -208 q 703 0 568 -62 l 831 0 z "},"Å":{"ha":849,"x_min":8,"x_max":831,"o":"m 831 0 l 601 0 l 578 129 l 565 181 l 404 183 l 265 179 l 254 143 l 229 0 l 8 0 l 297 896 l 568 896 l 831 0 m 522 350 l 435 690 l 421 690 l 317 350 l 419 347 l 522 350 m 431 1269 q 533 1235 499 1269 q 568 1136 568 1200 q 530 1028 568 1067 q 422 990 492 990 q 320 1026 356 990 q 285 1128 285 1061 q 322 1233 285 1197 q 431 1269 360 1269 m 425 1179 q 386 1167 399 1179 q 374 1132 374 1156 q 387 1092 374 1104 q 428 1079 400 1079 q 467 1091 454 1079 q 479 1128 479 1103 q 467 1167 479 1154 q 425 1179 454 1179 z "},"Ǻ":{"ha":849,"x_min":8,"x_max":831,"o":"m 301 1113 l 279 1207 q 597 1324 428 1256 l 617 1317 l 653 1178 l 643 1161 q 319 1104 475 1126 l 301 1113 m 831 0 l 601 0 l 578 125 l 564 176 l 404 179 l 265 175 l 254 139 l 229 0 l 8 0 l 308 869 q 293 944 293 903 q 330 1050 293 1014 q 438 1086 367 1086 q 540 1051 506 1086 q 575 951 575 1017 q 557 872 575 903 l 831 0 m 432 994 q 392 983 404 994 q 381 947 381 972 q 435 896 381 896 q 488 944 488 896 q 432 994 488 994 m 521 340 l 435 671 l 421 671 l 317 340 l 419 339 l 521 340 z "},"Ã":{"ha":849,"x_min":8,"x_max":831,"o":"m 831 0 l 601 0 l 578 129 l 565 181 l 404 183 l 265 179 l 254 143 l 229 0 l 8 0 l 297 896 l 568 896 l 831 0 m 522 350 l 435 690 l 421 690 l 317 350 l 419 347 l 522 350 m 681 1179 l 681 1161 l 578 1024 l 558 1015 q 494 1028 532 1018 q 443 1042 457 1039 q 344 1064 369 1064 q 310 1050 326 1064 q 277 1017 293 1036 q 254 989 261 997 l 235 989 l 171 1053 l 171 1071 l 274 1208 l 293 1215 q 414 1188 324 1211 q 507 1167 488 1167 q 541 1181 525 1167 q 573 1214 557 1194 q 597 1243 589 1233 l 617 1243 l 681 1179 z "},"Æ":{"ha":1153,"x_min":-26,"x_max":1146,"o":"m 1146 167 l 1131 0 l 564 0 l 557 129 l 540 281 l 267 203 l 240 143 l 196 0 l -26 0 l 385 896 l 1042 896 l 1056 879 l 1039 713 l 826 721 l 713 721 l 735 508 l 990 579 l 1006 567 l 1025 410 l 751 339 l 768 175 l 904 175 l 1132 183 l 1146 167 m 522 449 l 496 690 l 482 690 l 354 401 l 522 449 z "},"Ǽ":{"ha":1153,"x_min":-26,"x_max":1146,"o":"m 1146 167 l 1131 0 l 564 0 l 557 129 l 540 281 l 267 203 l 240 143 l 196 0 l -26 0 l 385 896 l 1042 896 l 1056 879 l 1039 713 l 826 721 l 713 721 l 735 508 l 990 579 l 1006 567 l 1025 410 l 751 339 l 768 175 l 904 175 l 1132 183 l 1146 167 m 522 449 l 496 690 l 482 690 l 354 401 l 522 449 m 856 1246 l 911 1114 l 904 1096 q 592 992 768 1046 l 572 997 l 538 1089 q 835 1250 692 1165 l 856 1246 z "},"B":{"ha":833,"x_min":97,"x_max":792,"o":"m 618 463 q 750 390 708 440 q 792 256 792 339 q 684 56 792 121 q 364 -8 576 -8 q 99 0 225 -8 l 97 0 l 110 265 l 97 896 l 450 897 q 674 839 593 897 q 754 671 754 781 q 719 547 754 600 q 618 463 683 493 m 525 640 q 490 719 525 697 q 363 742 454 742 l 318 742 l 313 524 l 432 518 q 502 561 479 532 q 525 640 525 590 m 406 147 q 522 178 481 147 q 564 265 564 208 q 538 334 564 308 q 456 372 511 360 l 310 369 l 308 288 l 313 153 q 406 147 385 147 z "},"C":{"ha":717,"x_min":33,"x_max":707,"o":"m 475 908 q 707 863 603 908 l 667 678 l 651 669 q 563 710 613 696 q 467 725 514 725 q 319 663 367 725 q 271 465 271 600 q 478 174 271 174 q 575 186 524 174 q 668 221 626 199 l 688 210 l 669 25 q 460 -14 572 -14 q 142 103 250 -14 q 33 440 33 219 q 149 786 33 664 q 475 908 264 908 z "},"Ć":{"ha":717,"x_min":33,"x_max":707,"o":"m 475 908 q 707 863 603 908 l 667 678 l 651 669 q 563 710 613 696 q 467 725 514 725 q 319 663 367 725 q 271 465 271 600 q 478 174 271 174 q 575 186 524 174 q 668 221 626 199 l 688 210 l 669 25 q 460 -14 572 -14 q 142 103 250 -14 q 33 440 33 219 q 149 786 33 664 q 475 908 264 908 m 594 1246 l 650 1114 l 643 1096 q 331 992 507 1046 l 311 997 l 276 1089 q 574 1250 431 1165 l 594 1246 z "},"Č":{"ha":717,"x_min":33,"x_max":707,"o":"m 475 908 q 707 863 603 908 l 667 678 l 651 669 q 563 710 613 696 q 467 725 514 725 q 319 663 367 725 q 271 465 271 600 q 478 174 271 174 q 575 186 524 174 q 668 221 626 199 l 688 210 l 669 25 q 460 -14 572 -14 q 142 103 250 -14 q 33 440 33 219 q 149 786 33 664 q 475 908 264 908 m 657 1146 q 461 993 551 1075 l 419 993 q 222 1146 325 1078 l 261 1233 l 282 1233 l 344 1200 q 388 1176 364 1189 q 439 1147 411 1164 l 597 1233 l 618 1233 l 657 1146 z "},"Ç":{"ha":717,"x_min":33,"x_max":707,"o":"m 475 908 q 707 863 603 908 l 667 678 l 651 669 q 563 710 613 696 q 467 725 514 725 q 319 663 367 725 q 271 465 271 600 q 478 174 271 174 q 575 186 524 174 q 668 221 626 199 l 688 210 l 669 25 q 460 -14 572 -14 q 142 103 250 -14 q 33 440 33 219 q 149 786 33 664 q 475 908 264 908 m 472 -62 l 519 -89 q 565 -126 551 -106 q 578 -174 578 -147 q 540 -251 578 -221 q 438 -282 501 -282 q 318 -246 376 -282 l 332 -157 l 342 -153 q 384 -183 363 -172 q 424 -193 406 -193 q 453 -168 453 -193 q 432 -143 453 -154 l 364 -106 l 396 42 l 494 42 l 472 -62 z "},"Ḉ":{"ha":717,"x_min":33,"x_max":707,"o":"m 475 908 q 707 863 603 908 l 667 678 l 651 669 q 563 710 613 696 q 467 725 514 725 q 319 663 367 725 q 271 465 271 600 q 478 174 271 174 q 575 186 524 174 q 668 221 626 199 l 688 210 l 669 25 q 460 -14 572 -14 q 142 103 250 -14 q 33 440 33 219 q 149 786 33 664 q 475 908 264 908 m 472 -62 l 519 -89 q 565 -126 551 -106 q 578 -174 578 -147 q 540 -251 578 -221 q 438 -282 501 -282 q 318 -246 376 -282 l 332 -157 l 342 -153 q 384 -183 363 -172 q 424 -193 406 -193 q 453 -168 453 -193 q 432 -143 453 -154 l 364 -106 l 396 42 l 494 42 l 472 -62 m 594 1246 l 650 1114 l 643 1096 q 331 992 507 1046 l 311 997 l 276 1089 q 574 1250 431 1165 l 594 1246 z "},"Ĉ":{"ha":717,"x_min":33,"x_max":707,"o":"m 475 908 q 707 863 603 908 l 667 678 l 651 669 q 563 710 613 696 q 467 725 514 725 q 319 663 367 725 q 271 465 271 600 q 478 174 271 174 q 575 186 524 174 q 668 221 626 199 l 688 210 l 669 25 q 460 -14 572 -14 q 142 103 250 -14 q 33 440 33 219 q 149 786 33 664 q 475 908 264 908 m 224 1094 q 419 1247 329 1165 l 461 1247 q 658 1094 556 1163 l 619 1007 l 599 1007 l 536 1040 q 493 1064 517 1051 q 442 1093 469 1076 l 283 1007 l 263 1007 l 224 1094 z "},"Ċ":{"ha":717,"x_min":33,"x_max":707,"o":"m 475 908 q 707 863 603 908 l 667 678 l 651 669 q 563 710 613 696 q 467 725 514 725 q 319 663 367 725 q 271 465 271 600 q 478 174 271 174 q 575 186 524 174 q 668 221 626 199 l 688 210 l 669 25 q 460 -14 572 -14 q 142 103 250 -14 q 33 440 33 219 q 149 786 33 664 q 475 908 264 908 m 443 1229 q 523 1200 494 1229 q 551 1119 551 1171 q 519 1031 551 1064 q 435 999 488 999 q 354 1028 382 999 q 326 1110 326 1057 q 358 1197 326 1164 q 443 1229 389 1229 z "},"D":{"ha":915,"x_min":97,"x_max":882,"o":"m 476 901 q 778 794 674 901 q 882 483 882 686 q 763 117 882 244 q 421 -11 643 -11 q 99 0 293 -11 l 97 0 l 110 265 l 97 896 l 99 896 l 476 901 m 463 160 q 647 429 647 160 q 603 656 647 588 q 458 724 558 724 q 324 718 385 724 l 315 288 l 318 171 q 463 160 400 160 z "},"Ǆ":{"ha":1689,"x_min":97,"x_max":1657,"o":"m 476 901 q 778 794 674 901 q 882 483 882 686 q 763 117 882 244 q 421 -11 643 -11 q 99 0 293 -11 l 97 0 l 110 265 l 97 896 l 99 896 l 476 901 m 463 160 q 647 429 647 160 q 603 656 647 588 q 458 724 558 724 q 324 718 385 724 l 315 288 l 318 171 q 463 160 400 160 m 1640 735 l 1221 169 l 1490 169 l 1649 181 l 1657 169 l 1639 -6 l 1418 0 l 1076 0 l 956 -7 l 956 154 l 1379 726 l 1124 726 l 965 714 l 957 724 l 974 899 l 1165 896 l 1546 896 l 1640 897 l 1640 735 m 1519 1146 q 1324 993 1414 1075 l 1282 993 q 1085 1146 1188 1078 l 1124 1233 l 1144 1233 l 1207 1200 q 1250 1176 1226 1189 q 1301 1147 1274 1164 l 1460 1233 l 1481 1233 l 1519 1146 z "},"Ð":{"ha":953,"x_min":19,"x_max":919,"o":"m 514 901 q 815 794 711 901 q 919 483 919 686 q 800 117 919 244 q 458 -11 681 -11 q 136 0 331 -11 l 135 0 l 147 265 l 135 896 l 136 896 l 514 901 m 500 160 q 685 429 685 160 q 640 656 685 588 q 496 724 596 724 q 361 718 422 724 l 353 288 l 356 171 q 500 160 438 160 m 508 500 l 500 367 l 30 367 l 20 382 l 28 515 l 498 515 l 508 500 z "},"Ď":{"ha":915,"x_min":97,"x_max":882,"o":"m 476 901 q 778 794 674 901 q 882 483 882 686 q 763 117 882 244 q 421 -11 643 -11 q 99 0 293 -11 l 97 0 l 110 265 l 97 896 l 99 896 l 476 901 m 463 160 q 647 429 647 160 q 603 656 647 588 q 458 724 558 724 q 324 718 385 724 l 315 288 l 318 171 q 463 160 400 160 m 676 1146 q 481 993 571 1075 l 439 993 q 242 1146 344 1078 l 281 1233 l 301 1233 l 364 1200 q 407 1176 383 1189 q 458 1147 431 1164 l 617 1233 l 638 1233 l 676 1146 z "},"Đ":{"ha":953,"x_min":19,"x_max":919,"o":"m 514 901 q 815 794 711 901 q 919 483 919 686 q 800 117 919 244 q 458 -11 681 -11 q 136 0 331 -11 l 135 0 l 147 265 l 135 896 l 136 896 l 514 901 m 500 160 q 685 429 685 160 q 640 656 685 588 q 496 724 596 724 q 361 718 422 724 l 353 288 l 356 171 q 500 160 438 160 m 508 500 l 500 367 l 30 367 l 20 382 l 28 515 l 498 515 l 508 500 z "},"Ḍ":{"ha":915,"x_min":97,"x_max":882,"o":"m 476 901 q 778 794 674 901 q 882 483 882 686 q 763 117 882 244 q 421 -11 643 -11 q 99 0 293 -11 l 97 0 l 110 265 l 97 896 l 99 896 l 476 901 m 463 160 q 647 429 647 160 q 603 656 647 588 q 458 724 558 724 q 324 718 385 724 l 315 288 l 318 171 q 463 160 400 160 m 463 -61 q 542 -90 514 -61 q 571 -171 571 -119 q 539 -259 571 -226 q 454 -292 507 -292 q 374 -262 401 -292 q 346 -181 346 -233 q 377 -94 346 -126 q 463 -61 408 -61 z "},"Ḏ":{"ha":915,"x_min":97,"x_max":882,"o":"m 476 901 q 778 794 674 901 q 882 483 882 686 q 763 117 882 244 q 421 -11 643 -11 q 99 0 293 -11 l 97 0 l 110 265 l 97 896 l 99 896 l 476 901 m 463 160 q 647 429 647 160 q 603 656 647 588 q 458 724 558 724 q 324 718 385 724 l 315 288 l 318 171 q 463 160 400 160 m 643 -122 l 633 -244 l 286 -244 l 272 -229 l 282 -108 l 629 -108 l 643 -122 z "},"ǅ":{"ha":1513,"x_min":97,"x_max":1485,"o":"m 476 901 q 778 794 674 901 q 882 483 882 686 q 763 117 882 244 q 421 -11 643 -11 q 99 0 293 -11 l 97 0 l 110 265 l 97 896 l 99 896 l 476 901 m 463 160 q 647 429 647 160 q 603 656 647 588 q 458 724 558 724 q 324 718 385 724 l 315 288 l 318 171 q 463 160 400 160 m 1113 650 l 1392 650 l 1471 651 l 1472 521 l 1179 139 l 1350 139 l 1474 149 l 1485 135 l 1471 -4 l 1294 0 l 1050 0 l 949 -6 l 949 124 l 1244 511 l 1083 511 l 961 501 l 949 515 l 964 653 l 1113 650 m 1444 931 q 1236 729 1358 854 l 1193 729 q 985 931 1100 826 l 1039 1013 l 1060 1013 q 1214 893 1167 936 q 1368 1013 1258 931 l 1390 1013 l 1444 931 z "},"E":{"ha":725,"x_min":97,"x_max":710,"o":"m 690 183 l 703 167 l 689 0 l 97 0 l 110 265 l 97 896 l 697 896 l 710 879 l 694 713 l 476 721 l 324 719 l 321 540 l 467 540 l 613 544 l 625 528 l 611 361 l 451 365 l 317 365 l 315 288 l 318 176 l 465 175 l 690 183 z "},"É":{"ha":725,"x_min":97,"x_max":710,"o":"m 690 183 l 703 167 l 689 0 l 97 0 l 110 265 l 97 896 l 697 896 l 710 879 l 694 713 l 476 721 l 324 719 l 321 540 l 467 540 l 613 544 l 625 528 l 611 361 l 451 365 l 317 365 l 315 288 l 318 176 l 465 175 l 690 183 m 553 1246 l 608 1114 l 601 1096 q 289 992 465 1046 l 269 997 l 235 1089 q 532 1250 389 1165 l 553 1246 z "},"Ĕ":{"ha":725,"x_min":97,"x_max":710,"o":"m 690 183 l 703 167 l 689 0 l 97 0 l 110 265 l 97 896 l 697 896 l 710 879 l 694 713 l 476 721 l 324 719 l 321 540 l 467 540 l 613 544 l 625 528 l 611 361 l 451 365 l 317 365 l 315 288 l 318 176 l 465 175 l 690 183 m 624 1156 q 537 1038 596 1079 q 396 997 478 997 q 258 1038 315 997 q 175 1156 201 1079 l 222 1224 l 253 1224 q 313 1169 274 1188 q 403 1150 351 1150 q 488 1169 451 1150 q 544 1224 525 1188 l 576 1224 l 624 1156 z "},"Ě":{"ha":725,"x_min":97,"x_max":710,"o":"m 690 183 l 703 167 l 689 0 l 97 0 l 110 265 l 97 896 l 697 896 l 710 879 l 694 713 l 476 721 l 324 719 l 321 540 l 467 540 l 613 544 l 625 528 l 611 361 l 451 365 l 317 365 l 315 288 l 318 176 l 465 175 l 690 183 m 615 1146 q 419 993 510 1075 l 378 993 q 181 1146 283 1078 l 219 1233 l 240 1233 l 303 1200 q 346 1176 322 1189 q 397 1147 369 1164 l 556 1233 l 576 1233 l 615 1146 z "},"Ḝ":{"ha":725,"x_min":97,"x_max":710,"o":"m 690 183 l 703 167 l 689 0 l 97 0 l 110 265 l 97 896 l 697 896 l 710 879 l 694 713 l 476 721 l 324 719 l 321 540 l 467 540 l 613 544 l 625 528 l 611 361 l 451 365 l 317 365 l 315 288 l 318 176 l 465 175 l 690 183 m 451 -62 l 499 -89 q 544 -126 531 -106 q 557 -174 557 -147 q 519 -251 557 -221 q 417 -282 481 -282 q 297 -246 356 -282 l 311 -157 l 321 -153 q 363 -183 342 -172 q 403 -193 385 -193 q 432 -168 432 -193 q 411 -143 432 -154 l 343 -106 l 375 42 l 474 42 l 451 -62 m 624 1156 q 537 1038 596 1079 q 396 997 478 997 q 258 1038 315 997 q 175 1156 201 1079 l 222 1224 l 253 1224 q 313 1169 274 1188 q 403 1150 351 1150 q 488 1169 451 1150 q 544 1224 525 1188 l 576 1224 l 624 1156 z "},"Ê":{"ha":725,"x_min":97,"x_max":710,"o":"m 690 183 l 703 167 l 689 0 l 97 0 l 110 265 l 97 896 l 697 896 l 710 879 l 694 713 l 476 721 l 324 719 l 321 540 l 467 540 l 613 544 l 625 528 l 611 361 l 451 365 l 317 365 l 315 288 l 318 176 l 465 175 l 690 183 m 182 1094 q 378 1247 288 1165 l 419 1247 q 617 1094 514 1163 l 578 1007 l 557 1007 l 494 1040 q 451 1064 475 1051 q 400 1093 428 1076 l 242 1007 l 221 1007 l 182 1094 z "},"Ế":{"ha":725,"x_min":97,"x_max":710,"o":"m 690 183 l 703 167 l 689 0 l 97 0 l 110 265 l 97 896 l 697 896 l 710 879 l 694 713 l 476 721 l 324 719 l 321 540 l 467 540 l 613 544 l 625 528 l 611 361 l 451 365 l 317 365 l 315 288 l 318 176 l 465 175 l 690 183 m 679 1336 l 685 1319 l 567 1168 l 553 1168 l 476 1222 l 557 1378 l 572 1386 l 679 1336 m 181 1065 q 378 1218 301 1149 l 419 1218 q 615 1065 500 1144 l 576 979 l 556 979 q 399 1065 483 1017 q 242 979 314 1017 l 221 979 l 181 1065 z "},"Ệ":{"ha":725,"x_min":97,"x_max":710,"o":"m 690 183 l 703 167 l 689 0 l 97 0 l 110 265 l 97 896 l 697 896 l 710 879 l 694 713 l 476 721 l 324 719 l 321 540 l 467 540 l 613 544 l 625 528 l 611 361 l 451 365 l 317 365 l 315 288 l 318 176 l 465 175 l 690 183 m 421 -61 q 501 -90 472 -61 q 529 -171 529 -119 q 497 -259 529 -226 q 413 -292 465 -292 q 332 -262 360 -292 q 304 -181 304 -233 q 335 -94 304 -126 q 421 -61 367 -61 m 182 1094 q 378 1247 288 1165 l 419 1247 q 617 1094 514 1163 l 578 1007 l 557 1007 l 494 1040 q 451 1064 475 1051 q 400 1093 428 1076 l 242 1007 l 221 1007 l 182 1094 z "},"Ề":{"ha":725,"x_min":97,"x_max":710,"o":"m 690 183 l 703 167 l 689 0 l 97 0 l 110 265 l 97 896 l 697 896 l 710 879 l 694 713 l 476 721 l 324 719 l 321 540 l 467 540 l 613 544 l 625 528 l 611 361 l 451 365 l 317 365 l 315 288 l 318 176 l 465 175 l 690 183 m 433 1319 l 438 1336 l 544 1386 l 560 1378 l 642 1222 l 565 1168 l 551 1168 l 433 1319 m 181 1065 q 378 1218 301 1149 l 419 1218 q 615 1065 500 1144 l 576 979 l 556 979 q 399 1065 483 1017 q 242 979 314 1017 l 221 979 l 181 1065 z "},"Ể":{"ha":725,"x_min":97,"x_max":710,"o":"m 690 183 l 703 167 l 689 0 l 97 0 l 110 265 l 97 896 l 697 896 l 710 879 l 694 713 l 476 721 l 324 719 l 321 540 l 467 540 l 613 544 l 625 528 l 611 361 l 451 365 l 317 365 l 315 288 l 318 176 l 465 175 l 690 183 m 181 1094 q 376 1247 286 1165 l 418 1247 q 615 1094 513 1163 l 576 1007 l 556 1007 l 493 1040 q 450 1064 474 1051 q 399 1093 426 1076 l 240 1007 l 219 1007 l 181 1094 m 511 1280 q 564 1331 544 1303 q 583 1377 583 1358 q 571 1400 583 1392 q 543 1408 560 1408 q 499 1399 523 1408 q 454 1374 476 1389 l 421 1428 q 493 1481 453 1462 q 573 1500 534 1500 q 659 1472 625 1500 q 692 1397 692 1444 q 676 1345 692 1370 q 616 1282 659 1321 l 647 1228 l 575 1184 l 511 1280 z "},"Ễ":{"ha":725,"x_min":97,"x_max":710,"o":"m 690 183 l 703 167 l 689 0 l 97 0 l 110 265 l 97 896 l 697 896 l 710 879 l 694 713 l 476 721 l 324 719 l 321 540 l 467 540 l 613 544 l 625 528 l 611 361 l 451 365 l 317 365 l 315 288 l 318 176 l 465 175 l 690 183 m 182 1094 q 378 1247 288 1165 l 419 1247 q 617 1094 514 1163 l 578 1007 l 557 1007 l 494 1040 q 451 1064 475 1051 q 400 1093 428 1076 l 242 1007 l 221 1007 l 182 1094 m 651 1443 l 651 1424 l 547 1286 l 528 1279 q 464 1292 501 1282 q 413 1306 426 1303 q 315 1328 339 1328 q 277 1311 294 1328 q 225 1253 260 1294 l 206 1253 l 142 1317 l 142 1335 l 246 1472 l 264 1479 q 385 1451 294 1475 q 478 1431 457 1431 q 513 1445 496 1431 q 546 1479 529 1460 q 568 1506 563 1499 l 586 1506 l 651 1443 z "},"Ȅ":{"ha":725,"x_min":97,"x_max":710,"o":"m 690 183 l 703 167 l 689 0 l 97 0 l 110 265 l 97 896 l 697 896 l 710 879 l 694 713 l 476 721 l 324 719 l 321 540 l 467 540 l 613 544 l 625 528 l 611 361 l 451 365 l 317 365 l 315 288 l 318 176 l 465 175 l 690 183 m 306 990 l 289 996 q 111 1160 188 1083 l 114 1176 l 217 1243 l 232 1239 q 294 1153 267 1190 q 342 1088 322 1115 l 374 1044 l 306 990 m 529 990 l 510 996 q 333 1160 403 1090 l 338 1176 l 439 1243 l 456 1239 q 597 1044 500 1172 l 529 990 z "},"Ë":{"ha":725,"x_min":97,"x_max":710,"o":"m 690 183 l 703 167 l 689 0 l 97 0 l 110 265 l 97 896 l 697 896 l 710 879 l 694 713 l 476 721 l 324 719 l 321 540 l 467 540 l 613 544 l 625 528 l 611 361 l 451 365 l 317 365 l 315 288 l 318 176 l 465 175 l 690 183 m 275 1213 q 345 1187 319 1213 q 371 1115 371 1161 q 343 1038 371 1067 q 267 1010 315 1010 q 195 1035 219 1010 q 171 1107 171 1060 q 199 1184 171 1156 q 275 1213 226 1213 m 528 1213 q 597 1187 572 1213 q 622 1115 622 1161 q 594 1038 622 1067 q 519 1010 567 1010 q 448 1035 472 1010 q 424 1107 424 1060 q 451 1184 424 1156 q 528 1213 479 1213 z "},"Ė":{"ha":725,"x_min":97,"x_max":710,"o":"m 690 183 l 703 167 l 689 0 l 97 0 l 110 265 l 97 896 l 697 896 l 710 879 l 694 713 l 476 721 l 324 719 l 321 540 l 467 540 l 613 544 l 625 528 l 611 361 l 451 365 l 317 365 l 315 288 l 318 176 l 465 175 l 690 183 m 401 1229 q 481 1200 453 1229 q 510 1119 510 1171 q 478 1031 510 1064 q 393 999 446 999 q 313 1028 340 999 q 285 1110 285 1057 q 316 1197 285 1164 q 401 1229 347 1229 z "},"Ẹ":{"ha":725,"x_min":97,"x_max":710,"o":"m 690 183 l 703 167 l 689 0 l 97 0 l 110 265 l 97 896 l 697 896 l 710 879 l 694 713 l 476 721 l 324 719 l 321 540 l 467 540 l 613 544 l 625 528 l 611 361 l 451 365 l 317 365 l 315 288 l 318 176 l 465 175 l 690 183 m 421 -61 q 501 -90 472 -61 q 529 -171 529 -119 q 497 -259 529 -226 q 413 -292 465 -292 q 332 -262 360 -292 q 304 -181 304 -233 q 335 -94 304 -126 q 421 -61 367 -61 z "},"È":{"ha":725,"x_min":97,"x_max":710,"o":"m 690 183 l 703 167 l 689 0 l 97 0 l 110 265 l 97 896 l 697 896 l 710 879 l 694 713 l 476 721 l 324 719 l 321 540 l 467 540 l 613 544 l 625 528 l 611 361 l 451 365 l 317 365 l 315 288 l 318 176 l 465 175 l 690 183 m 288 1250 q 585 1089 433 1164 l 550 997 l 531 992 q 218 1096 351 1049 l 211 1114 l 267 1246 l 288 1250 z "},"Ẻ":{"ha":725,"x_min":97,"x_max":710,"o":"m 690 183 l 703 167 l 689 0 l 97 0 l 110 265 l 97 896 l 697 896 l 710 879 l 694 713 l 476 721 l 324 719 l 321 540 l 467 540 l 613 544 l 625 528 l 611 361 l 451 365 l 317 365 l 315 288 l 318 176 l 465 175 l 690 183 m 332 1046 q 387 1099 367 1071 q 407 1149 407 1128 q 395 1172 407 1164 q 365 1181 383 1181 q 319 1171 344 1181 q 272 1144 294 1161 l 238 1201 q 313 1258 271 1238 q 397 1278 356 1278 q 487 1248 451 1278 q 522 1169 522 1218 q 505 1115 522 1140 q 442 1049 488 1089 l 475 992 l 399 946 l 332 1046 z "},"Ȇ":{"ha":725,"x_min":97,"x_max":710,"o":"m 690 183 l 703 167 l 689 0 l 97 0 l 110 265 l 97 896 l 697 896 l 710 879 l 694 713 l 476 721 l 324 719 l 321 540 l 467 540 l 613 544 l 625 528 l 611 361 l 451 365 l 317 365 l 315 288 l 318 176 l 465 175 l 690 183 m 172 1081 q 253 1210 194 1160 q 403 1261 311 1261 q 547 1210 493 1261 q 621 1081 601 1158 l 569 1010 l 539 1010 q 483 1081 521 1056 q 396 1107 444 1107 q 310 1081 347 1107 q 254 1010 272 1056 l 225 1010 l 172 1081 z "},"Ē":{"ha":725,"x_min":97,"x_max":710,"o":"m 690 183 l 703 167 l 689 0 l 97 0 l 110 265 l 97 896 l 697 896 l 710 879 l 694 713 l 476 721 l 324 719 l 321 540 l 467 540 l 613 544 l 625 528 l 611 361 l 451 365 l 317 365 l 315 288 l 318 176 l 465 175 l 690 183 m 603 1165 l 592 1043 l 206 1043 l 192 1058 l 201 1181 l 588 1181 l 603 1165 z "},"Ḗ":{"ha":725,"x_min":97,"x_max":710,"o":"m 690 183 l 703 167 l 689 0 l 97 0 l 110 265 l 97 896 l 697 896 l 710 879 l 694 713 l 476 721 l 324 719 l 321 540 l 467 540 l 613 544 l 625 528 l 611 361 l 451 365 l 317 365 l 315 288 l 318 176 l 465 175 l 690 183 m 549 1419 l 581 1281 l 571 1263 q 246 1217 382 1231 l 226 1225 l 208 1321 q 531 1428 364 1367 l 549 1419 m 568 1135 l 558 1013 l 239 1013 l 225 1028 l 235 1150 l 554 1150 l 568 1135 z "},"Ḕ":{"ha":725,"x_min":97,"x_max":710,"o":"m 690 183 l 703 167 l 689 0 l 97 0 l 110 265 l 97 896 l 697 896 l 710 879 l 694 713 l 476 721 l 324 719 l 321 540 l 467 540 l 613 544 l 625 528 l 611 361 l 451 365 l 317 365 l 315 288 l 318 176 l 465 175 l 690 183 m 547 1217 q 222 1263 411 1231 l 211 1281 l 243 1419 l 263 1428 q 585 1321 436 1364 l 565 1225 l 547 1217 m 568 1135 l 558 1013 l 239 1013 l 225 1028 l 235 1150 l 554 1150 l 568 1135 z "},"Ę":{"ha":725,"x_min":97,"x_max":710,"o":"m 690 183 l 703 167 l 689 0 l 97 0 l 110 265 l 97 896 l 697 896 l 710 879 l 694 713 l 476 721 l 324 719 l 321 540 l 467 540 l 613 544 l 625 528 l 611 361 l 451 365 l 317 365 l 315 288 l 318 176 l 465 175 l 690 183 m 525 -311 q 414 -277 456 -311 q 372 -186 372 -243 q 408 -92 372 -139 q 540 17 443 -46 l 654 17 q 533 -106 561 -74 q 506 -158 506 -137 q 542 -189 506 -189 q 642 -154 581 -189 l 653 -157 l 678 -256 q 525 -311 600 -311 z "},"Ẽ":{"ha":725,"x_min":97,"x_max":710,"o":"m 690 183 l 703 167 l 689 0 l 97 0 l 110 265 l 97 896 l 697 896 l 710 879 l 694 713 l 476 721 l 324 719 l 321 540 l 467 540 l 613 544 l 625 528 l 611 361 l 451 365 l 317 365 l 315 288 l 318 176 l 465 175 l 690 183 m 651 1179 l 651 1161 l 549 1024 l 529 1015 q 465 1028 503 1018 q 414 1042 428 1039 q 315 1064 340 1064 q 281 1050 297 1064 q 248 1017 264 1036 q 225 989 232 997 l 206 989 l 142 1053 l 142 1071 l 244 1208 l 264 1215 q 385 1188 294 1211 q 478 1167 458 1167 q 512 1181 496 1167 q 544 1214 528 1194 q 568 1243 560 1233 l 588 1243 l 651 1179 z "},"F":{"ha":647,"x_min":97,"x_max":671,"o":"m 324 719 l 319 511 l 432 511 l 588 515 l 600 499 l 586 332 l 415 336 l 317 336 l 315 288 l 324 0 l 97 0 l 110 265 l 97 896 l 658 896 l 671 879 l 656 713 l 439 721 l 324 719 z "},"G":{"ha":829,"x_min":33,"x_max":776,"o":"m 517 908 q 776 860 667 908 l 729 658 l 710 658 q 588 712 642 696 q 475 728 535 728 q 356 701 400 728 q 290 611 311 674 q 268 440 268 549 q 289 273 268 333 q 355 186 310 213 q 479 160 400 160 q 569 174 518 160 l 571 236 l 567 382 l 774 397 l 771 274 l 772 44 q 460 -14 607 -14 q 140 101 247 -14 q 33 429 33 215 q 158 785 33 663 q 517 908 283 908 z "},"Ğ":{"ha":829,"x_min":33,"x_max":776,"o":"m 517 908 q 776 860 667 908 l 729 658 l 710 658 q 588 712 642 696 q 475 728 535 728 q 356 701 400 728 q 290 611 311 674 q 268 440 268 549 q 289 273 268 333 q 355 186 310 213 q 479 160 400 160 q 569 174 518 160 l 571 236 l 567 382 l 774 397 l 771 274 l 772 44 q 460 -14 607 -14 q 140 101 247 -14 q 33 429 33 215 q 158 785 33 663 q 517 908 283 908 m 681 1156 q 594 1038 653 1079 q 453 997 535 997 q 315 1038 372 997 q 232 1156 258 1079 l 279 1224 l 310 1224 q 369 1169 331 1188 q 460 1150 408 1150 q 545 1169 508 1150 q 601 1224 582 1188 l 633 1224 l 681 1156 z "},"Ǧ":{"ha":829,"x_min":33,"x_max":776,"o":"m 517 908 q 776 860 667 908 l 729 658 l 710 658 q 588 712 642 696 q 475 728 535 728 q 356 701 400 728 q 290 611 311 674 q 268 440 268 549 q 289 273 268 333 q 355 186 310 213 q 479 160 400 160 q 569 174 518 160 l 571 236 l 567 382 l 774 397 l 771 274 l 772 44 q 460 -14 607 -14 q 140 101 247 -14 q 33 429 33 215 q 158 785 33 663 q 517 908 283 908 m 672 1146 q 476 993 567 1075 l 435 993 q 238 1146 340 1078 l 276 1233 l 297 1233 l 360 1200 q 403 1176 379 1189 q 454 1147 426 1164 l 613 1233 l 633 1233 l 672 1146 z "},"Ĝ":{"ha":829,"x_min":33,"x_max":776,"o":"m 517 908 q 776 860 667 908 l 729 658 l 710 658 q 588 712 642 696 q 475 728 535 728 q 356 701 400 728 q 290 611 311 674 q 268 440 268 549 q 289 273 268 333 q 355 186 310 213 q 479 160 400 160 q 569 174 518 160 l 571 236 l 567 382 l 774 397 l 771 274 l 772 44 q 460 -14 607 -14 q 140 101 247 -14 q 33 429 33 215 q 158 785 33 663 q 517 908 283 908 m 239 1094 q 435 1247 344 1165 l 476 1247 q 674 1094 571 1163 l 635 1007 l 614 1007 l 551 1040 q 508 1064 532 1051 q 457 1093 485 1076 l 299 1007 l 278 1007 l 239 1094 z "},"Ģ":{"ha":829,"x_min":33,"x_max":776,"o":"m 517 908 q 776 860 667 908 l 729 658 l 710 658 q 588 712 642 696 q 475 728 535 728 q 356 701 400 728 q 290 611 311 674 q 268 440 268 549 q 289 273 268 333 q 355 186 310 213 q 479 160 400 160 q 569 174 518 160 l 571 236 l 567 382 l 774 397 l 771 274 l 772 44 q 460 -14 607 -14 q 140 101 247 -14 q 33 429 33 215 q 158 785 33 663 q 517 908 283 908 m 475 -46 q 531 -161 531 -96 q 491 -281 531 -224 q 368 -396 451 -337 l 307 -342 l 306 -328 q 374 -203 374 -268 q 364 -160 374 -179 q 333 -122 354 -142 l 335 -106 q 475 -46 403 -65 z "},"Ġ":{"ha":829,"x_min":33,"x_max":776,"o":"m 517 908 q 776 860 667 908 l 729 658 l 710 658 q 588 712 642 696 q 475 728 535 728 q 356 701 400 728 q 290 611 311 674 q 268 440 268 549 q 289 273 268 333 q 355 186 310 213 q 479 160 400 160 q 569 174 518 160 l 571 236 l 567 382 l 774 397 l 771 274 l 772 44 q 460 -14 607 -14 q 140 101 247 -14 q 33 429 33 215 q 158 785 33 663 q 517 908 283 908 m 458 1229 q 538 1200 510 1229 q 567 1119 567 1171 q 535 1031 567 1064 q 450 999 503 999 q 369 1028 397 999 q 342 1110 342 1057 q 373 1197 342 1164 q 458 1229 404 1229 z "},"Ḡ":{"ha":829,"x_min":33,"x_max":776,"o":"m 517 908 q 776 860 667 908 l 729 658 l 710 658 q 588 712 642 696 q 475 728 535 728 q 356 701 400 728 q 290 611 311 674 q 268 440 268 549 q 289 273 268 333 q 355 186 310 213 q 479 160 400 160 q 569 174 518 160 l 571 236 l 567 382 l 774 397 l 771 274 l 772 44 q 460 -14 607 -14 q 140 101 247 -14 q 33 429 33 215 q 158 785 33 663 q 517 908 283 908 m 660 1165 l 649 1043 l 263 1043 l 249 1058 l 258 1181 l 644 1181 l 660 1165 z "},"H":{"ha":975,"x_min":107,"x_max":885,"o":"m 872 288 l 881 0 l 656 0 l 667 265 l 665 356 l 485 357 l 325 353 l 324 288 l 332 0 l 107 0 l 118 265 l 107 896 l 335 896 l 328 539 l 499 536 l 663 539 l 656 896 l 885 896 l 872 288 z "},"Ħ":{"ha":1021,"x_min":28,"x_max":993,"o":"m 890 658 l 883 288 l 892 0 l 665 0 l 676 265 l 675 356 l 494 357 l 335 353 l 333 288 l 342 0 l 117 0 l 128 265 l 121 658 l 38 658 l 28 669 l 35 779 l 118 779 l 117 896 l 346 896 l 343 779 l 667 779 l 665 896 l 894 896 l 892 779 l 983 779 l 993 767 l 988 658 l 890 658 m 669 658 l 340 658 l 339 539 l 510 536 l 672 539 l 669 658 z "},"Ḫ":{"ha":975,"x_min":107,"x_max":885,"o":"m 872 288 l 881 0 l 656 0 l 667 265 l 665 356 l 485 357 l 325 353 l 324 288 l 332 0 l 107 0 l 118 265 l 107 896 l 335 896 l 328 539 l 499 536 l 663 539 l 656 896 l 885 896 l 872 288 m 713 -143 q 632 -273 690 -222 q 482 -324 574 -324 q 338 -272 392 -324 q 264 -143 283 -221 l 315 -72 l 346 -72 q 402 -144 364 -118 q 489 -169 440 -169 q 575 -144 538 -169 q 631 -72 613 -118 l 660 -72 l 713 -143 z "},"Ĥ":{"ha":975,"x_min":107,"x_max":885,"o":"m 872 288 l 881 0 l 656 0 l 667 265 l 665 356 l 485 357 l 325 353 l 324 288 l 332 0 l 107 0 l 118 265 l 107 896 l 335 896 l 328 539 l 499 536 l 663 539 l 656 896 l 885 896 l 872 288 m 274 1094 q 469 1247 379 1165 l 511 1247 q 708 1094 606 1163 l 669 1007 l 649 1007 l 586 1040 q 543 1064 567 1051 q 492 1093 519 1076 l 333 1007 l 313 1007 l 274 1094 z "},"Ḥ":{"ha":975,"x_min":107,"x_max":885,"o":"m 872 288 l 881 0 l 656 0 l 667 265 l 665 356 l 485 357 l 325 353 l 324 288 l 332 0 l 107 0 l 118 265 l 107 896 l 335 896 l 328 539 l 499 536 l 663 539 l 656 896 l 885 896 l 872 288 m 493 -61 q 573 -90 544 -61 q 601 -171 601 -119 q 569 -259 601 -226 q 485 -292 538 -292 q 404 -262 432 -292 q 376 -181 376 -233 q 408 -94 376 -126 q 493 -61 439 -61 z "},"I":{"ha":428,"x_min":97,"x_max":328,"o":"m 315 288 l 324 0 l 97 0 l 110 265 l 97 896 l 328 896 l 315 288 z "},"Ĳ":{"ha":908,"x_min":97,"x_max":813,"o":"m 315 288 l 324 0 l 97 0 l 110 265 l 97 896 l 328 896 l 315 288 m 800 296 l 803 169 q 776 30 803 88 q 686 -71 749 -28 q 514 -151 624 -114 l 450 -33 l 450 -14 q 563 68 531 26 q 594 175 594 110 l 594 274 l 586 735 l 451 731 l 438 746 l 447 896 l 813 896 l 800 296 z "},"Í":{"ha":428,"x_min":50,"x_max":424,"o":"m 315 288 l 324 0 l 97 0 l 110 265 l 97 896 l 328 896 l 315 288 m 368 1246 l 424 1114 l 417 1096 q 104 992 281 1046 l 85 997 l 50 1089 q 347 1250 204 1165 l 368 1246 z "},"Ĭ":{"ha":428,"x_min":-10,"x_max":439,"o":"m 315 288 l 324 0 l 97 0 l 110 265 l 97 896 l 328 896 l 315 288 m 439 1156 q 352 1038 411 1079 q 211 997 293 997 q 74 1038 131 997 q -10 1156 17 1079 l 38 1224 l 68 1224 q 128 1169 89 1188 q 218 1150 167 1150 q 303 1169 267 1150 q 360 1224 340 1188 l 392 1224 l 439 1156 z "},"Ǐ":{"ha":428,"x_min":-4,"x_max":431,"o":"m 315 288 l 324 0 l 97 0 l 110 265 l 97 896 l 328 896 l 315 288 m 431 1146 q 235 993 325 1075 l 193 993 q -4 1146 99 1078 l 35 1233 l 56 1233 l 118 1200 q 161 1176 138 1189 q 213 1147 185 1164 l 371 1233 l 392 1233 l 431 1146 z "},"Î":{"ha":428,"x_min":-3,"x_max":432,"o":"m 315 288 l 324 0 l 97 0 l 110 265 l 97 896 l 328 896 l 315 288 m -3 1094 q 193 1247 103 1165 l 235 1247 q 432 1094 329 1163 l 393 1007 l 372 1007 l 310 1040 q 267 1064 290 1051 q 215 1093 243 1076 l 57 1007 l 36 1007 l -3 1094 z "},"Ȉ":{"ha":428,"x_min":-74,"x_max":413,"o":"m 315 288 l 324 0 l 97 0 l 110 265 l 97 896 l 328 896 l 315 288 m 121 990 l 104 996 q -74 1160 3 1083 l -71 1176 l 32 1243 l 47 1239 q 110 1153 82 1190 q 157 1088 138 1115 l 189 1044 l 121 990 m 344 990 l 325 996 q 149 1160 218 1090 l 153 1176 l 254 1243 l 271 1239 q 413 1044 315 1172 l 344 990 z "},"Ï":{"ha":428,"x_min":18,"x_max":408,"o":"m 315 288 l 324 0 l 97 0 l 110 265 l 97 896 l 328 896 l 315 288 m 115 1206 q 180 1182 157 1206 q 203 1115 203 1158 q 176 1044 203 1071 q 107 1017 150 1017 q 41 1040 64 1017 q 18 1107 18 1064 q 44 1179 18 1153 q 115 1206 71 1206 m 319 1206 q 385 1182 363 1206 q 408 1115 408 1158 q 382 1044 408 1071 q 313 1017 356 1017 q 246 1040 269 1017 q 222 1107 222 1064 q 249 1179 222 1153 q 319 1206 275 1206 z "},"Ḯ":{"ha":428,"x_min":-12,"x_max":438,"o":"m 315 288 l 324 0 l 97 0 l 110 265 l 97 896 l 328 896 l 315 288 m 361 1447 l 393 1308 l 383 1290 q 58 1244 194 1258 l 40 1253 l 21 1349 q 343 1456 176 1394 l 361 1447 m 92 1183 q 160 1158 136 1183 q 185 1088 185 1133 q 158 1011 185 1039 q 83 983 131 983 q 13 1008 38 983 q -12 1079 -12 1033 q 15 1156 -12 1128 q 92 1183 43 1183 m 343 1183 q 413 1158 388 1183 q 438 1088 438 1133 q 410 1011 438 1039 q 336 983 383 983 q 265 1008 290 983 q 240 1079 240 1033 q 268 1155 240 1126 q 343 1183 296 1183 z "},"İ":{"ha":428,"x_min":97,"x_max":328,"o":"m 315 288 l 324 0 l 97 0 l 110 265 l 97 896 l 328 896 l 315 288 m 217 1229 q 297 1200 268 1229 q 325 1119 325 1171 q 293 1031 325 1064 q 208 999 261 999 q 128 1028 156 999 q 100 1110 100 1057 q 131 1197 100 1164 q 217 1229 163 1229 z "},"Ị":{"ha":428,"x_min":92,"x_max":328,"o":"m 315 288 l 324 0 l 97 0 l 110 265 l 97 896 l 328 896 l 315 288 m 208 -61 q 288 -90 260 -61 q 317 -171 317 -119 q 285 -259 317 -226 q 200 -292 253 -292 q 119 -262 147 -292 q 92 -181 92 -233 q 123 -94 92 -126 q 208 -61 154 -61 z "},"Ì":{"ha":428,"x_min":26,"x_max":400,"o":"m 315 288 l 324 0 l 97 0 l 110 265 l 97 896 l 328 896 l 315 288 m 103 1250 q 400 1089 249 1164 l 365 997 l 346 992 q 33 1096 167 1049 l 26 1114 l 82 1246 l 103 1250 z "},"Ỉ":{"ha":428,"x_min":53,"x_max":338,"o":"m 315 288 l 324 0 l 97 0 l 110 265 l 97 896 l 328 896 l 315 288 m 147 1046 q 202 1099 182 1071 q 222 1149 222 1128 q 210 1172 222 1164 q 181 1181 199 1181 q 135 1171 160 1181 q 88 1144 110 1161 l 53 1201 q 128 1258 86 1238 q 213 1278 171 1278 q 302 1248 267 1278 q 338 1169 338 1218 q 320 1115 338 1140 q 257 1049 303 1089 l 290 992 l 214 946 l 147 1046 z "},"Ȋ":{"ha":428,"x_min":-12,"x_max":436,"o":"m 315 288 l 324 0 l 97 0 l 110 265 l 97 896 l 328 896 l 315 288 m -12 1081 q 68 1210 10 1160 q 218 1261 126 1261 q 363 1210 308 1261 q 436 1081 417 1158 l 385 1010 l 354 1010 q 298 1081 336 1056 q 211 1107 260 1107 q 125 1081 163 1107 q 69 1010 88 1056 l 40 1010 l -12 1081 z "},"Ī":{"ha":428,"x_min":40,"x_max":383,"o":"m 315 288 l 324 0 l 97 0 l 110 265 l 97 896 l 328 896 l 315 288 m 383 1165 l 374 1043 l 54 1043 l 40 1058 l 50 1181 l 369 1181 l 383 1165 z "},"Į":{"ha":428,"x_min":61,"x_max":351,"o":"m 315 288 l 324 0 l 97 0 l 110 265 l 97 896 l 328 896 l 315 288 m 324 0 q 217 -79 246 -53 q 189 -124 189 -106 q 221 -150 189 -150 q 314 -112 258 -150 l 325 -115 l 351 -210 q 194 -271 278 -271 q 98 -240 135 -271 q 61 -157 61 -208 q 196 0 61 -62 l 324 0 z "},"Ĩ":{"ha":428,"x_min":-11,"x_max":436,"o":"m 315 288 l 324 0 l 97 0 l 110 265 l 97 896 l 328 896 l 315 288 m 436 1175 l 436 1157 l 344 1021 l 326 1014 q 224 1042 293 1018 q 151 1060 167 1060 q 115 1043 131 1060 q 72 988 100 1026 l 53 988 l -11 1050 l -11 1069 l 82 1204 l 100 1211 q 203 1183 133 1207 q 275 1165 260 1165 q 310 1182 294 1165 q 354 1239 325 1199 l 372 1239 l 436 1175 z "},"J":{"ha":481,"x_min":10,"x_max":385,"o":"m 372 296 l 375 169 q 348 30 375 88 q 258 -71 321 -28 q 86 -151 196 -114 l 22 -33 l 22 -14 q 135 68 103 26 q 167 175 167 110 l 167 274 l 158 735 l 24 731 l 10 746 l 19 896 l 385 896 l 372 296 z "},"Ĵ":{"ha":481,"x_min":-1,"x_max":433,"o":"m 372 296 l 375 169 q 348 30 375 88 q 258 -71 321 -28 q 86 -151 196 -114 l 22 -33 l 22 -14 q 135 68 103 26 q 167 175 167 110 l 167 274 l 158 735 l 24 731 l 10 746 l 19 896 l 385 896 l 372 296 m -1 1094 q 194 1247 104 1165 l 236 1247 q 433 1094 331 1163 l 394 1007 l 374 1007 l 311 1040 q 268 1064 292 1051 q 217 1093 244 1076 l 58 1007 l 38 1007 l -1 1094 z "},"K":{"ha":836,"x_min":99,"x_max":854,"o":"m 533 474 q 854 47 675 264 l 851 22 q 629 -15 742 -4 l 603 -1 q 318 442 432 249 l 315 288 l 324 0 l 99 0 l 110 265 l 99 896 l 326 896 l 319 496 l 538 806 l 588 896 l 828 896 l 533 474 z "},"Ķ":{"ha":836,"x_min":99,"x_max":854,"o":"m 533 474 q 854 47 675 264 l 851 22 q 629 -15 742 -4 l 603 -1 q 318 442 432 249 l 315 288 l 324 0 l 99 0 l 110 265 l 99 896 l 326 896 l 319 496 l 538 806 l 588 896 l 828 896 l 533 474 m 481 -46 q 536 -161 536 -96 q 497 -281 536 -224 q 374 -396 457 -337 l 313 -342 l 311 -328 q 379 -203 379 -268 q 369 -160 379 -179 q 339 -122 360 -142 l 340 -106 q 481 -46 408 -65 z "},"L":{"ha":613,"x_min":92,"x_max":611,"o":"m 611 168 l 596 0 l 92 0 l 104 265 l 92 896 l 321 896 l 308 288 l 313 185 l 597 185 l 611 168 z "},"Ǉ":{"ha":1075,"x_min":92,"x_max":979,"o":"m 611 168 l 596 0 l 92 0 l 104 265 l 92 896 l 321 896 l 308 288 l 313 185 l 597 185 l 611 168 m 967 296 l 969 169 q 942 30 969 88 q 853 -71 915 -28 q 681 -151 790 -114 l 617 -33 l 617 -14 q 729 68 697 26 q 761 175 761 110 l 761 274 l 753 735 l 618 731 l 604 746 l 614 896 l 979 896 l 967 296 z "},"Ĺ":{"ha":613,"x_min":51,"x_max":611,"o":"m 611 168 l 596 0 l 92 0 l 104 265 l 92 896 l 321 896 l 308 288 l 313 185 l 597 185 l 611 168 m 369 1246 l 425 1114 l 418 1096 q 106 992 282 1046 l 86 997 l 51 1089 q 349 1250 206 1165 l 369 1246 z "},"Ľ":{"ha":689,"x_min":92,"x_max":639,"o":"m 597 185 l 611 168 l 596 0 l 92 0 l 104 265 l 92 896 l 321 896 l 308 288 l 313 185 l 597 185 m 478 514 l 469 817 l 626 826 l 639 813 l 588 517 l 493 503 l 478 514 z "},"Ļ":{"ha":613,"x_min":92,"x_max":611,"o":"m 611 168 l 596 0 l 92 0 l 104 265 l 92 896 l 321 896 l 308 288 l 313 185 l 597 185 l 611 168 m 381 -46 q 436 -161 436 -96 q 397 -281 436 -224 q 274 -396 357 -337 l 213 -342 l 211 -328 q 279 -203 279 -268 q 269 -160 279 -179 q 239 -122 260 -142 l 240 -106 q 381 -46 308 -65 z "},"Ŀ":{"ha":660,"x_min":92,"x_max":638,"o":"m 611 168 l 596 0 l 92 0 l 104 265 l 92 896 l 321 896 l 308 288 l 313 185 l 597 185 l 611 168 m 529 663 q 609 633 581 663 q 638 553 638 604 q 606 465 638 497 q 521 432 574 432 q 440 461 468 432 q 413 543 413 490 q 444 630 413 597 q 529 663 475 663 z "},"Ḷ":{"ha":613,"x_min":92,"x_max":611,"o":"m 611 168 l 596 0 l 92 0 l 104 265 l 92 896 l 321 896 l 308 288 l 313 185 l 597 185 l 611 168 m 328 -61 q 408 -90 379 -61 q 436 -171 436 -119 q 404 -259 436 -226 q 319 -292 372 -292 q 239 -262 267 -292 q 211 -181 211 -233 q 242 -94 211 -126 q 328 -61 274 -61 z "},"ǈ":{"ha":1021,"x_min":92,"x_max":943,"o":"m 611 168 l 596 0 l 92 0 l 104 265 l 92 896 l 321 896 l 308 288 l 313 185 l 597 185 l 611 168 m 943 650 l 931 288 l 940 42 q 883 -143 940 -68 q 699 -272 825 -218 l 624 -175 l 624 -156 q 706 -79 681 -125 q 732 36 732 -33 l 732 265 l 726 514 l 625 514 l 613 526 l 622 644 l 732 644 l 936 654 l 943 650 m 819 983 q 899 954 871 983 q 928 874 928 925 q 896 785 928 818 q 811 753 864 753 q 731 782 758 753 q 703 864 703 811 q 734 951 703 918 q 819 983 765 983 z "},"Ḻ":{"ha":613,"x_min":92,"x_max":611,"o":"m 611 168 l 596 0 l 92 0 l 104 265 l 92 896 l 321 896 l 308 288 l 313 185 l 597 185 l 611 168 m 508 -122 l 499 -244 l 151 -244 l 138 -229 l 147 -108 l 494 -108 l 508 -122 z "},"Ł":{"ha":636,"x_min":-8,"x_max":636,"o":"m 636 168 l 621 0 l 117 0 l 129 265 l 128 317 l 51 278 l 31 289 l -8 419 l 125 488 l 117 896 l 346 896 l 340 597 l 461 658 l 482 649 l 522 519 l 336 424 l 333 288 l 338 185 l 622 185 l 636 168 z "},"M":{"ha":1113,"x_min":51,"x_max":1054,"o":"m 1054 0 l 856 0 l 844 272 l 819 567 l 806 567 l 628 90 l 456 90 l 300 567 l 285 567 l 257 293 l 239 0 l 51 0 l 140 896 l 400 896 l 432 765 l 547 382 l 561 382 l 686 761 l 722 896 l 978 896 l 1054 0 z "},"Ṃ":{"ha":1113,"x_min":51,"x_max":1054,"o":"m 1054 0 l 856 0 l 844 272 l 819 567 l 806 567 l 628 90 l 456 90 l 300 567 l 285 567 l 257 293 l 239 0 l 51 0 l 140 896 l 400 896 l 432 765 l 547 382 l 561 382 l 686 761 l 722 896 l 978 896 l 1054 0 m 560 -61 q 640 -90 611 -61 q 668 -171 668 -119 q 636 -259 668 -226 q 551 -292 604 -292 q 471 -262 499 -292 q 443 -181 443 -233 q 474 -94 443 -126 q 560 -61 506 -61 z "},"N":{"ha":974,"x_min":99,"x_max":876,"o":"m 864 283 l 872 0 l 628 0 l 310 554 l 296 554 l 294 315 l 303 0 l 99 0 l 110 264 l 99 896 l 342 896 l 661 342 l 675 342 l 669 888 l 876 900 l 864 283 z "},"Ǌ":{"ha":1454,"x_min":99,"x_max":1358,"o":"m 864 283 l 872 0 l 628 0 l 310 554 l 296 554 l 294 315 l 303 0 l 99 0 l 110 264 l 99 896 l 342 896 l 661 342 l 675 342 l 669 888 l 876 900 l 864 283 m 1346 296 l 1349 169 q 1322 30 1349 88 q 1232 -71 1294 -28 q 1060 -151 1169 -114 l 996 -33 l 996 -14 q 1108 68 1076 26 q 1140 175 1140 110 l 1140 274 l 1132 735 l 997 731 l 983 746 l 993 896 l 1358 896 l 1346 296 z "},"Ń":{"ha":974,"x_min":99,"x_max":876,"o":"m 864 283 l 872 0 l 628 0 l 310 554 l 296 554 l 294 315 l 303 0 l 99 0 l 110 264 l 99 896 l 342 896 l 661 342 l 675 342 l 669 888 l 876 900 l 864 283 m 642 1246 l 697 1114 l 690 1096 q 378 992 554 1046 l 358 997 l 324 1089 q 621 1250 478 1165 l 642 1246 z "},"Ň":{"ha":974,"x_min":99,"x_max":876,"o":"m 864 283 l 872 0 l 628 0 l 310 554 l 296 554 l 294 315 l 303 0 l 99 0 l 110 264 l 99 896 l 342 896 l 661 342 l 675 342 l 669 888 l 876 900 l 864 283 m 704 1146 q 508 993 599 1075 l 467 993 q 269 1146 372 1078 l 308 1233 l 329 1233 l 392 1200 q 435 1176 411 1189 q 486 1147 458 1164 l 644 1233 l 665 1233 l 704 1146 z "},"Ņ":{"ha":974,"x_min":99,"x_max":876,"o":"m 864 283 l 872 0 l 628 0 l 310 554 l 296 554 l 294 315 l 303 0 l 99 0 l 110 264 l 99 896 l 342 896 l 661 342 l 675 342 l 669 888 l 876 900 l 864 283 m 543 -46 q 599 -161 599 -96 q 559 -281 599 -224 q 436 -396 519 -337 l 375 -342 l 374 -328 q 442 -203 442 -268 q 432 -160 442 -179 q 401 -122 422 -142 l 403 -106 q 543 -46 471 -65 z "},"Ṅ":{"ha":974,"x_min":99,"x_max":876,"o":"m 864 283 l 872 0 l 628 0 l 310 554 l 296 554 l 294 315 l 303 0 l 99 0 l 110 264 l 99 896 l 342 896 l 661 342 l 675 342 l 669 888 l 876 900 l 864 283 m 490 1229 q 570 1200 542 1229 q 599 1119 599 1171 q 567 1031 599 1064 q 482 999 535 999 q 401 1028 429 999 q 374 1110 374 1057 q 405 1197 374 1164 q 490 1229 436 1229 z "},"Ṇ":{"ha":974,"x_min":99,"x_max":876,"o":"m 864 283 l 872 0 l 628 0 l 310 554 l 296 554 l 294 315 l 303 0 l 99 0 l 110 264 l 99 896 l 342 896 l 661 342 l 675 342 l 669 888 l 876 900 l 864 283 m 490 -61 q 570 -90 542 -61 q 599 -171 599 -119 q 567 -259 599 -226 q 482 -292 535 -292 q 401 -262 429 -292 q 374 -181 374 -233 q 405 -94 374 -126 q 490 -61 436 -61 z "},"Ŋ":{"ha":974,"x_min":97,"x_max":876,"o":"m 864 283 l 869 76 q 842 -62 869 -6 q 753 -162 815 -119 q 581 -243 690 -206 l 518 -126 l 518 -107 q 600 -56 569 -82 q 644 0 631 -31 l 310 554 l 296 554 l 294 315 l 304 0 l 97 0 l 110 264 l 99 896 l 343 896 l 661 361 l 675 361 l 668 888 l 876 900 l 864 283 z "},"ǋ":{"ha":1382,"x_min":99,"x_max":1304,"o":"m 864 283 l 872 0 l 628 0 l 310 554 l 296 554 l 294 315 l 303 0 l 99 0 l 110 264 l 99 896 l 342 896 l 661 342 l 675 342 l 669 888 l 876 900 l 864 283 m 1304 650 l 1292 288 l 1301 42 q 1244 -143 1301 -68 q 1060 -272 1186 -218 l 985 -175 l 985 -156 q 1067 -79 1042 -125 q 1093 36 1093 -33 l 1093 265 l 1088 514 l 986 514 l 974 526 l 983 644 l 1093 644 l 1297 654 l 1304 650 m 1181 983 q 1260 954 1232 983 q 1289 874 1289 925 q 1257 785 1289 818 q 1172 753 1225 753 q 1092 782 1119 753 q 1064 864 1064 811 q 1095 951 1064 918 q 1181 983 1126 983 z "},"Ṉ":{"ha":974,"x_min":99,"x_max":876,"o":"m 864 283 l 872 0 l 628 0 l 310 554 l 296 554 l 294 315 l 303 0 l 99 0 l 110 264 l 99 896 l 342 896 l 661 342 l 675 342 l 669 888 l 876 900 l 864 283 m 671 -122 l 661 -244 l 314 -244 l 300 -229 l 310 -108 l 657 -108 l 671 -122 z "},"Ñ":{"ha":974,"x_min":99,"x_max":876,"o":"m 864 283 l 872 0 l 628 0 l 310 554 l 296 554 l 294 315 l 303 0 l 99 0 l 110 264 l 99 896 l 342 896 l 661 342 l 675 342 l 669 888 l 876 900 l 864 283 m 740 1179 l 740 1161 l 638 1024 l 618 1015 q 554 1028 592 1018 q 503 1042 517 1039 q 404 1064 429 1064 q 369 1050 386 1064 q 337 1017 353 1036 q 314 989 321 997 l 294 989 l 231 1053 l 231 1071 l 333 1208 l 353 1215 q 474 1188 383 1211 q 567 1167 547 1167 q 601 1181 585 1167 q 633 1214 617 1194 q 657 1243 649 1233 l 676 1243 l 740 1179 z "},"O":{"ha":899,"x_min":33,"x_max":867,"o":"m 467 910 q 763 795 658 910 q 867 469 867 681 q 753 112 867 239 q 432 -15 639 -15 q 138 102 242 -15 q 33 435 33 219 q 147 786 33 663 q 467 910 260 910 m 447 729 q 343 703 382 729 q 286 620 304 678 q 268 464 268 563 q 286 278 268 346 q 344 182 304 211 q 451 153 383 153 q 557 178 518 153 q 613 263 596 204 q 631 422 631 321 q 613 606 631 539 q 556 701 594 672 q 447 729 517 729 z "},"Ó":{"ha":899,"x_min":33,"x_max":867,"o":"m 467 910 q 763 795 658 910 q 867 469 867 681 q 753 112 867 239 q 432 -15 639 -15 q 138 102 242 -15 q 33 435 33 219 q 147 786 33 663 q 467 910 260 910 m 447 729 q 343 703 382 729 q 286 620 304 678 q 268 464 268 563 q 286 278 268 346 q 344 182 304 211 q 451 153 383 153 q 557 178 518 153 q 613 263 596 204 q 631 422 631 321 q 613 606 631 539 q 556 701 594 672 q 447 729 517 729 m 606 1246 l 661 1114 l 654 1096 q 342 992 518 1046 l 322 997 l 288 1089 q 585 1250 442 1165 l 606 1246 z "},"Ŏ":{"ha":899,"x_min":33,"x_max":867,"o":"m 467 910 q 763 795 658 910 q 867 469 867 681 q 753 112 867 239 q 432 -15 639 -15 q 138 102 242 -15 q 33 435 33 219 q 147 786 33 663 q 467 910 260 910 m 447 729 q 343 703 382 729 q 286 620 304 678 q 268 464 268 563 q 286 278 268 346 q 344 182 304 211 q 451 153 383 153 q 557 178 518 153 q 613 263 596 204 q 631 422 631 321 q 613 606 631 539 q 556 701 594 672 q 447 729 517 729 m 676 1156 q 590 1038 649 1079 q 449 997 531 997 q 311 1038 368 997 q 228 1156 254 1079 l 275 1224 l 306 1224 q 365 1169 326 1188 q 456 1150 404 1150 q 541 1169 504 1150 q 597 1224 578 1188 l 629 1224 l 676 1156 z "},"Ǒ":{"ha":899,"x_min":33,"x_max":867,"o":"m 467 910 q 763 795 658 910 q 867 469 867 681 q 753 112 867 239 q 432 -15 639 -15 q 138 102 242 -15 q 33 435 33 219 q 147 786 33 663 q 467 910 260 910 m 447 729 q 343 703 382 729 q 286 620 304 678 q 268 464 268 563 q 286 278 268 346 q 344 182 304 211 q 451 153 383 153 q 557 178 518 153 q 613 263 596 204 q 631 422 631 321 q 613 606 631 539 q 556 701 594 672 q 447 729 517 729 m 668 1146 q 472 993 563 1075 l 431 993 q 233 1146 336 1078 l 272 1233 l 293 1233 l 356 1200 q 399 1176 375 1189 q 450 1147 422 1164 l 608 1233 l 629 1233 l 668 1146 z "},"Ô":{"ha":899,"x_min":33,"x_max":867,"o":"m 467 910 q 763 795 658 910 q 867 469 867 681 q 753 112 867 239 q 432 -15 639 -15 q 138 102 242 -15 q 33 435 33 219 q 147 786 33 663 q 467 910 260 910 m 447 729 q 343 703 382 729 q 286 620 304 678 q 268 464 268 563 q 286 278 268 346 q 344 182 304 211 q 451 153 383 153 q 557 178 518 153 q 613 263 596 204 q 631 422 631 321 q 613 606 631 539 q 556 701 594 672 q 447 729 517 729 m 235 1094 q 431 1247 340 1165 l 472 1247 q 669 1094 567 1163 l 631 1007 l 610 1007 l 547 1040 q 504 1064 528 1051 q 453 1093 481 1076 l 294 1007 l 274 1007 l 235 1094 z "},"Ố":{"ha":899,"x_min":33,"x_max":867,"o":"m 467 910 q 763 795 658 910 q 867 469 867 681 q 753 112 867 239 q 432 -15 639 -15 q 138 102 242 -15 q 33 435 33 219 q 147 786 33 663 q 467 910 260 910 m 447 729 q 343 703 382 729 q 286 620 304 678 q 268 464 268 563 q 286 278 268 346 q 344 182 304 211 q 451 153 383 153 q 557 178 518 153 q 613 263 596 204 q 631 422 631 321 q 613 606 631 539 q 556 701 594 672 q 447 729 517 729 m 732 1336 l 738 1319 l 619 1168 l 606 1168 l 529 1222 l 610 1378 l 625 1386 l 732 1336 m 233 1065 q 431 1218 354 1149 l 472 1218 q 668 1065 553 1144 l 629 979 l 608 979 q 451 1065 536 1017 q 294 979 367 1017 l 274 979 l 233 1065 z "},"Ộ":{"ha":899,"x_min":33,"x_max":867,"o":"m 239 1092 q 435 1244 344 1163 l 476 1244 q 674 1092 571 1160 l 635 1004 l 614 1004 l 551 1038 q 508 1061 532 1049 q 457 1090 485 1074 l 299 1004 l 278 1004 l 239 1092 m 467 910 q 763 795 658 910 q 867 469 867 681 q 753 112 867 239 q 432 -15 639 -15 q 138 102 242 -15 q 33 435 33 219 q 147 786 33 663 q 467 910 260 910 m 447 729 q 343 703 382 729 q 286 620 304 678 q 268 464 268 563 q 286 278 268 346 q 344 182 304 211 q 451 153 383 153 q 557 178 518 153 q 613 263 596 204 q 631 422 631 321 q 613 606 631 539 q 556 701 594 672 q 447 729 517 729 m 454 -61 q 534 -90 506 -61 q 563 -171 563 -119 q 531 -259 563 -226 q 446 -292 499 -292 q 365 -262 393 -292 q 338 -181 338 -233 q 369 -94 338 -126 q 454 -61 400 -61 z "},"Ồ":{"ha":899,"x_min":33,"x_max":867,"o":"m 467 910 q 763 795 658 910 q 867 469 867 681 q 753 112 867 239 q 432 -15 639 -15 q 138 102 242 -15 q 33 435 33 219 q 147 786 33 663 q 467 910 260 910 m 447 729 q 343 703 382 729 q 286 620 304 678 q 268 464 268 563 q 286 278 268 346 q 344 182 304 211 q 451 153 383 153 q 557 178 518 153 q 613 263 596 204 q 631 422 631 321 q 613 606 631 539 q 556 701 594 672 q 447 729 517 729 m 486 1319 l 490 1336 l 597 1386 l 613 1378 l 694 1222 l 618 1168 l 604 1168 l 486 1319 m 233 1065 q 431 1218 354 1149 l 472 1218 q 668 1065 553 1144 l 629 979 l 608 979 q 451 1065 536 1017 q 294 979 367 1017 l 274 979 l 233 1065 z "},"Ổ":{"ha":899,"x_min":33,"x_max":867,"o":"m 467 910 q 763 795 658 910 q 867 469 867 681 q 753 112 867 239 q 432 -15 639 -15 q 138 102 242 -15 q 33 435 33 219 q 147 786 33 663 q 467 910 260 910 m 447 729 q 343 703 382 729 q 286 620 304 678 q 268 464 268 563 q 286 278 268 346 q 344 182 304 211 q 451 153 383 153 q 557 178 518 153 q 613 263 596 204 q 631 422 631 321 q 613 606 631 539 q 556 701 594 672 q 447 729 517 729 m 233 1094 q 429 1247 339 1165 l 471 1247 q 668 1094 565 1163 l 629 1007 l 608 1007 l 546 1040 q 503 1064 526 1051 q 451 1093 479 1076 l 293 1007 l 272 1007 l 233 1094 m 564 1280 q 616 1331 597 1303 q 635 1377 635 1358 q 624 1400 635 1392 q 596 1408 613 1408 q 552 1399 576 1408 q 507 1374 528 1389 l 474 1428 q 546 1481 506 1462 q 626 1500 587 1500 q 711 1472 678 1500 q 745 1397 745 1444 q 729 1345 745 1370 q 669 1282 712 1321 l 700 1228 l 628 1184 l 564 1280 z "},"Ỗ":{"ha":899,"x_min":33,"x_max":867,"o":"m 467 910 q 763 795 658 910 q 867 469 867 681 q 753 112 867 239 q 432 -15 639 -15 q 138 102 242 -15 q 33 435 33 219 q 147 786 33 663 q 467 910 260 910 m 447 729 q 343 703 382 729 q 286 620 304 678 q 268 464 268 563 q 286 278 268 346 q 344 182 304 211 q 451 153 383 153 q 557 178 518 153 q 613 263 596 204 q 631 422 631 321 q 613 606 631 539 q 556 701 594 672 q 447 729 517 729 m 235 1094 q 431 1247 340 1165 l 472 1247 q 669 1094 567 1163 l 631 1007 l 610 1007 l 547 1040 q 504 1064 528 1051 q 453 1093 481 1076 l 294 1007 l 274 1007 l 235 1094 m 704 1442 l 704 1422 l 600 1285 l 581 1278 q 517 1291 554 1281 q 465 1304 479 1301 q 368 1326 392 1326 q 330 1310 347 1326 q 278 1251 313 1293 l 258 1251 l 194 1315 l 194 1333 l 299 1471 l 317 1478 q 438 1450 347 1474 q 531 1429 510 1429 q 565 1444 549 1429 q 599 1478 582 1458 q 621 1504 615 1497 l 639 1504 l 704 1442 z "},"Ȍ":{"ha":899,"x_min":33,"x_max":867,"o":"m 467 910 q 763 795 658 910 q 867 469 867 681 q 753 112 867 239 q 432 -15 639 -15 q 138 102 242 -15 q 33 435 33 219 q 147 786 33 663 q 467 910 260 910 m 447 729 q 343 703 382 729 q 286 620 304 678 q 268 464 268 563 q 286 278 268 346 q 344 182 304 211 q 451 153 383 153 q 557 178 518 153 q 613 263 596 204 q 631 422 631 321 q 613 606 631 539 q 556 701 594 672 q 447 729 517 729 m 358 990 l 342 996 q 164 1160 240 1083 l 167 1176 l 269 1243 l 285 1239 q 347 1153 319 1190 q 394 1088 375 1115 l 426 1044 l 358 990 m 582 990 l 563 996 q 386 1160 456 1090 l 390 1176 l 492 1243 l 508 1239 q 650 1044 553 1172 l 582 990 z "},"Ö":{"ha":899,"x_min":33,"x_max":867,"o":"m 467 910 q 763 795 658 910 q 867 469 867 681 q 753 112 867 239 q 432 -15 639 -15 q 138 102 242 -15 q 33 435 33 219 q 147 786 33 663 q 467 910 260 910 m 447 729 q 343 703 382 729 q 286 620 304 678 q 268 464 268 563 q 286 278 268 346 q 344 182 304 211 q 451 153 383 153 q 557 178 518 153 q 613 263 596 204 q 631 422 631 321 q 613 606 631 539 q 556 701 594 672 q 447 729 517 729 m 328 1213 q 398 1187 372 1213 q 424 1115 424 1161 q 396 1038 424 1067 q 319 1010 368 1010 q 248 1035 272 1010 q 224 1107 224 1060 q 251 1184 224 1156 q 328 1213 279 1213 m 581 1213 q 650 1187 625 1213 q 675 1115 675 1161 q 647 1038 675 1067 q 572 1010 619 1010 q 501 1035 525 1010 q 476 1107 476 1060 q 504 1184 476 1156 q 581 1213 532 1213 z "},"Ȫ":{"ha":899,"x_min":33,"x_max":867,"o":"m 467 910 q 763 795 658 910 q 867 469 867 681 q 753 112 867 239 q 432 -15 639 -15 q 138 102 242 -15 q 33 435 33 219 q 147 786 33 663 q 467 910 260 910 m 447 729 q 343 703 382 729 q 286 620 304 678 q 268 464 268 563 q 286 278 268 346 q 344 182 304 211 q 451 153 383 153 q 557 178 518 153 q 613 263 596 204 q 631 422 631 321 q 613 606 631 539 q 556 701 594 672 q 447 729 517 729 m 660 1379 l 649 1257 l 258 1257 l 243 1272 l 254 1394 l 646 1394 l 660 1379 m 329 1183 q 398 1158 374 1183 q 422 1088 422 1133 q 395 1011 422 1039 q 321 983 368 983 q 250 1008 275 983 q 225 1079 225 1033 q 253 1156 225 1128 q 329 1183 281 1183 m 581 1183 q 650 1158 625 1183 q 675 1088 675 1133 q 648 1011 675 1039 q 574 983 621 983 q 503 1008 528 983 q 478 1079 478 1033 q 506 1155 478 1126 q 581 1183 533 1183 z "},"Ȱ":{"ha":899,"x_min":33,"x_max":867,"o":"m 467 910 q 763 795 658 910 q 867 469 867 681 q 753 112 867 239 q 432 -15 639 -15 q 138 102 242 -15 q 33 435 33 219 q 147 786 33 663 q 467 910 260 910 m 447 729 q 343 703 382 729 q 286 620 304 678 q 268 464 268 563 q 286 278 268 346 q 344 182 304 211 q 451 153 383 153 q 557 178 518 153 q 613 263 596 204 q 631 422 631 321 q 613 606 631 539 q 556 701 594 672 q 447 729 517 729 m 454 1210 q 534 1181 506 1210 q 563 1100 563 1151 q 531 1012 563 1044 q 446 979 499 979 q 365 1008 393 979 q 338 1090 338 1038 q 369 1177 338 1144 q 454 1210 400 1210 m 621 1379 l 611 1257 l 292 1257 l 278 1272 l 288 1394 l 607 1394 l 621 1379 z "},"Ọ":{"ha":899,"x_min":33,"x_max":867,"o":"m 467 910 q 763 795 658 910 q 867 469 867 681 q 753 112 867 239 q 432 -15 639 -15 q 138 102 242 -15 q 33 435 33 219 q 147 786 33 663 q 467 910 260 910 m 447 729 q 343 703 382 729 q 286 620 304 678 q 268 464 268 563 q 286 278 268 346 q 344 182 304 211 q 451 153 383 153 q 557 178 518 153 q 613 263 596 204 q 631 422 631 321 q 613 606 631 539 q 556 701 594 672 q 447 729 517 729 m 454 -61 q 534 -90 506 -61 q 563 -171 563 -119 q 531 -259 563 -226 q 446 -292 499 -292 q 365 -262 393 -292 q 338 -181 338 -233 q 369 -94 338 -126 q 454 -61 400 -61 z "},"Ò":{"ha":899,"x_min":33,"x_max":867,"o":"m 467 910 q 763 795 658 910 q 867 469 867 681 q 753 112 867 239 q 432 -15 639 -15 q 138 102 242 -15 q 33 435 33 219 q 147 786 33 663 q 467 910 260 910 m 447 729 q 343 703 382 729 q 286 620 304 678 q 268 464 268 563 q 286 278 268 346 q 344 182 304 211 q 451 153 383 153 q 557 178 518 153 q 613 263 596 204 q 631 422 631 321 q 613 606 631 539 q 556 701 594 672 q 447 729 517 729 m 340 1250 q 638 1089 486 1164 l 603 997 l 583 992 q 271 1096 404 1049 l 264 1114 l 319 1246 l 340 1250 z "},"Ỏ":{"ha":899,"x_min":33,"x_max":867,"o":"m 467 910 q 763 795 658 910 q 867 469 867 681 q 753 112 867 239 q 432 -15 639 -15 q 138 102 242 -15 q 33 435 33 219 q 147 786 33 663 q 467 910 260 910 m 447 729 q 343 703 382 729 q 286 620 304 678 q 268 464 268 563 q 286 278 268 346 q 344 182 304 211 q 451 153 383 153 q 557 178 518 153 q 613 263 596 204 q 631 422 631 321 q 613 606 631 539 q 556 701 594 672 q 447 729 517 729 m 385 1046 q 440 1099 419 1071 q 460 1149 460 1128 q 448 1172 460 1164 q 418 1181 436 1181 q 372 1171 397 1181 q 325 1144 347 1161 l 290 1201 q 366 1258 324 1238 q 450 1278 408 1278 q 540 1248 504 1278 q 575 1169 575 1218 q 558 1115 575 1140 q 494 1049 540 1089 l 528 992 l 451 946 l 385 1046 z "},"Ơ":{"ha":957,"x_min":42,"x_max":933,"o":"m 933 936 q 895 832 933 878 q 793 767 857 786 q 875 468 875 654 q 762 111 875 238 q 442 -15 649 -15 q 146 102 250 -15 q 42 435 42 219 q 93 690 42 583 q 238 853 144 797 q 451 910 331 910 q 636 882 538 910 q 706 869 686 869 q 765 924 765 869 q 715 1017 765 975 l 717 1033 q 818 1075 771 1075 q 899 1035 865 1075 q 933 936 933 994 m 461 153 q 565 178 526 153 q 622 263 604 204 q 640 421 640 321 q 622 606 640 539 q 565 701 604 672 q 456 729 525 729 q 351 703 390 729 q 294 620 313 678 q 276 464 276 563 q 294 278 276 346 q 353 182 313 211 q 461 153 393 153 z "},"Ớ":{"ha":957,"x_min":42,"x_max":933,"o":"m 933 936 q 895 832 933 878 q 793 767 857 786 q 875 468 875 654 q 762 111 875 238 q 442 -15 649 -15 q 146 102 250 -15 q 42 435 42 219 q 93 690 42 583 q 238 853 144 797 q 451 910 331 910 q 636 882 538 910 q 706 869 686 869 q 765 924 765 869 q 715 1017 765 975 l 717 1033 q 818 1075 771 1075 q 899 1035 865 1075 q 933 936 933 994 m 461 153 q 565 178 526 153 q 622 263 604 204 q 640 421 640 321 q 622 606 640 539 q 565 701 604 672 q 456 729 525 729 q 351 703 390 729 q 294 620 313 678 q 276 464 276 563 q 294 278 276 346 q 353 182 313 211 q 461 153 393 153 m 615 1246 l 671 1114 l 664 1096 q 351 992 528 1046 l 332 997 l 297 1089 q 594 1250 451 1165 l 615 1246 z "},"Ợ":{"ha":908,"x_min":42,"x_max":933,"o":"m 933 936 q 895 832 933 878 q 793 767 857 786 q 875 468 875 654 q 762 111 875 238 q 442 -15 649 -15 q 146 102 250 -15 q 42 435 42 219 q 93 690 42 583 q 238 853 144 797 q 451 910 331 910 q 636 882 538 910 q 706 869 686 869 q 765 924 765 869 q 715 1017 765 975 l 717 1033 q 818 1075 771 1075 q 899 1035 865 1075 q 933 936 933 994 m 461 153 q 565 178 526 153 q 622 263 604 204 q 640 421 640 321 q 622 606 640 539 q 565 701 604 672 q 456 729 525 729 q 351 703 390 729 q 294 620 313 678 q 276 464 276 563 q 294 278 276 346 q 353 182 313 211 q 461 153 393 153 m 458 -61 q 538 -90 510 -61 q 567 -171 567 -119 q 535 -259 567 -226 q 450 -292 503 -292 q 369 -262 397 -292 q 342 -181 342 -233 q 373 -94 342 -126 q 458 -61 404 -61 z "},"Ờ":{"ha":957,"x_min":42,"x_max":933,"o":"m 933 936 q 895 832 933 878 q 793 767 857 786 q 875 468 875 654 q 762 111 875 238 q 442 -15 649 -15 q 146 102 250 -15 q 42 435 42 219 q 93 690 42 583 q 238 853 144 797 q 451 910 331 910 q 636 882 538 910 q 706 869 686 869 q 765 924 765 869 q 715 1017 765 975 l 717 1033 q 818 1075 771 1075 q 899 1035 865 1075 q 933 936 933 994 m 461 153 q 565 178 526 153 q 622 263 604 204 q 640 421 640 321 q 622 606 640 539 q 565 701 604 672 q 456 729 525 729 q 351 703 390 729 q 294 620 313 678 q 276 464 276 563 q 294 278 276 346 q 353 182 313 211 q 461 153 393 153 m 350 1250 q 647 1089 496 1164 l 613 997 l 593 992 q 281 1096 414 1049 l 274 1114 l 329 1246 l 350 1250 z "},"Ở":{"ha":957,"x_min":42,"x_max":933,"o":"m 933 936 q 895 832 933 878 q 793 767 857 786 q 875 468 875 654 q 762 111 875 238 q 442 -15 649 -15 q 146 102 250 -15 q 42 435 42 219 q 93 690 42 583 q 238 853 144 797 q 451 910 331 910 q 636 882 538 910 q 706 869 686 869 q 765 924 765 869 q 715 1017 765 975 l 717 1033 q 818 1075 771 1075 q 899 1035 865 1075 q 933 936 933 994 m 461 153 q 565 178 526 153 q 622 263 604 204 q 640 421 640 321 q 622 606 640 539 q 565 701 604 672 q 456 729 525 729 q 351 703 390 729 q 294 620 313 678 q 276 464 276 563 q 294 278 276 346 q 353 182 313 211 q 461 153 393 153 m 394 1046 q 449 1099 429 1071 q 469 1149 469 1128 q 458 1172 469 1164 q 428 1181 446 1181 q 382 1171 407 1181 q 335 1144 357 1161 l 300 1201 q 376 1258 333 1238 q 460 1278 418 1278 q 549 1248 514 1278 q 585 1169 585 1218 q 567 1115 585 1140 q 504 1049 550 1089 l 538 992 l 461 946 l 394 1046 z "},"Ỡ":{"ha":957,"x_min":42,"x_max":933,"o":"m 933 936 q 895 832 933 878 q 793 767 857 786 q 875 468 875 654 q 762 111 875 238 q 442 -15 649 -15 q 146 102 250 -15 q 42 435 42 219 q 93 690 42 583 q 238 853 144 797 q 451 910 331 910 q 636 882 538 910 q 706 869 686 869 q 765 924 765 869 q 715 1017 765 975 l 717 1033 q 818 1075 771 1075 q 899 1035 865 1075 q 933 936 933 994 m 461 153 q 565 178 526 153 q 622 263 604 204 q 640 421 640 321 q 622 606 640 539 q 565 701 604 672 q 456 729 525 729 q 351 703 390 729 q 294 620 313 678 q 276 464 276 563 q 294 278 276 346 q 353 182 313 211 q 461 153 393 153 m 714 1179 l 714 1161 l 611 1024 l 592 1015 q 528 1028 565 1018 q 476 1042 490 1039 q 378 1064 403 1064 q 343 1050 360 1064 q 310 1017 326 1036 q 288 989 294 997 l 268 989 l 204 1053 l 204 1071 l 307 1208 l 326 1215 q 447 1188 357 1211 q 540 1167 521 1167 q 574 1181 558 1167 q 606 1214 590 1194 q 631 1243 622 1233 l 650 1243 l 714 1179 z "},"Ő":{"ha":899,"x_min":33,"x_max":867,"o":"m 467 910 q 763 795 658 910 q 867 469 867 681 q 753 112 867 239 q 432 -15 639 -15 q 138 102 242 -15 q 33 435 33 219 q 147 786 33 663 q 467 910 260 910 m 447 729 q 343 703 382 729 q 286 620 304 678 q 268 464 268 563 q 286 278 268 346 q 344 182 304 211 q 451 153 383 153 q 557 178 518 153 q 613 263 596 204 q 631 422 631 321 q 613 606 631 539 q 556 701 594 672 q 447 729 517 729 m 251 1044 q 393 1239 335 1153 l 410 1243 l 511 1176 l 514 1160 q 338 996 429 1075 l 318 990 l 251 1044 m 474 1044 q 615 1239 557 1153 l 632 1243 l 735 1176 l 738 1160 q 560 996 664 1088 l 542 990 l 474 1044 z "},"Ȏ":{"ha":899,"x_min":33,"x_max":867,"o":"m 467 910 q 763 795 658 910 q 867 469 867 681 q 753 112 867 239 q 432 -15 639 -15 q 138 102 242 -15 q 33 435 33 219 q 147 786 33 663 q 467 910 260 910 m 447 729 q 343 703 382 729 q 286 620 304 678 q 268 464 268 563 q 286 278 268 346 q 344 182 304 211 q 451 153 383 153 q 557 178 518 153 q 613 263 596 204 q 631 422 631 321 q 613 606 631 539 q 556 701 594 672 q 447 729 517 729 m 225 1081 q 306 1210 247 1160 q 456 1261 364 1261 q 600 1210 546 1261 q 674 1081 654 1158 l 622 1010 l 592 1010 q 535 1081 574 1056 q 449 1107 497 1107 q 363 1081 400 1107 q 307 1010 325 1056 l 278 1010 l 225 1081 z "},"Ō":{"ha":899,"x_min":33,"x_max":867,"o":"m 467 910 q 763 795 658 910 q 867 469 867 681 q 753 112 867 239 q 432 -15 639 -15 q 138 102 242 -15 q 33 435 33 219 q 147 786 33 663 q 467 910 260 910 m 447 729 q 343 703 382 729 q 286 620 304 678 q 268 464 268 563 q 286 278 268 346 q 344 182 304 211 q 451 153 383 153 q 557 178 518 153 q 613 263 596 204 q 631 422 631 321 q 613 606 631 539 q 556 701 594 672 q 447 729 517 729 m 656 1165 l 644 1043 l 258 1043 l 244 1058 l 254 1181 l 640 1181 l 656 1165 z "},"Ṓ":{"ha":899,"x_min":33,"x_max":867,"o":"m 467 910 q 763 795 658 910 q 867 469 867 681 q 753 112 867 239 q 432 -15 639 -15 q 138 102 242 -15 q 33 435 33 219 q 147 786 33 663 q 467 910 260 910 m 447 729 q 343 703 382 729 q 286 620 304 678 q 268 464 268 563 q 286 278 268 346 q 344 182 304 211 q 451 153 383 153 q 557 178 518 153 q 613 263 596 204 q 631 422 631 321 q 613 606 631 539 q 556 701 594 672 q 447 729 517 729 m 601 1419 l 633 1281 l 624 1263 q 299 1217 435 1231 l 279 1225 l 261 1321 q 583 1428 417 1367 l 601 1419 m 621 1135 l 611 1013 l 292 1013 l 278 1028 l 288 1150 l 607 1150 l 621 1135 z "},"Ṑ":{"ha":899,"x_min":33,"x_max":867,"o":"m 467 910 q 763 795 658 910 q 867 469 867 681 q 753 112 867 239 q 432 -15 639 -15 q 138 102 242 -15 q 33 435 33 219 q 147 786 33 663 q 467 910 260 910 m 447 729 q 343 703 382 729 q 286 620 304 678 q 268 464 268 563 q 286 278 268 346 q 344 182 304 211 q 451 153 383 153 q 557 178 518 153 q 613 263 596 204 q 631 422 631 321 q 613 606 631 539 q 556 701 594 672 q 447 729 517 729 m 600 1217 q 275 1263 464 1231 l 264 1281 l 296 1419 l 315 1428 q 638 1321 489 1364 l 618 1225 l 600 1217 m 621 1135 l 611 1013 l 292 1013 l 278 1028 l 288 1150 l 607 1150 l 621 1135 z "},"Ǫ":{"ha":899,"x_min":33,"x_max":867,"o":"m 467 910 q 763 795 658 910 q 867 469 867 681 q 753 112 867 239 q 432 -15 639 -15 q 138 102 242 -15 q 33 435 33 219 q 147 786 33 663 q 467 910 260 910 m 447 729 q 343 703 382 729 q 286 620 304 678 q 268 464 268 563 q 286 278 268 346 q 344 182 304 211 q 451 153 383 153 q 557 178 518 153 q 613 263 596 204 q 631 422 631 321 q 613 606 631 539 q 556 701 594 672 q 447 729 517 729 m 543 -272 q 432 -238 474 -272 q 390 -147 390 -204 q 426 -53 390 -100 q 558 56 461 -7 l 672 56 q 551 -67 579 -35 q 524 -119 524 -99 q 560 -150 524 -150 q 660 -115 599 -150 l 671 -118 l 696 -217 q 543 -272 618 -272 z "},"Ø":{"ha":899,"x_min":33,"x_max":867,"o":"m 729 826 q 832 681 797 771 q 867 469 867 590 q 753 112 867 239 q 432 -15 639 -15 q 328 -4 379 -15 l 244 -176 l 104 -125 l 94 -106 l 176 65 q 70 216 107 122 q 33 435 33 310 q 147 786 33 663 q 467 910 260 910 q 579 897 528 910 l 657 1057 l 793 1006 l 807 983 l 729 826 m 451 153 q 557 178 518 153 q 613 263 596 204 q 631 422 631 321 q 613 606 631 539 q 556 701 594 672 q 447 729 517 729 q 343 703 382 729 q 286 620 304 678 q 268 464 268 563 q 286 278 268 346 q 344 182 304 211 q 451 153 383 153 z "},"Ǿ":{"ha":899,"x_min":33,"x_max":867,"o":"m 729 826 q 832 681 797 771 q 867 469 867 590 q 753 112 867 239 q 432 -15 639 -15 q 328 -4 379 -15 l 244 -176 l 104 -125 l 94 -106 l 176 65 q 70 216 107 122 q 33 435 33 310 q 147 786 33 663 q 467 910 260 910 q 579 897 528 910 l 657 1057 l 793 1006 l 807 983 l 729 826 m 451 153 q 557 178 518 153 q 613 263 596 204 q 631 422 631 321 q 613 606 631 539 q 556 701 594 672 q 447 729 517 729 q 343 703 382 729 q 286 620 304 678 q 268 464 268 563 q 286 278 268 346 q 344 182 304 211 q 451 153 383 153 m 606 1249 l 661 1117 l 654 1099 q 342 994 518 1049 l 322 1000 l 288 1092 q 585 1253 442 1168 l 606 1249 z "},"Õ":{"ha":899,"x_min":33,"x_max":867,"o":"m 467 910 q 763 795 658 910 q 867 469 867 681 q 753 112 867 239 q 432 -15 639 -15 q 138 102 242 -15 q 33 435 33 219 q 147 786 33 663 q 467 910 260 910 m 447 729 q 343 703 382 729 q 286 620 304 678 q 268 464 268 563 q 286 278 268 346 q 344 182 304 211 q 451 153 383 153 q 557 178 518 153 q 613 263 596 204 q 631 422 631 321 q 613 606 631 539 q 556 701 594 672 q 447 729 517 729 m 704 1179 l 704 1161 l 601 1024 l 582 1015 q 518 1028 556 1018 q 467 1042 481 1039 q 368 1064 393 1064 q 333 1050 350 1064 q 301 1017 317 1036 q 278 989 285 997 l 258 989 l 194 1053 l 194 1071 l 297 1208 l 317 1215 q 438 1188 347 1211 q 531 1167 511 1167 q 565 1181 549 1167 q 597 1214 581 1194 q 621 1243 613 1233 l 640 1243 l 704 1179 z "},"Ṍ":{"ha":899,"x_min":33,"x_max":867,"o":"m 467 910 q 763 795 658 910 q 867 469 867 681 q 753 112 867 239 q 432 -15 639 -15 q 138 102 242 -15 q 33 435 33 219 q 147 786 33 663 q 467 910 260 910 m 447 729 q 343 703 382 729 q 286 620 304 678 q 268 464 268 563 q 286 278 268 346 q 344 182 304 211 q 451 153 383 153 q 557 178 518 153 q 613 263 596 204 q 631 422 631 321 q 613 606 631 539 q 556 701 594 672 q 447 729 517 729 m 599 1444 l 631 1306 l 621 1288 l 582 1282 q 296 1242 408 1253 l 278 1250 l 258 1346 q 581 1453 407 1389 l 599 1444 m 674 1158 l 674 1140 l 582 1004 l 564 997 q 461 1025 531 1001 q 389 1043 404 1043 q 353 1026 368 1043 q 310 971 338 1010 l 290 971 l 226 1033 l 226 1053 l 319 1188 l 338 1194 q 440 1167 371 1190 q 513 1149 497 1149 q 547 1165 532 1149 q 592 1222 563 1182 l 610 1222 l 674 1158 z "},"Ṏ":{"ha":899,"x_min":33,"x_max":867,"o":"m 467 910 q 763 795 658 910 q 867 469 867 681 q 753 112 867 239 q 432 -15 639 -15 q 138 102 242 -15 q 33 435 33 219 q 147 786 33 663 q 467 910 260 910 m 447 729 q 343 703 382 729 q 286 620 304 678 q 268 464 268 563 q 286 278 268 346 q 344 182 304 211 q 451 153 383 153 q 557 178 518 153 q 613 263 596 204 q 631 422 631 321 q 613 606 631 539 q 556 701 594 672 q 447 729 517 729 m 674 1158 l 674 1140 l 582 1004 l 564 997 q 461 1025 531 1001 q 389 1043 404 1043 q 353 1026 368 1043 q 310 971 338 1010 l 290 971 l 226 1033 l 226 1053 l 319 1188 l 338 1194 q 440 1167 371 1190 q 513 1149 497 1149 q 547 1165 532 1149 q 592 1222 563 1182 l 610 1222 l 674 1158 m 329 1457 q 399 1431 374 1457 q 425 1360 425 1406 q 397 1283 425 1311 q 321 1254 369 1254 q 249 1279 274 1254 q 225 1351 225 1304 q 253 1428 225 1400 q 329 1457 281 1457 m 582 1457 q 651 1431 626 1457 q 676 1360 676 1406 q 649 1283 676 1311 q 574 1254 621 1254 q 502 1279 526 1254 q 478 1351 478 1304 q 506 1428 478 1400 q 582 1457 533 1457 z "},"Ȭ":{"ha":899,"x_min":33,"x_max":867,"o":"m 467 910 q 763 795 658 910 q 867 469 867 681 q 753 112 867 239 q 432 -15 639 -15 q 138 102 242 -15 q 33 435 33 219 q 147 786 33 663 q 467 910 260 910 m 447 729 q 343 703 382 729 q 286 620 304 678 q 268 464 268 563 q 286 278 268 346 q 344 182 304 211 q 451 153 383 153 q 557 178 518 153 q 613 263 596 204 q 631 422 631 321 q 613 606 631 539 q 556 701 594 672 q 447 729 517 729 m 674 1158 l 674 1140 l 582 1004 l 564 997 q 461 1025 531 1001 q 389 1043 404 1043 q 353 1026 368 1043 q 310 971 338 1010 l 290 971 l 226 1033 l 226 1053 l 319 1188 l 338 1194 q 440 1167 371 1190 q 513 1149 497 1149 q 547 1165 532 1149 q 592 1222 563 1182 l 610 1222 l 674 1158 m 621 1410 l 611 1288 l 292 1288 l 278 1303 l 288 1425 l 607 1425 l 621 1410 z "},"Œ":{"ha":1218,"x_min":33,"x_max":1201,"o":"m 486 913 q 636 903 556 913 q 689 899 653 901 q 753 896 725 896 l 1189 896 l 1201 879 l 1186 713 l 972 721 l 815 721 l 813 540 l 957 540 l 1106 544 l 1118 528 l 1104 361 l 942 365 l 807 365 l 807 285 l 810 176 l 956 175 l 1182 183 l 1196 167 l 1181 0 l 753 0 q 607 -8 700 1 q 456 -17 510 -17 q 144 102 254 -17 q 33 436 33 221 q 153 788 33 663 q 486 913 272 913 m 468 732 q 314 668 360 732 q 268 454 268 604 q 315 223 268 293 q 474 153 363 153 q 579 172 553 153 q 601 239 603 189 l 594 647 q 578 711 594 697 q 468 732 553 732 z "},"P":{"ha":792,"x_min":97,"x_max":776,"o":"m 475 897 q 698 825 619 897 q 776 619 776 753 q 729 437 776 515 q 596 315 682 358 q 396 272 510 272 l 315 272 l 324 0 l 97 0 l 110 265 l 97 896 l 475 897 m 436 435 q 515 492 489 453 q 540 597 540 532 q 506 700 540 667 q 400 736 472 733 l 325 732 l 318 440 l 436 435 z "},"Þ":{"ha":803,"x_min":99,"x_max":786,"o":"m 482 763 q 708 692 629 763 q 786 482 786 621 q 686 234 786 322 q 401 146 586 146 l 321 144 l 326 0 l 99 0 l 110 265 l 101 758 l 99 761 l 101 761 l 99 896 l 329 896 l 326 763 l 482 763 m 440 307 q 520 363 493 325 q 547 465 547 400 q 513 567 547 535 q 406 601 479 599 l 324 596 l 317 313 l 440 307 z "},"Q":{"ha":908,"x_min":33,"x_max":1025,"o":"m 1025 -135 q 918 -278 979 -224 l 901 -286 q 458 -15 660 -183 l 433 -15 q 138 102 242 -15 q 33 435 33 219 q 147 786 33 663 q 467 910 260 910 q 763 795 658 910 q 867 468 867 681 q 813 201 867 311 q 660 38 760 92 q 1017 -112 832 -62 l 1025 -135 m 268 463 q 286 280 268 346 q 344 185 304 214 q 453 156 385 156 q 556 181 518 156 q 613 265 594 207 q 631 424 631 324 q 613 605 631 539 q 554 700 594 671 q 446 729 514 729 q 342 703 381 729 q 285 620 303 678 q 268 463 268 563 z "},"R":{"ha":843,"x_min":97,"x_max":826,"o":"m 618 354 q 826 53 733 175 l 824 28 q 600 -15 718 -7 l 578 3 q 433 288 494 158 l 315 288 l 324 0 l 97 0 l 110 265 l 97 896 l 475 897 q 699 827 621 897 q 778 626 778 757 q 736 474 778 544 q 618 354 694 403 m 319 457 l 440 451 q 516 508 492 471 q 540 606 540 546 q 506 702 540 671 q 400 736 472 733 l 325 732 l 319 457 z "},"Ŕ":{"ha":843,"x_min":97,"x_max":826,"o":"m 618 354 q 826 53 733 175 l 824 28 q 600 -15 718 -7 l 578 3 q 433 288 494 158 l 315 288 l 324 0 l 97 0 l 110 265 l 97 896 l 475 897 q 699 827 621 897 q 778 626 778 757 q 736 474 778 544 q 618 354 694 403 m 319 457 l 440 451 q 516 508 492 471 q 540 606 540 546 q 506 702 540 671 q 400 736 472 733 l 325 732 l 319 457 m 554 1268 l 633 1147 l 629 1128 q 343 968 492 1049 l 324 969 l 272 1053 q 535 1269 418 1164 l 554 1268 z "},"Ř":{"ha":843,"x_min":97,"x_max":826,"o":"m 618 354 q 826 53 733 175 l 824 28 q 600 -15 718 -7 l 578 3 q 433 288 494 158 l 315 288 l 324 0 l 97 0 l 110 265 l 97 896 l 475 897 q 699 827 621 897 q 778 626 778 757 q 736 474 778 544 q 618 354 694 403 m 319 457 l 440 451 q 516 508 492 471 q 540 606 540 546 q 506 702 540 671 q 400 736 472 733 l 325 732 l 319 457 m 640 1146 q 444 993 535 1075 l 403 993 q 206 1146 308 1078 l 244 1233 l 265 1233 l 328 1200 q 371 1176 347 1189 q 422 1147 394 1164 l 581 1233 l 601 1233 l 640 1146 z "},"Ŗ":{"ha":843,"x_min":97,"x_max":826,"o":"m 618 354 q 826 53 733 175 l 824 28 q 600 -15 718 -7 l 578 3 q 433 288 494 158 l 315 288 l 324 0 l 97 0 l 110 265 l 97 896 l 475 897 q 699 827 621 897 q 778 626 778 757 q 736 474 778 544 q 618 354 694 403 m 319 457 l 440 451 q 516 508 492 471 q 540 606 540 546 q 506 702 540 671 q 400 736 472 733 l 325 732 l 319 457 m 479 -46 q 535 -161 535 -96 q 495 -281 535 -224 q 372 -396 456 -337 l 311 -342 l 310 -328 q 378 -203 378 -268 q 368 -160 378 -179 q 338 -122 358 -142 l 339 -106 q 479 -46 407 -65 z "},"Ȑ":{"ha":843,"x_min":97,"x_max":826,"o":"m 618 354 q 826 53 733 175 l 824 28 q 600 -15 718 -7 l 578 3 q 433 288 494 158 l 315 288 l 324 0 l 97 0 l 110 265 l 97 896 l 475 897 q 699 827 621 897 q 778 626 778 757 q 736 474 778 544 q 618 354 694 403 m 319 457 l 440 451 q 516 508 492 471 q 540 606 540 546 q 506 702 540 671 q 400 736 472 733 l 325 732 l 319 457 m 331 990 l 314 996 q 136 1160 213 1083 l 139 1176 l 242 1243 l 257 1239 q 319 1153 292 1190 q 367 1088 347 1115 l 399 1044 l 331 990 m 554 990 l 535 996 q 358 1160 428 1090 l 363 1176 l 464 1243 l 481 1239 q 622 1044 525 1172 l 554 990 z "},"Ṛ":{"ha":843,"x_min":97,"x_max":826,"o":"m 618 354 q 826 53 733 175 l 824 28 q 600 -15 718 -7 l 578 3 q 433 288 494 158 l 315 288 l 324 0 l 97 0 l 110 265 l 97 896 l 475 897 q 699 827 621 897 q 778 626 778 757 q 736 474 778 544 q 618 354 694 403 m 319 457 l 440 451 q 516 508 492 471 q 540 606 540 546 q 506 702 540 671 q 400 736 472 733 l 325 732 l 319 457 m 426 -61 q 506 -90 478 -61 q 535 -171 535 -119 q 503 -259 535 -226 q 418 -292 471 -292 q 338 -262 365 -292 q 310 -181 310 -233 q 341 -94 310 -126 q 426 -61 372 -61 z "},"Ȓ":{"ha":843,"x_min":97,"x_max":826,"o":"m 618 354 q 826 53 733 175 l 824 28 q 600 -15 718 -7 l 578 3 q 433 288 494 158 l 315 288 l 324 0 l 97 0 l 110 265 l 97 896 l 475 897 q 699 827 621 897 q 778 626 778 757 q 736 474 778 544 q 618 354 694 403 m 319 457 l 440 451 q 516 508 492 471 q 540 606 540 546 q 506 702 540 671 q 400 736 472 733 l 325 732 l 319 457 m 197 1081 q 278 1210 219 1160 q 428 1261 336 1261 q 572 1210 518 1261 q 646 1081 626 1158 l 594 1010 l 564 1010 q 508 1081 546 1056 q 421 1107 469 1107 q 335 1081 372 1107 q 279 1010 297 1056 l 250 1010 l 197 1081 z "},"Ṟ":{"ha":843,"x_min":97,"x_max":826,"o":"m 618 354 q 826 53 733 175 l 824 28 q 600 -15 718 -7 l 578 3 q 433 288 494 158 l 315 288 l 324 0 l 97 0 l 110 265 l 97 896 l 475 897 q 699 827 621 897 q 778 626 778 757 q 736 474 778 544 q 618 354 694 403 m 319 457 l 440 451 q 516 508 492 471 q 540 606 540 546 q 506 702 540 671 q 400 736 472 733 l 325 732 l 319 457 m 607 -122 l 597 -244 l 250 -244 l 236 -229 l 246 -108 l 593 -108 l 607 -122 z "},"S":{"ha":708,"x_min":36,"x_max":668,"o":"m 407 910 q 649 863 526 910 l 613 674 l 579 661 q 474 715 526 696 q 382 735 421 735 q 309 712 336 735 q 282 658 282 689 q 316 599 282 624 q 424 542 350 575 q 549 476 501 506 q 633 396 597 446 q 668 274 668 346 q 624 128 668 193 q 500 24 581 63 q 314 -14 419 -14 q 36 42 174 -14 l 68 243 l 92 257 q 219 181 150 208 q 338 154 288 154 q 417 178 390 154 q 444 233 444 201 q 410 296 444 271 q 301 354 375 321 q 178 419 226 389 q 96 499 131 449 q 61 621 61 549 q 105 769 61 703 q 227 872 149 835 q 407 910 306 910 z "},"Ś":{"ha":708,"x_min":36,"x_max":668,"o":"m 407 910 q 649 863 526 910 l 613 674 l 579 661 q 474 715 526 696 q 382 735 421 735 q 309 712 336 735 q 282 658 282 689 q 316 599 282 624 q 424 542 350 575 q 549 476 501 506 q 633 396 597 446 q 668 274 668 346 q 624 128 668 193 q 500 24 581 63 q 314 -14 419 -14 q 36 42 174 -14 l 68 243 l 92 257 q 219 181 150 208 q 338 154 288 154 q 417 178 390 154 q 444 233 444 201 q 410 296 444 271 q 301 354 375 321 q 178 419 226 389 q 96 499 131 449 q 61 621 61 549 q 105 769 61 703 q 227 872 149 835 q 407 910 306 910 m 501 1268 l 581 1147 l 576 1128 q 290 968 439 1049 l 271 969 l 219 1053 q 482 1269 365 1164 l 501 1268 z "},"Ṥ":{"ha":708,"x_min":36,"x_max":668,"o":"m 407 910 q 649 863 526 910 l 613 674 l 579 661 q 474 715 526 696 q 382 735 421 735 q 309 712 336 735 q 282 658 282 689 q 316 599 282 624 q 424 542 350 575 q 549 476 501 506 q 633 396 597 446 q 668 274 668 346 q 624 128 668 193 q 500 24 581 63 q 314 -14 419 -14 q 36 42 174 -14 l 68 243 l 92 257 q 219 181 150 208 q 338 154 288 154 q 417 178 390 154 q 444 233 444 201 q 410 296 444 271 q 301 354 375 321 q 178 419 226 389 q 96 499 131 449 q 61 621 61 549 q 105 769 61 703 q 227 872 149 835 q 407 910 306 910 m 525 1246 l 581 1114 l 574 1096 q 261 992 438 1046 l 242 997 l 207 1089 q 504 1250 361 1165 l 525 1246 m 350 1483 q 430 1454 401 1483 q 458 1374 458 1425 q 426 1285 458 1318 q 342 1253 394 1253 q 261 1282 289 1253 q 233 1364 233 1311 q 265 1451 233 1418 q 350 1483 296 1483 z "},"Ꞌ":{"ha":219,"x_min":29,"x_max":211,"o":"m 211 839 l 156 410 l 54 389 l 36 407 l 29 844 l 199 858 l 211 839 z "},"Š":{"ha":708,"x_min":36,"x_max":668,"o":"m 407 910 q 649 863 526 910 l 613 674 l 579 661 q 474 715 526 696 q 382 735 421 735 q 309 712 336 735 q 282 658 282 689 q 316 599 282 624 q 424 542 350 575 q 549 476 501 506 q 633 396 597 446 q 668 274 668 346 q 624 128 668 193 q 500 24 581 63 q 314 -14 419 -14 q 36 42 174 -14 l 68 243 l 92 257 q 219 181 150 208 q 338 154 288 154 q 417 178 390 154 q 444 233 444 201 q 410 296 444 271 q 301 354 375 321 q 178 419 226 389 q 96 499 131 449 q 61 621 61 549 q 105 769 61 703 q 227 872 149 835 q 407 910 306 910 m 588 1146 q 392 993 482 1075 l 350 993 q 153 1146 256 1078 l 192 1233 l 213 1233 l 275 1200 q 318 1176 294 1189 q 369 1147 342 1164 l 528 1233 l 549 1233 l 588 1146 z "},"Ṧ":{"ha":708,"x_min":36,"x_max":668,"o":"m 407 910 q 649 863 526 910 l 613 674 l 579 661 q 474 715 526 696 q 382 735 421 735 q 309 712 336 735 q 282 658 282 689 q 316 599 282 624 q 424 542 350 575 q 549 476 501 506 q 633 396 597 446 q 668 274 668 346 q 624 128 668 193 q 500 24 581 63 q 314 -14 419 -14 q 36 42 174 -14 l 68 243 l 92 257 q 219 181 150 208 q 338 154 288 154 q 417 178 390 154 q 444 233 444 201 q 410 296 444 271 q 301 354 375 321 q 178 419 226 389 q 96 499 131 449 q 61 621 61 549 q 105 769 61 703 q 227 872 149 835 q 407 910 306 910 m 588 1146 q 392 993 482 1075 l 350 993 q 153 1146 256 1078 l 192 1233 l 213 1233 l 275 1200 q 318 1176 294 1189 q 369 1147 342 1164 l 528 1233 l 549 1233 l 588 1146 m 374 1478 q 453 1449 425 1478 q 482 1368 482 1419 q 450 1280 482 1313 q 365 1247 418 1247 q 285 1276 313 1247 q 257 1358 257 1306 q 288 1445 257 1413 q 374 1478 319 1478 z "},"Ş":{"ha":708,"x_min":36,"x_max":668,"o":"m 407 910 q 649 863 526 910 l 613 674 l 579 661 q 474 715 526 696 q 382 735 421 735 q 309 712 336 735 q 282 658 282 689 q 316 599 282 624 q 424 542 350 575 q 549 476 501 506 q 633 396 597 446 q 668 274 668 346 q 624 128 668 193 q 500 24 581 63 q 314 -14 419 -14 q 36 42 174 -14 l 68 243 l 92 257 q 219 181 150 208 q 338 154 288 154 q 417 178 390 154 q 444 233 444 201 q 410 296 444 271 q 301 354 375 321 q 178 419 226 389 q 96 499 131 449 q 61 621 61 549 q 105 769 61 703 q 227 872 149 835 q 407 910 306 910 m 378 -62 l 425 -89 q 470 -126 457 -106 q 483 -174 483 -147 q 445 -251 483 -221 q 343 -282 407 -282 q 224 -246 282 -282 l 238 -157 l 247 -153 q 290 -183 268 -172 q 329 -193 311 -193 q 358 -168 358 -193 q 338 -143 358 -154 l 269 -106 l 301 42 l 400 42 l 378 -62 z "},"Ŝ":{"ha":708,"x_min":36,"x_max":668,"o":"m 407 910 q 649 863 526 910 l 613 674 l 579 661 q 474 715 526 696 q 382 735 421 735 q 309 712 336 735 q 282 658 282 689 q 316 599 282 624 q 424 542 350 575 q 549 476 501 506 q 633 396 597 446 q 668 274 668 346 q 624 128 668 193 q 500 24 581 63 q 314 -14 419 -14 q 36 42 174 -14 l 68 243 l 92 257 q 219 181 150 208 q 338 154 288 154 q 417 178 390 154 q 444 233 444 201 q 410 296 444 271 q 301 354 375 321 q 178 419 226 389 q 96 499 131 449 q 61 621 61 549 q 105 769 61 703 q 227 872 149 835 q 407 910 306 910 m 140 1061 q 349 1263 226 1138 l 392 1263 q 600 1061 485 1165 l 546 979 l 525 979 q 371 1099 418 1056 q 217 979 326 1061 l 194 979 l 140 1061 z "},"Ș":{"ha":708,"x_min":36,"x_max":668,"o":"m 407 910 q 649 863 526 910 l 613 674 l 579 661 q 474 715 526 696 q 382 735 421 735 q 309 712 336 735 q 282 658 282 689 q 316 599 282 624 q 424 542 350 575 q 549 476 501 506 q 633 396 597 446 q 668 274 668 346 q 624 128 668 193 q 500 24 581 63 q 314 -14 419 -14 q 36 42 174 -14 l 68 243 l 92 257 q 219 181 150 208 q 338 154 288 154 q 417 178 390 154 q 444 233 444 201 q 410 296 444 271 q 301 354 375 321 q 178 419 226 389 q 96 499 131 449 q 61 621 61 549 q 105 769 61 703 q 227 872 149 835 q 407 910 306 910 m 400 -46 q 456 -161 456 -96 q 416 -281 456 -224 q 293 -396 376 -337 l 232 -342 l 231 -328 q 299 -203 299 -268 q 289 -160 299 -179 q 258 -122 279 -142 l 260 -106 q 400 -46 328 -65 z "},"Ṡ":{"ha":708,"x_min":36,"x_max":668,"o":"m 407 910 q 649 863 526 910 l 613 674 l 579 661 q 474 715 526 696 q 382 735 421 735 q 309 712 336 735 q 282 658 282 689 q 316 599 282 624 q 424 542 350 575 q 549 476 501 506 q 633 396 597 446 q 668 274 668 346 q 624 128 668 193 q 500 24 581 63 q 314 -14 419 -14 q 36 42 174 -14 l 68 243 l 92 257 q 219 181 150 208 q 338 154 288 154 q 417 178 390 154 q 444 233 444 201 q 410 296 444 271 q 301 354 375 321 q 178 419 226 389 q 96 499 131 449 q 61 621 61 549 q 105 769 61 703 q 227 872 149 835 q 407 910 306 910 m 374 1229 q 453 1200 425 1229 q 482 1119 482 1171 q 450 1031 482 1064 q 365 999 418 999 q 285 1028 313 999 q 257 1110 257 1057 q 288 1197 257 1164 q 374 1229 319 1229 z "},"Ṣ":{"ha":708,"x_min":36,"x_max":668,"o":"m 407 910 q 649 863 526 910 l 613 674 l 579 661 q 474 715 526 696 q 382 735 421 735 q 309 712 336 735 q 282 658 282 689 q 316 599 282 624 q 424 542 350 575 q 549 476 501 506 q 633 396 597 446 q 668 274 668 346 q 624 128 668 193 q 500 24 581 63 q 314 -14 419 -14 q 36 42 174 -14 l 68 243 l 92 257 q 219 181 150 208 q 338 154 288 154 q 417 178 390 154 q 444 233 444 201 q 410 296 444 271 q 301 354 375 321 q 178 419 226 389 q 96 499 131 449 q 61 621 61 549 q 105 769 61 703 q 227 872 149 835 q 407 910 306 910 m 347 -61 q 427 -90 399 -61 q 456 -171 456 -119 q 424 -259 456 -226 q 339 -292 392 -292 q 258 -262 286 -292 q 231 -181 231 -233 q 262 -94 231 -126 q 347 -61 293 -61 z "},"Ṩ":{"ha":708,"x_min":36,"x_max":668,"o":"m 407 910 q 649 863 526 910 l 613 674 l 579 661 q 474 715 526 696 q 382 735 421 735 q 309 712 336 735 q 282 658 282 689 q 316 599 282 624 q 424 542 350 575 q 549 476 501 506 q 633 396 597 446 q 668 274 668 346 q 624 128 668 193 q 500 24 581 63 q 314 -14 419 -14 q 36 42 174 -14 l 68 243 l 92 257 q 219 181 150 208 q 338 154 288 154 q 417 178 390 154 q 444 233 444 201 q 410 296 444 271 q 301 354 375 321 q 178 419 226 389 q 96 499 131 449 q 61 621 61 549 q 105 769 61 703 q 227 872 149 835 q 407 910 306 910 m 347 -61 q 427 -90 399 -61 q 456 -171 456 -119 q 424 -259 456 -226 q 339 -292 392 -292 q 258 -262 286 -292 q 231 -181 231 -233 q 262 -94 231 -126 q 347 -61 293 -61 m 374 1229 q 453 1200 425 1229 q 482 1119 482 1171 q 450 1031 482 1064 q 365 999 418 999 q 285 1028 313 999 q 257 1110 257 1057 q 288 1197 257 1164 q 374 1229 319 1229 z "},"ẞ":{"ha":953,"x_min":75,"x_max":935,"o":"m 483 910 q 667 886 579 910 q 861 813 754 863 l 871 783 l 686 532 q 833 440 785 475 q 908 360 882 404 q 935 251 935 315 q 892 106 935 165 q 776 16 849 46 q 615 -14 704 -14 q 488 1 553 -14 q 367 42 422 15 l 399 243 l 422 257 q 531 183 476 210 q 629 156 586 156 q 689 175 667 156 q 711 225 711 194 q 649 313 711 268 q 425 433 588 358 l 418 464 l 593 704 q 465 731 526 731 q 338 691 378 731 q 299 569 297 651 l 293 288 l 301 0 l 75 0 l 88 264 l 82 569 q 185 818 81 726 q 483 910 289 910 z "},"Ə":{"ha":881,"x_min":42,"x_max":849,"o":"m 403 907 q 641 852 540 907 q 795 694 742 797 q 849 449 849 590 q 797 203 849 307 q 647 42 744 99 q 418 -14 550 -14 q 220 30 306 -14 q 88 153 135 74 q 42 333 42 232 q 53 442 42 379 l 82 476 l 622 481 q 555 665 614 606 q 383 724 496 724 q 110 657 256 724 l 88 672 l 128 853 q 403 907 263 907 m 422 151 q 552 200 503 151 q 617 343 601 249 l 261 336 l 258 308 q 303 194 258 238 q 422 151 347 151 z "},"T":{"ha":708,"x_min":17,"x_max":693,"o":"m 693 879 l 681 714 l 506 722 l 467 722 l 460 288 l 468 0 l 243 0 l 256 265 l 249 722 l 207 722 l 31 714 l 17 731 l 31 896 l 681 896 l 693 879 z "},"Ŧ":{"ha":708,"x_min":17,"x_max":693,"o":"m 467 722 l 463 469 l 593 469 l 608 456 l 600 351 l 461 351 l 460 288 l 468 0 l 243 0 l 256 265 l 254 351 l 135 351 l 121 367 l 129 469 l 253 469 l 249 722 l 207 722 l 31 714 l 17 731 l 31 896 l 681 896 l 693 879 l 681 714 l 506 722 l 467 722 z "},"Ť":{"ha":708,"x_min":17,"x_max":693,"o":"m 693 879 l 681 714 l 506 722 l 467 722 l 460 288 l 468 0 l 243 0 l 256 265 l 249 722 l 207 722 l 31 714 l 17 731 l 31 896 l 681 896 l 693 879 m 575 1146 q 379 993 469 1075 l 338 993 q 140 1146 243 1078 l 179 1233 l 200 1233 l 263 1200 q 306 1176 282 1189 q 357 1147 329 1164 l 515 1233 l 536 1233 l 575 1146 z "},"Ţ":{"ha":708,"x_min":17,"x_max":693,"o":"m 693 879 l 681 714 l 506 722 l 467 722 l 460 288 l 468 0 l 403 0 l 388 -62 l 435 -89 q 481 -128 468 -107 q 494 -174 494 -149 q 456 -252 494 -221 q 354 -283 418 -283 q 235 -246 289 -283 l 249 -157 l 258 -154 q 300 -184 278 -174 q 340 -194 322 -194 q 362 -187 354 -194 q 369 -169 369 -181 q 349 -144 369 -154 l 279 -106 l 303 0 l 243 0 l 256 265 l 249 722 l 207 722 l 31 714 l 17 731 l 31 896 l 681 896 l 693 879 z "},"Ț":{"ha":708,"x_min":17,"x_max":693,"o":"m 693 879 l 681 714 l 506 722 l 467 722 l 460 288 l 468 0 l 243 0 l 256 265 l 249 722 l 207 722 l 31 714 l 17 731 l 31 896 l 681 896 l 693 879 m 410 -46 q 465 -161 465 -96 q 426 -281 465 -224 q 303 -396 386 -337 l 242 -342 l 240 -328 q 308 -203 308 -268 q 299 -160 308 -179 q 268 -122 289 -142 l 269 -106 q 410 -46 338 -65 z "},"Ṭ":{"ha":708,"x_min":17,"x_max":693,"o":"m 693 879 l 681 714 l 506 722 l 467 722 l 460 288 l 468 0 l 243 0 l 256 265 l 249 722 l 207 722 l 31 714 l 17 731 l 31 896 l 681 896 l 693 879 m 357 -61 q 437 -90 408 -61 q 465 -171 465 -119 q 433 -259 465 -226 q 349 -292 401 -292 q 268 -262 296 -292 q 240 -181 240 -233 q 272 -94 240 -126 q 357 -61 303 -61 z "},"Ṯ":{"ha":708,"x_min":17,"x_max":693,"o":"m 693 879 l 681 714 l 506 722 l 467 722 l 460 288 l 468 0 l 243 0 l 256 265 l 249 722 l 207 722 l 31 714 l 17 731 l 31 896 l 681 896 l 693 879 m 538 -122 l 528 -244 l 181 -244 l 167 -229 l 176 -108 l 524 -108 l 538 -122 z "},"U":{"ha":894,"x_min":75,"x_max":819,"o":"m 811 442 l 810 313 q 713 71 811 156 q 435 -14 615 -14 q 167 69 260 -14 q 79 308 75 153 l 82 444 l 76 896 l 301 896 l 292 339 q 328 208 290 250 q 444 167 365 167 q 563 208 525 167 q 600 333 601 249 l 590 896 l 819 896 l 811 442 z "},"Ú":{"ha":894,"x_min":76,"x_max":819,"o":"m 811 442 l 810 313 q 713 71 811 156 q 435 -14 615 -14 q 167 69 260 -14 q 79 308 75 153 l 82 444 l 76 896 l 301 896 l 292 339 q 328 208 290 250 q 444 167 365 167 q 563 208 525 167 q 600 333 601 249 l 590 896 l 819 896 l 811 442 m 604 1246 l 660 1114 l 653 1096 q 340 992 517 1046 l 321 997 l 286 1089 q 583 1250 440 1165 l 604 1246 z "},"Ŭ":{"ha":894,"x_min":76,"x_max":819,"o":"m 811 442 l 810 313 q 713 71 811 156 q 435 -14 615 -14 q 167 69 260 -14 q 79 308 75 153 l 82 444 l 76 896 l 301 896 l 292 339 q 328 208 290 250 q 444 167 365 167 q 563 208 525 167 q 600 333 601 249 l 590 896 l 819 896 l 811 442 m 675 1165 q 594 1035 653 1086 q 444 985 536 985 q 300 1036 354 985 q 226 1165 246 1088 l 278 1236 l 308 1236 q 365 1165 326 1190 q 451 1139 403 1139 q 538 1165 500 1139 q 593 1236 575 1190 l 622 1236 l 675 1165 z "},"Ǔ":{"ha":894,"x_min":76,"x_max":819,"o":"m 811 442 l 810 313 q 713 71 811 156 q 435 -14 615 -14 q 167 69 260 -14 q 79 308 75 153 l 82 444 l 76 896 l 301 896 l 292 339 q 328 208 290 250 q 444 167 365 167 q 563 208 525 167 q 600 333 601 249 l 590 896 l 819 896 l 811 442 m 667 1146 q 471 993 561 1075 l 429 993 q 232 1146 335 1078 l 271 1233 l 292 1233 l 354 1200 q 397 1176 374 1189 q 449 1147 421 1164 l 607 1233 l 628 1233 l 667 1146 z "},"Û":{"ha":894,"x_min":76,"x_max":819,"o":"m 811 442 l 810 313 q 713 71 811 156 q 435 -14 615 -14 q 167 69 260 -14 q 79 308 75 153 l 82 444 l 76 896 l 301 896 l 292 339 q 328 208 290 250 q 444 167 365 167 q 563 208 525 167 q 600 333 601 249 l 590 896 l 819 896 l 811 442 m 233 1094 q 429 1247 339 1165 l 471 1247 q 668 1094 565 1163 l 629 1007 l 608 1007 l 546 1040 q 503 1064 526 1051 q 451 1093 479 1076 l 293 1007 l 272 1007 l 233 1094 z "},"Ȕ":{"ha":894,"x_min":76,"x_max":819,"o":"m 811 442 l 810 313 q 713 71 811 156 q 435 -14 615 -14 q 167 69 260 -14 q 79 308 75 153 l 82 444 l 76 896 l 301 896 l 292 339 q 328 208 290 250 q 444 167 365 167 q 563 208 525 167 q 600 333 601 249 l 590 896 l 819 896 l 811 442 m 357 990 l 340 996 q 163 1160 239 1083 l 165 1176 l 268 1243 l 283 1239 q 346 1153 318 1190 q 393 1088 374 1115 l 425 1044 l 357 990 m 581 990 l 561 996 q 385 1160 454 1090 l 389 1176 l 490 1243 l 507 1239 q 649 1044 551 1172 l 581 990 z "},"Ü":{"ha":894,"x_min":76,"x_max":819,"o":"m 811 442 l 810 313 q 713 71 811 156 q 435 -14 615 -14 q 167 69 260 -14 q 79 308 75 153 l 82 444 l 76 896 l 301 896 l 292 339 q 328 208 290 250 q 444 167 365 167 q 563 208 525 167 q 600 333 601 249 l 590 896 l 819 896 l 811 442 m 326 1213 q 397 1187 371 1213 q 422 1115 422 1161 q 394 1038 422 1067 q 318 1010 367 1010 q 247 1035 271 1010 q 222 1107 222 1060 q 250 1184 222 1156 q 326 1213 278 1213 m 579 1213 q 649 1187 624 1213 q 674 1115 674 1161 q 646 1038 674 1067 q 571 1010 618 1010 q 499 1035 524 1010 q 475 1107 475 1060 q 503 1184 475 1156 q 579 1213 531 1213 z "},"Ǘ":{"ha":894,"x_min":76,"x_max":819,"o":"m 811 442 l 810 313 q 713 71 811 156 q 435 -14 615 -14 q 167 69 260 -14 q 79 308 75 153 l 82 444 l 76 896 l 301 896 l 292 339 q 328 208 290 250 q 444 167 365 167 q 563 208 525 167 q 600 333 601 249 l 590 896 l 819 896 l 811 442 m 597 1447 l 629 1308 l 619 1290 q 294 1244 431 1258 l 276 1253 l 257 1349 q 579 1456 413 1394 l 597 1447 m 328 1183 q 397 1158 372 1183 q 421 1088 421 1133 q 394 1011 421 1039 q 319 983 367 983 q 249 1008 274 983 q 224 1079 224 1033 q 251 1156 224 1128 q 328 1183 279 1183 m 579 1183 q 649 1158 624 1183 q 674 1088 674 1133 q 647 1011 674 1039 q 572 983 619 983 q 501 1008 526 983 q 476 1079 476 1033 q 504 1155 476 1126 q 579 1183 532 1183 z "},"Ǚ":{"ha":894,"x_min":76,"x_max":819,"o":"m 811 442 l 810 313 q 713 71 811 156 q 435 -14 615 -14 q 167 69 260 -14 q 79 308 75 153 l 82 444 l 76 896 l 301 896 l 292 339 q 328 208 290 250 q 444 167 365 167 q 563 208 525 167 q 600 333 601 249 l 590 896 l 819 896 l 811 442 m 665 1350 q 469 1197 561 1278 l 428 1197 q 231 1350 331 1281 l 269 1436 l 290 1436 q 447 1350 363 1399 q 606 1436 553 1408 l 626 1436 l 665 1350 m 328 1183 q 397 1158 372 1183 q 421 1088 421 1133 q 394 1011 421 1039 q 319 983 367 983 q 249 1008 274 983 q 224 1079 224 1033 q 251 1156 224 1128 q 328 1183 279 1183 m 579 1183 q 649 1158 624 1183 q 674 1088 674 1133 q 647 1011 674 1039 q 572 983 619 983 q 501 1008 526 983 q 476 1079 476 1033 q 504 1155 476 1126 q 579 1183 532 1183 z "},"Ǜ":{"ha":894,"x_min":76,"x_max":819,"o":"m 811 442 l 810 313 q 713 71 811 156 q 435 -14 615 -14 q 167 69 260 -14 q 79 308 75 153 l 82 444 l 76 896 l 301 896 l 292 339 q 328 208 290 250 q 444 167 365 167 q 563 208 525 167 q 600 333 601 249 l 590 896 l 819 896 l 811 442 m 308 1456 q 629 1349 481 1392 l 611 1253 l 592 1244 q 268 1290 450 1260 l 257 1308 l 289 1447 l 308 1456 m 328 1183 q 397 1158 372 1183 q 421 1088 421 1133 q 394 1011 421 1039 q 319 983 367 983 q 249 1008 274 983 q 224 1079 224 1033 q 251 1156 224 1128 q 328 1183 279 1183 m 579 1183 q 649 1158 624 1183 q 674 1088 674 1133 q 647 1011 674 1039 q 572 983 619 983 q 501 1008 526 983 q 476 1079 476 1033 q 504 1155 476 1126 q 579 1183 532 1183 z "},"Ǖ":{"ha":894,"x_min":76,"x_max":819,"o":"m 811 442 l 810 313 q 713 71 811 156 q 435 -14 615 -14 q 167 69 260 -14 q 79 308 75 153 l 82 444 l 76 896 l 301 896 l 292 339 q 328 208 290 250 q 444 167 365 167 q 563 208 525 167 q 600 333 601 249 l 590 896 l 819 896 l 811 442 m 658 1379 l 647 1257 l 257 1257 l 242 1272 l 253 1394 l 644 1394 l 658 1379 m 328 1183 q 397 1158 372 1183 q 421 1088 421 1133 q 394 1011 421 1039 q 319 983 367 983 q 249 1008 274 983 q 224 1079 224 1033 q 251 1156 224 1128 q 328 1183 279 1183 m 579 1183 q 649 1158 624 1183 q 674 1088 674 1133 q 647 1011 674 1039 q 572 983 619 983 q 501 1008 526 983 q 476 1079 476 1033 q 504 1155 476 1126 q 579 1183 532 1183 z "},"Ụ":{"ha":894,"x_min":76,"x_max":819,"o":"m 811 442 l 810 313 q 713 71 811 156 q 435 -14 615 -14 q 167 69 260 -14 q 79 308 75 153 l 82 444 l 76 896 l 301 896 l 292 339 q 328 208 290 250 q 444 167 365 167 q 563 208 525 167 q 600 333 601 249 l 590 896 l 819 896 l 811 442 m 449 -61 q 528 -90 500 -61 q 557 -171 557 -119 q 525 -259 557 -226 q 440 -292 493 -292 q 360 -262 388 -292 q 332 -181 332 -233 q 363 -94 332 -126 q 449 -61 394 -61 z "},"Ù":{"ha":894,"x_min":76,"x_max":819,"o":"m 811 442 l 810 313 q 713 71 811 156 q 435 -14 615 -14 q 167 69 260 -14 q 79 308 75 153 l 82 444 l 76 896 l 301 896 l 292 339 q 328 208 290 250 q 444 167 365 167 q 563 208 525 167 q 600 333 601 249 l 590 896 l 819 896 l 811 442 m 339 1250 q 636 1089 485 1164 l 601 997 l 582 992 q 269 1096 403 1049 l 263 1114 l 318 1246 l 339 1250 z "},"Ủ":{"ha":894,"x_min":76,"x_max":819,"o":"m 811 442 l 810 313 q 713 71 811 156 q 435 -14 615 -14 q 167 69 260 -14 q 79 308 75 153 l 82 444 l 76 896 l 301 896 l 292 339 q 328 208 290 250 q 444 167 365 167 q 563 208 525 167 q 600 333 601 249 l 590 896 l 819 896 l 811 442 m 383 1046 q 438 1099 418 1071 q 458 1149 458 1128 q 447 1172 458 1164 q 417 1181 435 1181 q 371 1171 396 1181 q 324 1144 346 1161 l 289 1201 q 365 1258 322 1238 q 449 1278 407 1278 q 538 1248 503 1278 q 574 1169 574 1218 q 556 1115 574 1140 q 493 1049 539 1089 l 526 992 l 450 946 l 383 1046 z "},"Ư":{"ha":908,"x_min":75,"x_max":950,"o":"m 950 983 q 915 883 950 928 q 818 814 881 839 l 811 442 l 810 313 q 713 71 811 156 q 435 -14 615 -14 q 167 69 260 -14 q 79 308 75 153 l 82 444 l 76 896 l 301 896 l 292 339 q 328 208 290 250 q 444 167 365 167 q 563 208 525 167 q 600 333 601 249 l 590 896 l 697 896 q 760 912 740 896 q 779 964 779 928 q 738 1046 779 1011 l 742 1063 q 847 1106 800 1106 q 920 1071 890 1106 q 950 983 950 1036 z "},"Ứ":{"ha":908,"x_min":76,"x_max":950,"o":"m 950 983 q 915 883 950 928 q 818 814 881 839 l 811 442 l 810 313 q 713 71 811 156 q 435 -14 615 -14 q 167 69 260 -14 q 79 308 75 153 l 82 444 l 76 896 l 301 896 l 292 339 q 328 208 290 250 q 444 167 365 167 q 563 208 525 167 q 600 333 601 249 l 590 896 l 697 896 q 760 912 740 896 q 779 964 779 928 q 738 1046 779 1011 l 742 1063 q 847 1106 800 1106 q 920 1071 890 1106 q 950 983 950 1036 m 604 1246 l 660 1114 l 653 1096 q 340 992 517 1046 l 321 997 l 286 1089 q 583 1250 440 1165 l 604 1246 z "},"Ự":{"ha":908,"x_min":76,"x_max":950,"o":"m 950 983 q 915 883 950 928 q 818 814 881 839 l 811 442 l 810 313 q 713 71 811 156 q 435 -14 615 -14 q 167 69 260 -14 q 79 308 75 153 l 82 444 l 76 896 l 301 896 l 292 339 q 328 208 290 250 q 444 167 365 167 q 563 208 525 167 q 600 333 601 249 l 590 896 l 697 896 q 760 912 740 896 q 779 964 779 928 q 738 1046 779 1011 l 742 1063 q 847 1106 800 1106 q 920 1071 890 1106 q 950 983 950 1036 m 451 -61 q 531 -90 503 -61 q 560 -171 560 -119 q 528 -259 560 -226 q 443 -292 496 -292 q 363 -262 390 -292 q 335 -181 335 -233 q 366 -94 335 -126 q 451 -61 397 -61 z "},"Ừ":{"ha":908,"x_min":76,"x_max":950,"o":"m 950 983 q 915 883 950 928 q 818 814 881 839 l 811 442 l 810 313 q 713 71 811 156 q 435 -14 615 -14 q 167 69 260 -14 q 79 308 75 153 l 82 444 l 76 896 l 301 896 l 292 339 q 328 208 290 250 q 444 167 365 167 q 563 208 525 167 q 600 333 601 249 l 590 896 l 697 896 q 760 912 740 896 q 779 964 779 928 q 738 1046 779 1011 l 742 1063 q 847 1106 800 1106 q 920 1071 890 1106 q 950 983 950 1036 m 339 1250 q 636 1089 485 1164 l 601 997 l 582 992 q 269 1096 403 1049 l 263 1114 l 318 1246 l 339 1250 z "},"Ử":{"ha":908,"x_min":76,"x_max":950,"o":"m 950 983 q 915 883 950 928 q 818 814 881 839 l 811 442 l 810 313 q 713 71 811 156 q 435 -14 615 -14 q 167 69 260 -14 q 79 308 75 153 l 82 444 l 76 896 l 301 896 l 292 339 q 328 208 290 250 q 444 167 365 167 q 563 208 525 167 q 600 333 601 249 l 590 896 l 697 896 q 760 912 740 896 q 779 964 779 928 q 738 1046 779 1011 l 742 1063 q 847 1106 800 1106 q 920 1071 890 1106 q 950 983 950 1036 m 383 1046 q 438 1099 418 1071 q 458 1149 458 1128 q 447 1172 458 1164 q 417 1181 435 1181 q 371 1171 396 1181 q 324 1144 346 1161 l 289 1201 q 365 1258 322 1238 q 449 1278 407 1278 q 538 1248 503 1278 q 574 1169 574 1218 q 556 1115 574 1140 q 493 1049 539 1089 l 526 992 l 450 946 l 383 1046 z "},"Ữ":{"ha":908,"x_min":76,"x_max":950,"o":"m 950 983 q 915 883 950 928 q 818 814 881 839 l 811 442 l 810 313 q 713 71 811 156 q 435 -14 615 -14 q 167 69 260 -14 q 79 308 75 153 l 82 444 l 76 896 l 301 896 l 292 339 q 328 208 290 250 q 444 167 365 167 q 563 208 525 167 q 600 333 601 249 l 590 896 l 697 896 q 760 912 740 896 q 779 964 779 928 q 738 1046 779 1011 l 742 1063 q 847 1106 800 1106 q 920 1071 890 1106 q 950 983 950 1036 m 703 1179 l 703 1161 l 600 1024 l 581 1015 q 517 1028 554 1018 q 465 1042 479 1039 q 367 1064 392 1064 q 332 1050 349 1064 q 299 1017 315 1036 q 276 989 283 997 l 257 989 l 193 1053 l 193 1071 l 296 1208 l 315 1215 q 436 1188 346 1211 q 529 1167 510 1167 q 563 1181 547 1167 q 595 1214 579 1194 q 619 1243 611 1233 l 639 1243 l 703 1179 z "},"Ű":{"ha":894,"x_min":76,"x_max":819,"o":"m 811 442 l 810 313 q 713 71 811 156 q 435 -14 615 -14 q 167 69 260 -14 q 79 308 75 153 l 82 444 l 76 896 l 301 896 l 292 339 q 328 208 290 250 q 444 167 365 167 q 563 208 525 167 q 600 333 601 249 l 590 896 l 819 896 l 811 442 m 250 1044 q 392 1239 333 1153 l 408 1243 l 510 1176 l 513 1160 q 336 996 428 1075 l 317 990 l 250 1044 m 472 1044 q 614 1239 556 1153 l 631 1243 l 733 1176 l 736 1160 q 558 996 663 1088 l 540 990 l 472 1044 z "},"Ȗ":{"ha":894,"x_min":76,"x_max":819,"o":"m 811 442 l 810 313 q 713 71 811 156 q 435 -14 615 -14 q 167 69 260 -14 q 79 308 75 153 l 82 444 l 76 896 l 301 896 l 292 339 q 328 208 290 250 q 444 167 365 167 q 563 208 525 167 q 600 333 601 249 l 590 896 l 819 896 l 811 442 m 224 1081 q 304 1210 246 1160 q 454 1261 363 1261 q 599 1210 544 1261 q 672 1081 653 1158 l 621 1010 l 590 1010 q 534 1081 572 1056 q 447 1107 496 1107 q 361 1081 399 1107 q 306 1010 324 1056 l 276 1010 l 224 1081 z "},"Ū":{"ha":894,"x_min":76,"x_max":819,"o":"m 811 442 l 810 313 q 713 71 811 156 q 435 -14 615 -14 q 167 69 260 -14 q 79 308 75 153 l 82 444 l 76 896 l 301 896 l 292 339 q 328 208 290 250 q 444 167 365 167 q 563 208 525 167 q 600 333 601 249 l 590 896 l 819 896 l 811 442 m 654 1165 l 643 1043 l 257 1043 l 243 1058 l 253 1181 l 639 1181 l 654 1165 z "},"Ṻ":{"ha":894,"x_min":76,"x_max":819,"o":"m 811 442 l 810 313 q 713 71 811 156 q 435 -14 615 -14 q 167 69 260 -14 q 79 308 75 153 l 82 444 l 76 896 l 301 896 l 292 339 q 328 208 290 250 q 444 167 365 167 q 563 208 525 167 q 600 333 601 249 l 590 896 l 819 896 l 811 442 m 654 1165 l 643 1043 l 257 1043 l 243 1058 l 253 1181 l 639 1181 l 654 1165 m 326 1463 q 397 1437 371 1463 q 422 1365 422 1411 q 394 1288 422 1317 q 318 1260 367 1260 q 247 1285 271 1260 q 222 1357 222 1310 q 250 1434 222 1406 q 326 1463 278 1463 m 579 1463 q 649 1437 624 1463 q 674 1365 674 1411 q 646 1288 674 1317 q 571 1260 618 1260 q 499 1285 524 1260 q 475 1357 475 1310 q 503 1434 475 1406 q 579 1463 531 1463 z "},"Ų":{"ha":894,"x_min":76,"x_max":819,"o":"m 811 442 l 810 313 q 713 71 811 156 q 435 -14 615 -14 q 167 69 260 -14 q 79 308 75 153 l 82 444 l 76 896 l 301 896 l 292 339 q 328 208 290 250 q 444 167 365 167 q 563 208 525 167 q 600 333 601 249 l 590 896 l 819 896 l 811 442 m 564 -267 q 453 -233 494 -267 q 411 -142 411 -199 q 447 -48 411 -94 q 579 61 482 -1 l 693 61 q 572 -61 600 -29 q 544 -114 544 -93 q 581 -144 544 -144 q 681 -110 619 -144 l 692 -112 l 717 -211 q 564 -267 639 -267 z "},"Ů":{"ha":894,"x_min":76,"x_max":819,"o":"m 811 442 l 810 313 q 713 71 811 156 q 435 -14 615 -14 q 167 69 260 -14 q 79 308 75 153 l 82 444 l 76 896 l 301 896 l 292 339 q 328 208 290 250 q 444 167 365 167 q 563 208 525 167 q 600 333 601 249 l 590 896 l 819 896 l 811 442 m 453 1269 q 556 1235 521 1269 q 590 1136 590 1200 q 552 1028 590 1067 q 444 990 514 990 q 342 1026 378 990 q 307 1128 307 1061 q 344 1233 307 1197 q 453 1269 382 1269 m 447 1179 q 408 1167 421 1179 q 396 1132 396 1156 q 409 1092 396 1104 q 450 1079 422 1079 q 489 1091 476 1079 q 501 1128 501 1103 q 489 1167 501 1154 q 447 1179 476 1179 z "},"Ũ":{"ha":894,"x_min":76,"x_max":819,"o":"m 811 442 l 810 313 q 713 71 811 156 q 435 -14 615 -14 q 167 69 260 -14 q 79 308 75 153 l 82 444 l 76 896 l 301 896 l 292 339 q 328 208 290 250 q 444 167 365 167 q 563 208 525 167 q 600 333 601 249 l 590 896 l 819 896 l 811 442 m 703 1179 l 703 1161 l 600 1024 l 581 1015 q 517 1028 554 1018 q 465 1042 479 1039 q 367 1064 392 1064 q 332 1050 349 1064 q 299 1017 315 1036 q 276 989 283 997 l 257 989 l 193 1053 l 193 1071 l 296 1208 l 315 1215 q 436 1188 346 1211 q 529 1167 510 1167 q 563 1181 547 1167 q 595 1214 579 1194 q 619 1243 611 1233 l 639 1243 l 703 1179 z "},"Ṹ":{"ha":894,"x_min":76,"x_max":819,"o":"m 811 442 l 810 313 q 713 71 811 156 q 435 -14 615 -14 q 167 69 260 -14 q 79 308 75 153 l 82 444 l 76 896 l 301 896 l 292 339 q 328 208 290 250 q 444 167 365 167 q 563 208 525 167 q 600 333 601 249 l 590 896 l 819 896 l 811 442 m 597 1444 l 629 1306 l 619 1288 l 581 1282 q 294 1242 407 1253 l 276 1250 l 257 1346 q 579 1453 406 1389 l 597 1444 m 672 1158 l 672 1140 l 581 1004 l 563 997 q 460 1025 529 1001 q 388 1043 403 1043 q 351 1026 367 1043 q 308 971 336 1010 l 289 971 l 225 1033 l 225 1053 l 318 1188 l 336 1194 q 439 1167 369 1190 q 511 1149 496 1149 q 546 1165 531 1149 q 590 1222 561 1182 l 608 1222 l 672 1158 z "},"V":{"ha":832,"x_min":10,"x_max":832,"o":"m 543 0 l 272 0 l 10 896 l 239 896 l 263 765 l 406 206 l 419 206 l 586 753 l 611 896 l 832 896 l 543 0 z "},"W":{"ha":1260,"x_min":25,"x_max":1257,"o":"m 974 0 l 736 0 l 624 386 l 610 386 l 499 0 l 260 0 l 25 896 l 244 896 l 258 774 l 388 229 l 401 229 l 533 682 l 478 896 l 706 896 l 725 751 l 860 229 l 874 229 l 1025 761 l 1049 896 l 1257 896 l 974 0 z "},"Ẃ":{"ha":1260,"x_min":25,"x_max":1257,"o":"m 974 0 l 736 0 l 624 386 l 610 386 l 499 0 l 260 0 l 25 896 l 244 896 l 258 774 l 388 229 l 401 229 l 533 682 l 478 896 l 706 896 l 725 751 l 860 229 l 874 229 l 1025 761 l 1049 896 l 1257 896 l 974 0 m 776 1246 l 832 1114 l 825 1096 q 513 992 689 1046 l 493 997 l 458 1089 q 756 1250 613 1165 l 776 1246 z "},"Ŵ":{"ha":1260,"x_min":25,"x_max":1257,"o":"m 974 0 l 736 0 l 624 386 l 610 386 l 499 0 l 260 0 l 25 896 l 244 896 l 258 774 l 388 229 l 401 229 l 533 682 l 478 896 l 706 896 l 725 751 l 860 229 l 874 229 l 1025 761 l 1049 896 l 1257 896 l 974 0 m 406 1094 q 601 1247 511 1165 l 643 1247 q 840 1094 738 1163 l 801 1007 l 781 1007 l 718 1040 q 675 1064 699 1051 q 624 1093 651 1076 l 465 1007 l 444 1007 l 406 1094 z "},"Ẅ":{"ha":1260,"x_min":25,"x_max":1257,"o":"m 974 0 l 736 0 l 624 386 l 610 386 l 499 0 l 260 0 l 25 896 l 244 896 l 258 774 l 388 229 l 401 229 l 533 682 l 478 896 l 706 896 l 725 751 l 860 229 l 874 229 l 1025 761 l 1049 896 l 1257 896 l 974 0 m 499 1213 q 569 1187 543 1213 q 594 1115 594 1161 q 567 1038 594 1067 q 490 1010 539 1010 q 419 1035 443 1010 q 394 1107 394 1060 q 422 1184 394 1156 q 499 1213 450 1213 m 751 1213 q 821 1187 796 1213 q 846 1115 846 1161 q 818 1038 846 1067 q 743 1010 790 1010 q 672 1035 696 1010 q 647 1107 647 1060 q 675 1184 647 1156 q 751 1213 703 1213 z "},"Ẁ":{"ha":1260,"x_min":25,"x_max":1257,"o":"m 974 0 l 736 0 l 624 386 l 610 386 l 499 0 l 260 0 l 25 896 l 244 896 l 258 774 l 388 229 l 401 229 l 533 682 l 478 896 l 706 896 l 725 751 l 860 229 l 874 229 l 1025 761 l 1049 896 l 1257 896 l 974 0 m 511 1250 q 808 1089 657 1164 l 774 997 l 754 992 q 442 1096 575 1049 l 435 1114 l 490 1246 l 511 1250 z "},"X":{"ha":886,"x_min":22,"x_max":868,"o":"m 588 471 l 868 0 l 599 0 l 554 97 l 435 294 l 297 86 l 256 0 l 25 0 l 303 438 l 22 896 l 293 896 l 338 797 l 453 610 l 575 807 l 615 896 l 851 896 l 588 471 z "},"Y":{"ha":796,"x_min":-1,"x_max":808,"o":"m 490 243 l 500 0 l 275 0 l 286 243 l 285 292 l -1 896 l 236 896 l 257 829 l 388 517 l 403 517 l 550 821 l 578 896 l 808 896 l 493 297 l 490 243 z "},"Ý":{"ha":796,"x_min":-1,"x_max":808,"o":"m 490 243 l 500 0 l 275 0 l 286 243 l 285 292 l -1 896 l 236 896 l 257 829 l 388 517 l 403 517 l 550 821 l 578 896 l 808 896 l 493 297 l 490 243 m 551 1246 l 607 1114 l 600 1096 q 288 992 464 1046 l 268 997 l 233 1089 q 531 1250 388 1165 l 551 1246 z "},"Ŷ":{"ha":796,"x_min":-1,"x_max":808,"o":"m 490 243 l 500 0 l 275 0 l 286 243 l 285 292 l -1 896 l 236 896 l 257 829 l 388 517 l 403 517 l 550 821 l 578 896 l 808 896 l 493 297 l 490 243 m 181 1094 q 376 1247 286 1165 l 418 1247 q 615 1094 513 1163 l 576 1007 l 556 1007 l 493 1040 q 450 1064 474 1051 q 399 1093 426 1076 l 240 1007 l 219 1007 l 181 1094 z "},"Ÿ":{"ha":796,"x_min":-1,"x_max":808,"o":"m 490 243 l 500 0 l 275 0 l 286 243 l 285 292 l -1 896 l 236 896 l 257 829 l 388 517 l 403 517 l 550 821 l 578 896 l 808 896 l 493 297 l 490 243 m 274 1213 q 344 1187 318 1213 q 369 1115 369 1161 q 342 1038 369 1067 q 265 1010 314 1010 q 194 1035 218 1010 q 169 1107 169 1060 q 197 1184 169 1156 q 274 1213 225 1213 m 526 1213 q 596 1187 571 1213 q 621 1115 621 1161 q 593 1038 621 1067 q 518 1010 565 1010 q 447 1035 471 1010 q 422 1107 422 1060 q 450 1184 422 1156 q 526 1213 478 1213 z "},"Ẏ":{"ha":796,"x_min":-1,"x_max":808,"o":"m 490 243 l 500 0 l 275 0 l 286 243 l 285 292 l -1 896 l 236 896 l 257 829 l 388 517 l 403 517 l 550 821 l 578 896 l 808 896 l 493 297 l 490 243 m 400 1229 q 480 1200 451 1229 q 508 1119 508 1171 q 476 1031 508 1064 q 392 999 444 999 q 311 1028 339 999 q 283 1110 283 1057 q 315 1197 283 1164 q 400 1229 346 1229 z "},"Ỵ":{"ha":796,"x_min":-1,"x_max":808,"o":"m 490 243 l 500 0 l 275 0 l 286 243 l 285 292 l -1 896 l 236 896 l 257 829 l 388 517 l 403 517 l 550 821 l 578 896 l 808 896 l 493 297 l 490 243 m 392 -61 q 472 -90 443 -61 q 500 -171 500 -119 q 468 -259 500 -226 q 383 -292 436 -292 q 303 -262 331 -292 q 275 -181 275 -233 q 306 -94 275 -126 q 392 -61 338 -61 z "},"Ỳ":{"ha":796,"x_min":-1,"x_max":808,"o":"m 490 243 l 500 0 l 275 0 l 286 243 l 285 292 l -1 896 l 236 896 l 257 829 l 388 517 l 403 517 l 550 821 l 578 896 l 808 896 l 493 297 l 490 243 m 286 1250 q 583 1089 432 1164 l 549 997 l 529 992 q 217 1096 350 1049 l 210 1114 l 265 1246 l 286 1250 z "},"Ỷ":{"ha":796,"x_min":-1,"x_max":808,"o":"m 490 243 l 500 0 l 275 0 l 286 243 l 285 292 l -1 896 l 236 896 l 257 829 l 388 517 l 403 517 l 550 821 l 578 896 l 808 896 l 493 297 l 490 243 m 331 1046 q 385 1099 365 1071 q 406 1149 406 1128 q 394 1172 406 1164 q 364 1181 382 1181 q 318 1171 343 1181 q 271 1144 293 1161 l 236 1201 q 312 1258 269 1238 q 396 1278 354 1278 q 485 1248 450 1278 q 521 1169 521 1218 q 503 1115 521 1140 q 440 1049 486 1089 l 474 992 l 397 946 l 331 1046 z "},"Ȳ":{"ha":796,"x_min":-1,"x_max":808,"o":"m 490 243 l 500 0 l 275 0 l 286 243 l 285 292 l -1 896 l 236 896 l 257 829 l 388 517 l 403 517 l 550 821 l 578 896 l 808 896 l 493 297 l 490 243 m 601 1165 l 590 1043 l 204 1043 l 190 1058 l 200 1181 l 586 1181 l 601 1165 z "},"Ỹ":{"ha":796,"x_min":-1,"x_max":808,"o":"m 490 243 l 500 0 l 275 0 l 286 243 l 285 292 l -1 896 l 236 896 l 257 829 l 388 517 l 403 517 l 550 821 l 578 896 l 808 896 l 493 297 l 490 243 m 650 1179 l 650 1161 l 547 1024 l 528 1015 q 464 1028 501 1018 q 413 1042 426 1039 q 314 1064 339 1064 q 279 1050 296 1064 q 247 1017 263 1036 q 224 989 231 997 l 204 989 l 140 1053 l 140 1071 l 243 1208 l 263 1215 q 383 1188 293 1211 q 476 1167 457 1167 q 510 1181 494 1167 q 542 1214 526 1194 q 567 1243 558 1233 l 586 1243 l 650 1179 z "},"Z":{"ha":774,"x_min":40,"x_max":742,"o":"m 725 735 l 306 169 l 575 169 l 733 181 l 742 169 l 724 -6 l 503 0 l 161 0 l 40 -7 l 40 154 l 464 726 l 208 726 l 50 714 l 42 724 l 58 899 l 250 896 l 631 896 l 725 897 l 725 735 z "},"Ź":{"ha":774,"x_min":40,"x_max":742,"o":"m 725 735 l 306 169 l 575 169 l 733 181 l 742 169 l 724 -6 l 503 0 l 161 0 l 40 -7 l 40 154 l 464 726 l 208 726 l 50 714 l 42 724 l 58 899 l 250 896 l 631 896 l 725 897 l 725 735 m 542 1246 l 597 1114 l 590 1096 q 278 992 454 1046 l 258 997 l 224 1089 q 521 1250 378 1165 l 542 1246 z "},"Ž":{"ha":774,"x_min":40,"x_max":742,"o":"m 725 735 l 306 169 l 575 169 l 733 181 l 742 169 l 724 -6 l 503 0 l 161 0 l 40 -7 l 40 154 l 464 726 l 208 726 l 50 714 l 42 724 l 58 899 l 250 896 l 631 896 l 725 897 l 725 735 m 604 1146 q 408 993 499 1075 l 367 993 q 169 1146 272 1078 l 208 1233 l 229 1233 l 292 1200 q 335 1176 311 1189 q 386 1147 358 1164 l 544 1233 l 565 1233 l 604 1146 z "},"Ż":{"ha":774,"x_min":40,"x_max":742,"o":"m 725 735 l 306 169 l 575 169 l 733 181 l 742 169 l 724 -6 l 503 0 l 161 0 l 40 -7 l 40 154 l 464 726 l 208 726 l 50 714 l 42 724 l 58 899 l 250 896 l 631 896 l 725 897 l 725 735 m 390 1229 q 470 1200 442 1229 q 499 1119 499 1171 q 467 1031 499 1064 q 382 999 435 999 q 301 1028 329 999 q 274 1110 274 1057 q 305 1197 274 1164 q 390 1229 336 1229 z "},"Ẓ":{"ha":774,"x_min":40,"x_max":742,"o":"m 725 735 l 306 169 l 575 169 l 733 181 l 742 169 l 724 -6 l 503 0 l 161 0 l 40 -7 l 40 154 l 464 726 l 208 726 l 50 714 l 42 724 l 58 899 l 250 896 l 631 896 l 725 897 l 725 735 m 390 -61 q 470 -90 442 -61 q 499 -171 499 -119 q 467 -259 499 -226 q 382 -292 435 -292 q 301 -262 329 -292 q 274 -181 274 -233 q 305 -94 274 -126 q 390 -61 336 -61 z "},"a":{"ha":681,"x_min":33,"x_max":650,"o":"m 347 664 q 526 615 463 664 q 590 474 590 565 q 588 400 590 442 q 583 321 585 358 q 576 183 576 221 q 583 156 576 164 q 604 147 589 147 q 635 153 617 147 l 650 140 l 631 25 q 518 -12 585 -7 q 447 17 476 -8 q 406 88 418 42 l 396 88 q 254 -14 326 14 q 92 42 151 -12 q 33 189 33 96 q 183 357 33 332 l 389 392 l 389 432 q 370 494 389 475 q 310 513 351 513 q 220 494 268 513 q 110 438 172 476 l 96 447 l 71 590 q 206 644 133 625 q 347 664 278 664 m 269 265 q 238 249 249 261 q 228 211 228 236 q 245 160 228 178 q 293 142 263 142 q 388 189 338 142 l 389 289 l 269 265 z "},"á":{"ha":681,"x_min":33,"x_max":650,"o":"m 347 664 q 526 615 463 664 q 590 474 590 565 q 588 400 590 442 q 583 321 585 358 q 576 183 576 221 q 583 156 576 164 q 604 147 589 147 q 635 153 617 147 l 650 140 l 631 25 q 518 -12 585 -7 q 447 17 476 -8 q 406 88 418 42 l 396 88 q 254 -14 326 14 q 92 42 151 -12 q 33 189 33 96 q 183 357 33 332 l 389 392 l 389 432 q 370 494 389 475 q 310 513 351 513 q 220 494 268 513 q 110 438 172 476 l 96 447 l 71 590 q 206 644 133 625 q 347 664 278 664 m 269 265 q 238 249 249 261 q 228 211 228 236 q 245 160 228 178 q 293 142 263 142 q 388 189 338 142 l 389 289 l 269 265 m 464 1022 l 543 901 l 539 882 q 253 722 401 803 l 233 724 l 182 807 q 444 1024 328 918 l 464 1022 z "},"ă":{"ha":681,"x_min":33,"x_max":650,"o":"m 347 664 q 526 615 463 664 q 590 474 590 565 q 588 400 590 442 q 583 321 585 358 q 576 183 576 221 q 583 156 576 164 q 604 147 589 147 q 635 153 617 147 l 650 140 l 631 25 q 518 -12 585 -7 q 447 17 476 -8 q 406 88 418 42 l 396 88 q 254 -14 326 14 q 92 42 151 -12 q 33 189 33 96 q 183 357 33 332 l 389 392 l 389 432 q 370 494 389 475 q 310 513 351 513 q 220 494 268 513 q 110 438 172 476 l 96 447 l 71 590 q 206 644 133 625 q 347 664 278 664 m 269 265 q 238 249 249 261 q 228 211 228 236 q 245 160 228 178 q 293 142 263 142 q 388 189 338 142 l 389 289 l 269 265 m 558 919 q 478 790 536 840 q 328 739 419 739 q 183 790 238 739 q 110 919 129 842 l 161 990 l 192 990 q 248 919 210 944 q 335 893 286 893 q 421 919 383 893 q 476 990 458 944 l 506 990 l 558 919 z "},"ắ":{"ha":681,"x_min":33,"x_max":650,"o":"m 347 664 q 526 615 463 664 q 590 474 590 565 q 588 400 590 442 q 583 321 585 358 q 576 183 576 221 q 583 156 576 164 q 604 147 589 147 q 635 153 617 147 l 650 140 l 631 25 q 518 -12 585 -7 q 447 17 476 -8 q 406 88 418 42 l 396 88 q 254 -14 326 14 q 92 42 151 -12 q 33 189 33 96 q 183 357 33 332 l 389 392 l 389 432 q 370 494 389 475 q 310 513 351 513 q 220 494 268 513 q 110 438 172 476 l 96 447 l 71 590 q 206 644 133 625 q 347 664 278 664 m 269 265 q 238 249 249 261 q 228 211 228 236 q 245 160 228 178 q 293 142 263 142 q 388 189 338 142 l 389 289 l 269 265 m 499 1103 l 501 1086 l 343 935 l 325 931 l 258 983 q 389 1169 328 1079 l 404 1174 l 499 1103 m 557 882 q 470 765 529 806 q 329 724 411 724 q 192 765 249 724 q 108 882 135 806 l 156 950 l 186 950 q 246 895 207 914 q 336 876 285 876 q 422 895 385 876 q 478 950 458 914 l 510 950 l 557 882 z "},"ặ":{"ha":679,"x_min":33,"x_max":650,"o":"m 560 919 q 479 790 538 840 q 329 739 421 739 q 185 790 239 739 q 111 919 131 842 l 163 990 l 193 990 q 249 919 211 944 q 336 893 288 893 q 422 919 385 893 q 478 990 460 944 l 507 990 l 560 919 m 347 664 q 526 615 463 664 q 590 474 590 565 q 588 400 590 442 q 583 321 585 358 q 576 183 576 221 q 583 156 576 164 q 604 147 589 147 q 635 153 617 147 l 650 140 l 631 25 q 518 -12 585 -7 q 447 17 476 -8 q 406 88 418 42 l 396 88 q 254 -14 326 14 q 92 42 151 -12 q 33 189 33 96 q 183 357 33 332 l 389 392 l 389 432 q 370 494 389 475 q 310 513 351 513 q 220 494 268 513 q 110 438 172 476 l 96 447 l 71 590 q 206 644 133 625 q 347 664 278 664 m 269 265 q 238 249 249 261 q 228 211 228 236 q 245 160 228 178 q 293 142 263 142 q 388 189 338 142 l 389 289 l 269 265 m 336 -61 q 416 -90 388 -61 q 444 -171 444 -119 q 413 -259 444 -226 q 328 -292 381 -292 q 247 -262 275 -292 q 219 -181 219 -233 q 251 -94 219 -126 q 336 -61 282 -61 z "},"ằ":{"ha":681,"x_min":33,"x_max":650,"o":"m 347 664 q 526 615 463 664 q 590 474 590 565 q 588 400 590 442 q 583 321 585 358 q 576 183 576 221 q 583 156 576 164 q 604 147 589 147 q 635 153 617 147 l 650 140 l 631 25 q 518 -12 585 -7 q 447 17 476 -8 q 406 88 418 42 l 396 88 q 254 -14 326 14 q 92 42 151 -12 q 33 189 33 96 q 183 357 33 332 l 389 392 l 389 432 q 370 494 389 475 q 310 513 351 513 q 220 494 268 513 q 110 438 172 476 l 96 447 l 71 590 q 206 644 133 625 q 347 664 278 664 m 269 265 q 238 249 249 261 q 228 211 228 236 q 245 160 228 178 q 293 142 263 142 q 388 189 338 142 l 389 289 l 269 265 m 325 935 l 167 1086 l 169 1103 l 264 1174 l 279 1169 q 410 983 340 1079 l 343 931 l 325 935 m 557 882 q 470 765 529 806 q 329 724 411 724 q 192 765 249 724 q 108 882 135 806 l 156 950 l 186 950 q 246 895 207 914 q 336 876 285 876 q 422 895 385 876 q 478 950 458 914 l 510 950 l 557 882 z "},"ẳ":{"ha":681,"x_min":33,"x_max":650,"o":"m 347 664 q 526 615 463 664 q 590 474 590 565 q 588 400 590 442 q 583 321 585 358 q 576 183 576 221 q 583 156 576 164 q 604 147 589 147 q 635 153 617 147 l 650 140 l 631 25 q 518 -12 585 -7 q 447 17 476 -8 q 406 88 418 42 l 396 88 q 254 -14 326 14 q 92 42 151 -12 q 33 189 33 96 q 183 357 33 332 l 389 392 l 389 432 q 370 494 389 475 q 310 513 351 513 q 220 494 268 513 q 110 438 172 476 l 96 447 l 71 590 q 206 644 133 625 q 347 664 278 664 m 269 265 q 238 249 249 261 q 228 211 228 236 q 245 160 228 178 q 293 142 263 142 q 388 189 338 142 l 389 289 l 269 265 m 557 882 q 470 765 529 806 q 329 724 411 724 q 192 765 249 724 q 108 882 135 806 l 156 950 l 186 950 q 246 895 207 914 q 336 876 285 876 q 422 895 385 876 q 478 950 458 914 l 510 950 l 557 882 m 271 1021 q 322 1070 303 1044 q 341 1116 341 1097 q 330 1138 341 1130 q 302 1146 319 1146 q 259 1137 283 1146 q 216 1112 236 1128 l 183 1165 q 254 1217 214 1199 q 332 1236 293 1236 q 415 1208 382 1236 q 448 1135 448 1180 q 432 1084 448 1108 q 373 1023 415 1061 l 404 970 l 333 928 l 271 1021 z "},"ẵ":{"ha":681,"x_min":33,"x_max":650,"o":"m 347 664 q 526 615 463 664 q 590 474 590 565 q 588 400 590 442 q 583 321 585 358 q 576 183 576 221 q 583 156 576 164 q 604 147 589 147 q 635 153 617 147 l 650 140 l 631 25 q 518 -12 585 -7 q 447 17 476 -8 q 406 88 418 42 l 396 88 q 254 -14 326 14 q 92 42 151 -12 q 33 189 33 96 q 183 357 33 332 l 389 392 l 389 432 q 370 494 389 475 q 310 513 351 513 q 220 494 268 513 q 110 438 172 476 l 96 447 l 71 590 q 206 644 133 625 q 347 664 278 664 m 269 265 q 238 249 249 261 q 228 211 228 236 q 245 160 228 178 q 293 142 263 142 q 388 189 338 142 l 389 289 l 269 265 m 546 873 q 463 763 519 801 q 330 724 408 724 q 200 763 254 724 q 122 873 147 801 l 166 938 l 195 938 q 252 886 215 904 q 337 868 288 868 q 418 886 383 868 q 471 938 452 904 l 501 938 l 546 873 m 556 1136 l 556 1119 l 464 996 l 447 989 q 391 1001 424 992 q 346 1013 358 1011 q 260 1033 281 1033 q 227 1018 242 1033 q 181 966 212 1003 l 164 966 l 108 1023 l 108 1039 l 199 1162 l 215 1168 q 321 1144 242 1165 q 403 1125 385 1125 q 434 1138 419 1125 q 463 1168 449 1151 q 483 1192 478 1186 l 499 1192 l 556 1136 z "},"ǎ":{"ha":681,"x_min":33,"x_max":650,"o":"m 347 664 q 526 615 463 664 q 590 474 590 565 q 588 400 590 442 q 583 321 585 358 q 576 183 576 221 q 583 156 576 164 q 604 147 589 147 q 635 153 617 147 l 650 140 l 631 25 q 518 -12 585 -7 q 447 17 476 -8 q 406 88 418 42 l 396 88 q 254 -14 326 14 q 92 42 151 -12 q 33 189 33 96 q 183 357 33 332 l 389 392 l 389 432 q 370 494 389 475 q 310 513 351 513 q 220 494 268 513 q 110 438 172 476 l 96 447 l 71 590 q 206 644 133 625 q 347 664 278 664 m 269 265 q 238 249 249 261 q 228 211 228 236 q 245 160 228 178 q 293 142 263 142 q 388 189 338 142 l 389 289 l 269 265 m 563 931 q 354 729 476 854 l 311 729 q 103 931 218 826 l 157 1013 l 178 1013 q 332 893 285 936 q 486 1013 376 931 l 508 1013 l 563 931 z "},"â":{"ha":681,"x_min":33,"x_max":650,"o":"m 347 664 q 526 615 463 664 q 590 474 590 565 q 588 400 590 442 q 583 321 585 358 q 576 183 576 221 q 583 156 576 164 q 604 147 589 147 q 635 153 617 147 l 650 140 l 631 25 q 518 -12 585 -7 q 447 17 476 -8 q 406 88 418 42 l 396 88 q 254 -14 326 14 q 92 42 151 -12 q 33 189 33 96 q 183 357 33 332 l 389 392 l 389 432 q 370 494 389 475 q 310 513 351 513 q 220 494 268 513 q 110 438 172 476 l 96 447 l 71 590 q 206 644 133 625 q 347 664 278 664 m 269 265 q 238 249 249 261 q 228 211 228 236 q 245 160 228 178 q 293 142 263 142 q 388 189 338 142 l 389 289 l 269 265 m 103 815 q 311 1017 189 892 l 354 1017 q 563 815 447 919 l 508 733 l 488 733 q 333 853 381 810 q 179 733 289 815 l 157 733 l 103 815 z "},"ấ":{"ha":681,"x_min":33,"x_max":650,"o":"m 347 664 q 526 615 463 664 q 590 474 590 565 q 588 400 590 442 q 583 321 585 358 q 576 183 576 221 q 583 156 576 164 q 604 147 589 147 q 635 153 617 147 l 650 140 l 631 25 q 518 -12 585 -7 q 447 17 476 -8 q 406 88 418 42 l 396 88 q 254 -14 326 14 q 92 42 151 -12 q 33 189 33 96 q 183 357 33 332 l 389 392 l 389 432 q 370 494 389 475 q 310 513 351 513 q 220 494 268 513 q 110 438 172 476 l 96 447 l 71 590 q 206 644 133 625 q 347 664 278 664 m 269 265 q 238 249 249 261 q 228 211 228 236 q 245 160 228 178 q 293 142 263 142 q 388 189 338 142 l 389 289 l 269 265 m 614 1090 l 619 1074 l 501 922 l 488 922 l 411 976 l 492 1132 l 507 1140 l 614 1090 m 115 819 q 313 972 236 903 l 354 972 q 550 819 435 899 l 511 733 l 490 733 q 333 819 418 771 q 176 733 249 771 l 156 733 l 115 819 z "},"ậ":{"ha":681,"x_min":33,"x_max":650,"o":"m 347 664 q 526 615 463 664 q 590 474 590 565 q 588 400 590 442 q 583 321 585 358 q 576 183 576 221 q 583 156 576 164 q 604 147 589 147 q 635 153 617 147 l 650 140 l 631 25 q 518 -12 585 -7 q 447 17 476 -8 q 406 88 418 42 l 396 88 q 254 -14 326 14 q 92 42 151 -12 q 33 189 33 96 q 183 357 33 332 l 389 392 l 389 432 q 370 494 389 475 q 310 513 351 513 q 220 494 268 513 q 110 438 172 476 l 96 447 l 71 590 q 206 644 133 625 q 347 664 278 664 m 269 265 q 238 249 249 261 q 228 211 228 236 q 245 160 228 178 q 293 142 263 142 q 388 189 338 142 l 389 289 l 269 265 m 336 -61 q 416 -90 388 -61 q 444 -171 444 -119 q 413 -259 444 -226 q 328 -292 381 -292 q 247 -262 275 -292 q 219 -181 219 -233 q 251 -94 219 -126 q 336 -61 282 -61 m 101 815 q 310 1017 188 892 l 353 1017 q 561 815 446 919 l 507 733 l 486 733 q 332 853 379 810 q 178 733 288 815 l 156 733 l 101 815 z "},"ầ":{"ha":681,"x_min":33,"x_max":650,"o":"m 347 664 q 526 615 463 664 q 590 474 590 565 q 588 400 590 442 q 583 321 585 358 q 576 183 576 221 q 583 156 576 164 q 604 147 589 147 q 635 153 617 147 l 650 140 l 631 25 q 518 -12 585 -7 q 447 17 476 -8 q 406 88 418 42 l 396 88 q 254 -14 326 14 q 92 42 151 -12 q 33 189 33 96 q 183 357 33 332 l 389 392 l 389 432 q 370 494 389 475 q 310 513 351 513 q 220 494 268 513 q 110 438 172 476 l 96 447 l 71 590 q 206 644 133 625 q 347 664 278 664 m 269 265 q 238 249 249 261 q 228 211 228 236 q 245 160 228 178 q 293 142 263 142 q 388 189 338 142 l 389 289 l 269 265 m 368 1074 l 372 1090 l 479 1140 l 494 1132 l 576 976 l 500 922 l 486 922 l 368 1074 m 115 819 q 313 972 236 903 l 354 972 q 550 819 435 899 l 511 733 l 490 733 q 333 819 418 771 q 176 733 249 771 l 156 733 l 115 819 z "},"ẩ":{"ha":681,"x_min":33,"x_max":650,"o":"m 347 664 q 526 615 463 664 q 590 474 590 565 q 588 400 590 442 q 583 321 585 358 q 576 183 576 221 q 583 156 576 164 q 604 147 589 147 q 635 153 617 147 l 650 140 l 631 25 q 518 -12 585 -7 q 447 17 476 -8 q 406 88 418 42 l 396 88 q 254 -14 326 14 q 92 42 151 -12 q 33 189 33 96 q 183 357 33 332 l 389 392 l 389 432 q 370 494 389 475 q 310 513 351 513 q 220 494 268 513 q 110 438 172 476 l 96 447 l 71 590 q 206 644 133 625 q 347 664 278 664 m 269 265 q 238 249 249 261 q 228 211 228 236 q 245 160 228 178 q 293 142 263 142 q 388 189 338 142 l 389 289 l 269 265 m 115 849 q 311 1001 221 919 l 353 1001 q 550 849 447 917 l 511 761 l 490 761 l 428 794 q 385 818 408 806 q 333 847 361 831 l 175 761 l 154 761 l 115 849 m 446 1034 q 498 1085 479 1058 q 517 1132 517 1112 q 506 1154 517 1146 q 478 1162 495 1162 q 434 1153 458 1162 q 389 1128 410 1144 l 356 1182 q 428 1235 388 1216 q 508 1255 468 1255 q 593 1226 560 1255 q 627 1151 627 1198 q 611 1099 627 1124 q 550 1036 594 1075 l 582 982 l 509 939 l 446 1034 z "},"ẫ":{"ha":681,"x_min":33,"x_max":650,"o":"m 347 664 q 526 615 463 664 q 590 474 590 565 q 588 400 590 442 q 583 321 585 358 q 576 183 576 221 q 583 156 576 164 q 604 147 589 147 q 635 153 617 147 l 650 140 l 631 25 q 518 -12 585 -7 q 447 17 476 -8 q 406 88 418 42 l 396 88 q 254 -14 326 14 q 92 42 151 -12 q 33 189 33 96 q 183 357 33 332 l 389 392 l 389 432 q 370 494 389 475 q 310 513 351 513 q 220 494 268 513 q 110 438 172 476 l 96 447 l 71 590 q 206 644 133 625 q 347 664 278 664 m 269 265 q 238 249 249 261 q 228 211 228 236 q 245 160 228 178 q 293 142 263 142 q 388 189 338 142 l 389 289 l 269 265 m 117 849 q 313 1001 222 919 l 354 1001 q 551 849 449 917 l 513 761 l 492 761 l 429 794 q 386 818 410 806 q 335 847 363 831 l 176 761 l 156 761 l 117 849 m 586 1196 l 586 1176 l 482 1039 l 463 1032 q 399 1045 436 1035 q 347 1058 361 1056 q 250 1081 274 1081 q 212 1064 229 1081 q 160 1006 194 1047 l 140 1006 l 76 1069 l 76 1088 l 181 1225 l 199 1232 q 319 1204 229 1228 q 413 1183 392 1183 q 447 1198 431 1183 q 481 1232 464 1213 q 503 1258 497 1251 l 521 1258 l 586 1196 z "},"ȁ":{"ha":681,"x_min":33,"x_max":650,"o":"m 347 664 q 526 615 463 664 q 590 474 590 565 q 588 400 590 442 q 583 321 585 358 q 576 183 576 221 q 583 156 576 164 q 604 147 589 147 q 635 153 617 147 l 650 140 l 631 25 q 518 -12 585 -7 q 447 17 476 -8 q 406 88 418 42 l 396 88 q 254 -14 326 14 q 92 42 151 -12 q 33 189 33 96 q 183 357 33 332 l 389 392 l 389 432 q 370 494 389 475 q 310 513 351 513 q 220 494 268 513 q 110 438 172 476 l 96 447 l 71 590 q 206 644 133 625 q 347 664 278 664 m 269 265 q 238 249 249 261 q 228 211 228 236 q 245 160 228 178 q 293 142 263 142 q 388 189 338 142 l 389 289 l 269 265 m 344 778 q 179 1026 244 922 l 164 1031 l 63 960 l 58 943 q 260 729 142 847 l 278 724 l 344 778 m 564 778 q 397 1026 488 885 l 382 1031 l 281 960 l 278 943 q 479 729 361 847 l 497 724 l 564 778 z "},"ä":{"ha":681,"x_min":33,"x_max":650,"o":"m 347 664 q 526 615 463 664 q 590 474 590 565 q 588 400 590 442 q 583 321 585 358 q 576 183 576 221 q 583 156 576 164 q 604 147 589 147 q 635 153 617 147 l 650 140 l 631 25 q 518 -12 585 -7 q 447 17 476 -8 q 406 88 418 42 l 396 88 q 254 -14 326 14 q 92 42 151 -12 q 33 189 33 96 q 183 357 33 332 l 389 392 l 389 432 q 370 494 389 475 q 310 513 351 513 q 220 494 268 513 q 110 438 172 476 l 96 447 l 71 590 q 206 644 133 625 q 347 664 278 664 m 269 265 q 238 249 249 261 q 228 211 228 236 q 245 160 228 178 q 293 142 263 142 q 388 189 338 142 l 389 289 l 269 265 m 210 967 q 280 941 254 967 q 306 869 306 915 q 278 792 306 821 q 201 764 250 764 q 130 789 154 764 q 106 861 106 814 q 133 938 106 910 q 210 967 161 967 m 463 967 q 532 941 507 967 q 557 869 557 915 q 529 792 557 821 q 454 764 501 764 q 383 789 407 764 q 358 861 358 814 q 386 938 358 910 q 463 967 414 967 z "},"ạ":{"ha":681,"x_min":33,"x_max":650,"o":"m 347 664 q 526 615 463 664 q 590 474 590 565 q 588 400 590 442 q 583 321 585 358 q 576 183 576 221 q 583 156 576 164 q 604 147 589 147 q 635 153 617 147 l 650 140 l 631 25 q 518 -12 585 -7 q 447 17 476 -8 q 406 88 418 42 l 396 88 q 254 -14 326 14 q 92 42 151 -12 q 33 189 33 96 q 183 357 33 332 l 389 392 l 389 432 q 370 494 389 475 q 310 513 351 513 q 220 494 268 513 q 110 438 172 476 l 96 447 l 71 590 q 206 644 133 625 q 347 664 278 664 m 269 265 q 238 249 249 261 q 228 211 228 236 q 245 160 228 178 q 293 142 263 142 q 388 189 338 142 l 389 289 l 269 265 m 336 -61 q 416 -90 388 -61 q 444 -171 444 -119 q 413 -259 444 -226 q 328 -292 381 -292 q 247 -262 275 -292 q 219 -181 219 -233 q 251 -94 219 -126 q 336 -61 282 -61 z "},"à":{"ha":681,"x_min":33,"x_max":650,"o":"m 347 664 q 526 615 463 664 q 590 474 590 565 q 588 400 590 442 q 583 321 585 358 q 576 183 576 221 q 583 156 576 164 q 604 147 589 147 q 635 153 617 147 l 650 140 l 631 25 q 518 -12 585 -7 q 447 17 476 -8 q 406 88 418 42 l 396 88 q 254 -14 326 14 q 92 42 151 -12 q 33 189 33 96 q 183 357 33 332 l 389 392 l 389 432 q 370 494 389 475 q 310 513 351 513 q 220 494 268 513 q 110 438 172 476 l 96 447 l 71 590 q 206 644 133 625 q 347 664 278 664 m 269 265 q 238 249 249 261 q 228 211 228 236 q 245 160 228 178 q 293 142 263 142 q 388 189 338 142 l 389 289 l 269 265 m 249 1024 q 513 807 369 915 l 461 724 l 440 722 q 154 882 292 803 l 150 901 l 229 1022 l 249 1024 z "},"ả":{"ha":681,"x_min":33,"x_max":650,"o":"m 347 664 q 526 615 463 664 q 590 474 590 565 q 588 400 590 442 q 583 321 585 358 q 576 183 576 221 q 583 156 576 164 q 604 147 589 147 q 635 153 617 147 l 650 140 l 631 25 q 518 -12 585 -7 q 447 17 476 -8 q 406 88 418 42 l 396 88 q 254 -14 326 14 q 92 42 151 -12 q 33 189 33 96 q 183 357 33 332 l 389 392 l 389 432 q 370 494 389 475 q 310 513 351 513 q 220 494 268 513 q 110 438 172 476 l 96 447 l 71 590 q 206 644 133 625 q 347 664 278 664 m 269 265 q 238 249 249 261 q 228 211 228 236 q 245 160 228 178 q 293 142 263 142 q 388 189 338 142 l 389 289 l 269 265 m 267 800 q 322 853 301 825 q 342 903 342 882 q 330 926 342 918 q 300 935 318 935 q 254 925 279 935 q 207 899 229 915 l 172 956 q 248 1012 206 992 q 332 1032 290 1032 q 422 1002 386 1032 q 457 924 457 972 q 440 869 457 894 q 376 803 422 843 l 410 746 l 333 700 l 267 800 z "},"ȃ":{"ha":681,"x_min":33,"x_max":650,"o":"m 347 664 q 526 615 463 664 q 590 474 590 565 q 588 400 590 442 q 583 321 585 358 q 576 183 576 221 q 583 156 576 164 q 604 147 589 147 q 635 153 617 147 l 650 140 l 631 25 q 518 -12 585 -7 q 447 17 476 -8 q 406 88 418 42 l 396 88 q 254 -14 326 14 q 92 42 151 -12 q 33 189 33 96 q 183 357 33 332 l 389 392 l 389 432 q 370 494 389 475 q 310 513 351 513 q 220 494 268 513 q 110 438 172 476 l 96 447 l 71 590 q 206 644 133 625 q 347 664 278 664 m 269 265 q 238 249 249 261 q 228 211 228 236 q 245 160 228 178 q 293 142 263 142 q 388 189 338 142 l 389 289 l 269 265 m 107 835 q 188 965 129 914 q 338 1015 246 1015 q 482 964 428 1015 q 556 835 536 913 l 504 764 l 474 764 q 417 835 456 810 q 331 861 379 861 q 244 835 282 861 q 189 764 207 810 l 160 764 l 107 835 z "},"ā":{"ha":681,"x_min":33,"x_max":650,"o":"m 347 664 q 526 615 463 664 q 590 474 590 565 q 588 400 590 442 q 583 321 585 358 q 576 183 576 221 q 583 156 576 164 q 604 147 589 147 q 635 153 617 147 l 650 140 l 631 25 q 518 -12 585 -7 q 447 17 476 -8 q 406 88 418 42 l 396 88 q 254 -14 326 14 q 92 42 151 -12 q 33 189 33 96 q 183 357 33 332 l 389 392 l 389 432 q 370 494 389 475 q 310 513 351 513 q 220 494 268 513 q 110 438 172 476 l 96 447 l 71 590 q 206 644 133 625 q 347 664 278 664 m 269 265 q 238 249 249 261 q 228 211 228 236 q 245 160 228 178 q 293 142 263 142 q 388 189 338 142 l 389 289 l 269 265 m 538 919 l 526 797 l 140 797 l 126 813 l 136 935 l 522 935 l 538 919 z "},"ą":{"ha":681,"x_min":33,"x_max":654,"o":"m 347 664 q 526 615 463 664 q 590 474 590 565 q 588 400 590 442 q 583 321 585 358 q 576 183 576 221 q 583 156 576 164 q 604 147 589 147 q 635 153 617 147 l 650 140 l 631 25 q 518 -12 585 -7 q 447 17 476 -8 q 406 88 418 42 l 396 88 q 254 -14 326 14 q 92 42 151 -12 q 33 189 33 96 q 183 357 33 332 l 389 392 l 389 432 q 370 494 389 475 q 310 513 351 513 q 220 494 268 513 q 110 438 172 476 l 96 447 l 71 590 q 206 644 133 625 q 347 664 278 664 m 269 265 q 238 249 249 261 q 228 211 228 236 q 245 160 228 178 q 293 142 263 142 q 388 189 338 142 l 389 289 l 269 265 m 501 -303 q 390 -269 432 -303 q 349 -178 349 -235 q 384 -84 349 -131 q 517 25 419 -37 l 631 25 q 510 -97 538 -65 q 482 -150 482 -129 q 518 -181 482 -181 q 618 -146 557 -181 l 629 -149 l 654 -247 q 501 -303 576 -303 z "},"å":{"ha":681,"x_min":33,"x_max":650,"o":"m 347 664 q 526 615 463 664 q 590 474 590 565 q 588 400 590 442 q 583 321 585 358 q 576 183 576 221 q 583 156 576 164 q 604 147 589 147 q 635 153 617 147 l 650 140 l 631 25 q 518 -12 585 -7 q 447 17 476 -8 q 406 88 418 42 l 396 88 q 254 -14 326 14 q 92 42 151 -12 q 33 189 33 96 q 183 357 33 332 l 389 392 l 389 432 q 370 494 389 475 q 310 513 351 513 q 220 494 268 513 q 110 438 172 476 l 96 447 l 71 590 q 206 644 133 625 q 347 664 278 664 m 269 265 q 238 249 249 261 q 228 211 228 236 q 245 160 228 178 q 293 142 263 142 q 388 189 338 142 l 389 289 l 269 265 m 336 1024 q 439 989 404 1024 q 474 890 474 954 q 435 783 474 821 q 328 744 397 744 q 226 780 261 744 q 190 882 190 815 q 228 988 190 951 q 336 1024 265 1024 m 331 933 q 292 922 304 933 q 279 886 279 910 q 292 846 279 858 q 333 833 306 833 q 372 845 360 833 q 385 882 385 857 q 372 921 385 908 q 331 933 360 933 z "},"ǻ":{"ha":681,"x_min":33,"x_max":650,"o":"m 347 664 q 526 615 463 664 q 590 474 590 565 q 588 400 590 442 q 583 321 585 358 q 576 183 576 221 q 583 156 576 164 q 604 147 589 147 q 635 153 617 147 l 650 140 l 631 25 q 518 -12 585 -7 q 447 17 476 -8 q 406 88 418 42 l 396 88 q 254 -14 326 14 q 92 42 151 -12 q 33 189 33 96 q 183 357 33 332 l 389 392 l 389 432 q 370 494 389 475 q 310 513 351 513 q 220 494 268 513 q 110 438 172 476 l 96 447 l 71 590 q 206 644 133 625 q 347 664 278 664 m 269 265 q 238 249 249 261 q 228 211 228 236 q 245 160 228 178 q 293 142 263 142 q 388 189 338 142 l 389 289 l 269 265 m 338 1022 q 440 988 406 1022 q 475 889 475 953 q 437 781 475 819 q 329 743 399 743 q 227 778 263 743 q 192 881 192 814 q 229 986 192 950 q 338 1022 267 1022 m 332 932 q 293 920 306 932 q 281 885 281 908 q 294 844 281 857 q 335 832 307 832 q 374 844 361 832 q 386 881 386 856 q 374 919 386 907 q 332 932 361 932 m 225 1211 l 299 1089 l 295 1070 q 1 921 167 1001 l -19 924 l -67 1010 q 203 1213 74 1108 l 225 1211 z "},"ã":{"ha":681,"x_min":33,"x_max":650,"o":"m 347 664 q 526 615 463 664 q 590 474 590 565 q 588 400 590 442 q 583 321 585 358 q 576 183 576 221 q 583 156 576 164 q 604 147 589 147 q 635 153 617 147 l 650 140 l 631 25 q 518 -12 585 -7 q 447 17 476 -8 q 406 88 418 42 l 396 88 q 254 -14 326 14 q 92 42 151 -12 q 33 189 33 96 q 183 357 33 332 l 389 392 l 389 432 q 370 494 389 475 q 310 513 351 513 q 220 494 268 513 q 110 438 172 476 l 96 447 l 71 590 q 206 644 133 625 q 347 664 278 664 m 269 265 q 238 249 249 261 q 228 211 228 236 q 245 160 228 178 q 293 142 263 142 q 388 189 338 142 l 389 289 l 269 265 m 586 933 l 586 915 l 483 778 l 464 769 q 400 783 438 772 q 349 796 363 793 q 250 818 275 818 q 215 804 232 818 q 183 771 199 790 q 160 743 167 751 l 140 743 l 76 807 l 76 825 l 179 963 l 199 969 q 319 942 229 965 q 413 921 393 921 q 447 935 431 921 q 478 968 463 949 q 503 997 494 988 l 522 997 l 586 933 z "},"æ":{"ha":974,"x_min":32,"x_max":939,"o":"m 686 663 q 872 592 804 663 q 939 392 939 521 q 938 350 939 364 l 918 325 l 560 292 q 603 181 567 215 q 713 146 639 146 q 801 157 753 146 q 896 189 850 168 l 914 178 l 881 21 q 788 -6 838 4 q 693 -15 738 -15 q 446 97 525 -15 q 281 -14 371 22 q 100 39 168 -12 q 32 185 32 90 q 70 302 32 254 q 182 356 108 350 l 382 374 l 382 432 q 364 493 382 474 q 304 513 346 513 q 217 494 265 513 q 107 438 169 476 l 92 446 l 67 590 q 196 644 126 625 q 332 664 265 664 q 503 600 447 664 q 686 663 576 663 m 671 519 q 590 483 622 519 q 558 392 558 447 l 746 414 q 671 519 754 519 m 292 143 q 337 155 314 143 q 396 196 360 167 q 383 272 388 239 l 275 258 q 240 242 250 254 q 229 206 229 229 q 245 160 229 176 q 292 143 261 143 z "},"ǽ":{"ha":974,"x_min":32,"x_max":939,"o":"m 686 663 q 872 592 804 663 q 939 392 939 521 q 938 350 939 364 l 918 325 l 560 292 q 603 181 567 215 q 713 146 639 146 q 801 157 753 146 q 896 189 850 168 l 914 178 l 881 21 q 788 -6 838 4 q 693 -15 738 -15 q 446 97 525 -15 q 281 -14 371 22 q 100 39 168 -12 q 32 185 32 90 q 70 302 32 254 q 182 356 108 350 l 382 374 l 382 432 q 364 493 382 474 q 304 513 346 513 q 217 494 265 513 q 107 438 169 476 l 92 446 l 67 590 q 196 644 126 625 q 332 664 265 664 q 503 600 447 664 q 686 663 576 663 m 671 519 q 590 483 622 519 q 558 392 558 447 l 746 414 q 671 519 754 519 m 292 143 q 337 155 314 143 q 396 196 360 167 q 383 272 388 239 l 275 258 q 240 242 250 254 q 229 206 229 229 q 245 160 229 176 q 292 143 261 143 m 622 1022 l 701 901 l 697 882 q 411 722 560 803 l 392 724 l 340 807 q 603 1024 486 918 l 622 1022 z "},"b":{"ha":733,"x_min":78,"x_max":700,"o":"m 444 658 q 633 575 567 658 q 700 343 700 492 q 613 78 700 171 q 374 -15 526 -15 q 206 18 297 -15 l 100 -17 l 78 4 l 89 265 l 79 960 l 299 975 l 292 557 l 299 557 q 369 617 335 593 q 444 658 404 642 m 367 125 q 494 310 494 125 q 382 483 492 483 q 290 444 335 483 l 288 293 l 289 142 q 367 125 333 125 z "},"c":{"ha":533,"x_min":32,"x_max":525,"o":"m 354 664 q 525 631 450 664 l 489 458 l 472 451 q 408 478 435 469 q 354 486 381 486 q 270 449 299 486 q 242 338 242 411 q 368 157 242 157 q 497 186 418 157 l 514 174 l 492 8 q 319 -15 408 -15 q 108 72 183 -15 q 32 315 32 158 q 117 572 32 479 q 354 664 201 664 z "},"ć":{"ha":533,"x_min":32,"x_max":543,"o":"m 354 664 q 525 631 450 664 l 489 458 l 472 451 q 408 478 435 469 q 354 486 381 486 q 270 449 299 486 q 242 338 242 411 q 368 157 242 157 q 497 186 418 157 l 514 174 l 492 8 q 319 -15 408 -15 q 108 72 183 -15 q 32 315 32 158 q 117 572 32 479 q 354 664 201 664 m 464 1022 l 543 901 l 539 882 q 253 722 401 803 l 233 724 l 182 807 q 444 1024 328 918 l 464 1022 z "},"č":{"ha":533,"x_min":32,"x_max":563,"o":"m 354 664 q 525 631 450 664 l 489 458 l 472 451 q 408 478 435 469 q 354 486 381 486 q 270 449 299 486 q 242 338 242 411 q 368 157 242 157 q 497 186 418 157 l 514 174 l 492 8 q 319 -15 408 -15 q 108 72 183 -15 q 32 315 32 158 q 117 572 32 479 q 354 664 201 664 m 563 931 q 354 729 476 854 l 311 729 q 103 931 218 826 l 157 1013 l 178 1013 q 332 893 285 936 q 486 1013 376 931 l 508 1013 l 563 931 z "},"ç":{"ha":533,"x_min":32,"x_max":525,"o":"m 354 664 q 525 631 450 664 l 489 458 l 472 451 q 408 478 435 469 q 354 486 381 486 q 270 449 299 486 q 242 338 242 411 q 368 157 242 157 q 497 186 418 157 l 514 174 l 492 8 q 319 -15 408 -15 q 108 72 183 -15 q 32 315 32 158 q 117 572 32 479 q 354 664 201 664 m 353 -62 l 400 -89 q 445 -126 432 -106 q 458 -174 458 -147 q 420 -251 458 -221 q 318 -282 382 -282 q 199 -246 257 -282 l 213 -157 l 222 -153 q 265 -183 243 -172 q 304 -193 286 -193 q 333 -168 333 -193 q 313 -143 333 -154 l 244 -106 l 276 42 l 375 42 l 353 -62 z "},"ḉ":{"ha":533,"x_min":32,"x_max":543,"o":"m 354 664 q 525 631 450 664 l 489 458 l 472 451 q 408 478 435 469 q 354 486 381 486 q 270 449 299 486 q 242 338 242 411 q 368 157 242 157 q 497 186 418 157 l 514 174 l 492 8 q 319 -15 408 -15 q 108 72 183 -15 q 32 315 32 158 q 117 572 32 479 q 354 664 201 664 m 353 -62 l 400 -89 q 445 -126 432 -106 q 458 -174 458 -147 q 420 -251 458 -221 q 318 -282 382 -282 q 199 -246 257 -282 l 213 -157 l 222 -153 q 265 -183 243 -172 q 304 -193 286 -193 q 333 -168 333 -193 q 313 -143 333 -154 l 244 -106 l 276 42 l 375 42 l 353 -62 m 464 1022 l 543 901 l 539 882 q 253 722 401 803 l 233 724 l 182 807 q 444 1024 328 918 l 464 1022 z "},"ĉ":{"ha":533,"x_min":32,"x_max":563,"o":"m 354 664 q 525 631 450 664 l 489 458 l 472 451 q 408 478 435 469 q 354 486 381 486 q 270 449 299 486 q 242 338 242 411 q 368 157 242 157 q 497 186 418 157 l 514 174 l 492 8 q 319 -15 408 -15 q 108 72 183 -15 q 32 315 32 158 q 117 572 32 479 q 354 664 201 664 m 103 815 q 311 1017 189 892 l 354 1017 q 563 815 447 919 l 508 733 l 488 733 q 333 853 381 810 q 179 733 289 815 l 157 733 l 103 815 z "},"ċ":{"ha":533,"x_min":32,"x_max":525,"o":"m 354 664 q 525 631 450 664 l 489 458 l 472 451 q 408 478 435 469 q 354 486 381 486 q 270 449 299 486 q 242 338 242 411 q 368 157 242 157 q 497 186 418 157 l 514 174 l 492 8 q 319 -15 408 -15 q 108 72 183 -15 q 32 315 32 158 q 117 572 32 479 q 354 664 201 664 m 336 983 q 416 954 388 983 q 444 874 444 925 q 413 785 444 818 q 328 753 381 753 q 247 782 275 753 q 219 864 219 811 q 251 951 219 918 q 336 983 282 983 z "},"d":{"ha":736,"x_min":32,"x_max":715,"o":"m 642 288 l 644 185 q 650 156 644 164 q 669 147 656 147 q 700 153 682 147 l 715 140 l 696 25 q 583 -12 650 -7 q 508 17 539 -8 q 463 85 476 42 l 451 85 q 317 -11 394 28 q 107 76 182 -11 q 32 318 32 164 q 120 573 32 485 q 364 661 208 661 q 438 654 404 661 l 435 960 l 653 975 l 642 288 m 354 514 q 267 478 296 514 q 238 361 238 443 q 265 206 238 256 q 349 156 293 156 q 442 201 397 156 l 443 267 l 440 493 q 354 514 394 514 z "},"ð":{"ha":696,"x_min":39,"x_max":654,"o":"m 442 828 q 601 606 547 728 q 654 346 654 483 q 572 78 654 172 q 336 -15 489 -15 q 116 67 193 -15 q 39 310 39 150 q 116 553 39 468 q 339 638 193 638 q 378 636 365 638 q 283 732 342 686 l 125 636 l 107 643 l 63 726 l 182 799 q 61 858 138 822 l 61 883 l 201 986 l 215 986 q 353 901 293 944 l 499 989 l 517 983 l 561 900 l 442 828 m 351 126 q 431 169 408 126 q 454 322 454 213 q 444 458 454 400 q 351 488 406 488 q 265 449 290 488 q 239 313 239 410 q 266 168 239 210 q 351 126 293 126 z "},"ď":{"ha":849,"x_min":32,"x_max":886,"o":"m 642 288 l 644 185 q 650 156 644 164 q 669 147 656 147 q 700 153 682 147 l 715 140 l 696 25 q 583 -12 650 -7 q 508 17 539 -8 q 463 85 476 42 l 451 85 q 317 -11 394 28 q 107 76 182 -11 q 32 318 32 164 q 120 573 32 485 q 364 661 208 661 q 438 654 404 661 l 435 960 l 653 975 l 642 288 m 886 878 l 835 582 l 740 567 l 725 579 l 717 882 l 874 892 l 886 878 m 354 514 q 267 478 296 514 q 238 361 238 443 q 265 206 238 256 q 349 156 293 156 q 442 201 397 156 l 443 267 l 440 493 q 354 514 394 514 z "},"đ":{"ha":744,"x_min":32,"x_max":753,"o":"m 649 743 l 642 288 l 644 185 q 650 156 644 164 q 669 147 656 147 q 700 153 682 147 l 715 140 l 696 25 q 583 -12 650 -7 q 508 17 539 -8 q 463 85 476 42 l 451 85 q 317 -11 394 28 q 107 76 182 -11 q 32 318 32 164 q 120 573 32 485 q 364 661 208 661 q 438 654 404 661 l 436 743 l 293 743 l 279 757 l 288 860 l 436 860 l 435 960 l 653 975 l 651 860 l 739 860 l 753 844 l 744 743 l 649 743 m 443 267 l 440 493 q 354 514 394 514 q 267 478 296 514 q 238 361 238 443 q 265 206 238 256 q 349 156 293 156 q 442 201 397 156 l 443 267 z "},"ḍ":{"ha":736,"x_min":32,"x_max":715,"o":"m 642 288 l 644 185 q 650 156 644 164 q 669 147 656 147 q 700 153 682 147 l 715 140 l 696 25 q 583 -12 650 -7 q 508 17 539 -8 q 463 85 476 42 l 451 85 q 317 -11 394 28 q 107 76 182 -11 q 32 318 32 164 q 120 573 32 485 q 364 661 208 661 q 438 654 404 661 l 435 960 l 653 975 l 642 288 m 354 514 q 267 478 296 514 q 238 361 238 443 q 265 206 238 256 q 349 156 293 156 q 442 201 397 156 l 443 267 l 440 493 q 354 514 394 514 m 374 -61 q 453 -90 425 -61 q 482 -171 482 -119 q 450 -259 482 -226 q 365 -292 418 -292 q 285 -262 313 -292 q 257 -181 257 -233 q 288 -94 257 -126 q 374 -61 319 -61 z "},"ḏ":{"ha":736,"x_min":32,"x_max":715,"o":"m 642 288 l 644 185 q 650 156 644 164 q 669 147 656 147 q 700 153 682 147 l 715 140 l 696 25 q 583 -12 650 -7 q 508 17 539 -8 q 463 85 476 42 l 451 85 q 317 -11 394 28 q 107 76 182 -11 q 32 318 32 164 q 120 573 32 485 q 364 661 208 661 q 438 654 404 661 l 435 960 l 653 975 l 642 288 m 354 514 q 267 478 296 514 q 238 361 238 443 q 265 206 238 256 q 349 156 293 156 q 442 201 397 156 l 443 267 l 440 493 q 354 514 394 514 m 554 -122 l 544 -244 l 197 -244 l 183 -229 l 193 -108 l 540 -108 l 554 -122 z "},"ǆ":{"ha":1333,"x_min":32,"x_max":1306,"o":"m 642 288 l 644 185 q 650 156 644 164 q 669 147 656 147 q 700 153 682 147 l 715 140 l 696 25 q 583 -12 650 -7 q 508 17 539 -8 q 463 85 476 42 l 451 85 q 317 -11 394 28 q 107 76 182 -11 q 32 318 32 164 q 120 573 32 485 q 364 661 208 661 q 438 654 404 661 l 435 960 l 653 975 l 642 288 m 354 514 q 267 478 296 514 q 238 361 238 443 q 265 206 238 256 q 349 156 293 156 q 442 201 397 156 l 443 267 l 440 493 q 354 514 394 514 m 933 650 l 1213 650 l 1292 651 l 1293 521 l 1000 139 l 1171 139 l 1294 149 l 1306 135 l 1292 -4 l 1115 0 l 871 0 l 769 -6 l 769 124 l 1065 511 l 904 511 l 782 501 l 769 515 l 785 653 l 933 650 m 1265 931 q 1057 729 1179 854 l 1014 729 q 806 931 921 826 l 860 1013 l 881 1013 q 1035 893 988 936 q 1189 1013 1079 931 l 1211 1013 l 1265 931 z "},"e":{"ha":663,"x_min":32,"x_max":629,"o":"m 597 289 l 233 286 q 283 179 243 214 q 397 144 324 144 q 592 188 471 144 l 608 176 l 575 19 q 374 -15 464 -15 q 123 75 214 -15 q 32 324 32 165 q 119 573 32 482 q 357 664 207 664 q 558 594 486 664 q 629 401 629 525 q 621 317 629 361 l 597 289 m 439 425 q 356 521 439 521 q 278 490 308 521 q 236 400 247 458 l 436 406 l 439 425 z "},"é":{"ha":663,"x_min":32,"x_max":629,"o":"m 597 289 l 233 286 q 283 179 243 214 q 397 144 324 144 q 592 188 471 144 l 608 176 l 575 19 q 374 -15 464 -15 q 123 75 214 -15 q 32 324 32 165 q 119 573 32 482 q 357 664 207 664 q 558 594 486 664 q 629 401 629 525 q 621 317 629 361 l 597 289 m 439 425 q 356 521 439 521 q 278 490 308 521 q 236 400 247 458 l 436 406 l 439 425 m 476 1021 l 556 900 l 551 881 q 265 721 414 801 l 246 722 l 194 806 q 457 1022 340 917 l 476 1021 z "},"ĕ":{"ha":663,"x_min":32,"x_max":629,"o":"m 597 289 l 233 286 q 283 179 243 214 q 397 144 324 144 q 592 188 471 144 l 608 176 l 575 19 q 374 -15 464 -15 q 123 75 214 -15 q 32 324 32 165 q 119 573 32 482 q 357 664 207 664 q 558 594 486 664 q 629 401 629 525 q 621 317 629 361 l 597 289 m 439 425 q 356 521 439 521 q 278 490 308 521 q 236 400 247 458 l 436 406 l 439 425 m 571 918 q 490 788 549 839 q 340 738 432 738 q 196 789 250 738 q 122 918 142 840 l 174 989 l 204 989 q 260 917 222 943 q 347 892 299 892 q 433 917 396 892 q 489 989 471 943 l 518 989 l 571 918 z "},"ě":{"ha":663,"x_min":32,"x_max":629,"o":"m 597 289 l 233 286 q 283 179 243 214 q 397 144 324 144 q 592 188 471 144 l 608 176 l 575 19 q 374 -15 464 -15 q 123 75 214 -15 q 32 324 32 165 q 119 573 32 482 q 357 664 207 664 q 558 594 486 664 q 629 401 629 525 q 621 317 629 361 l 597 289 m 439 425 q 356 521 439 521 q 278 490 308 521 q 236 400 247 458 l 436 406 l 439 425 m 575 929 q 367 728 489 853 l 324 728 q 115 929 231 825 l 169 1011 l 190 1011 q 344 892 297 935 q 499 1011 389 929 l 521 1011 l 575 929 z "},"ḝ":{"ha":663,"x_min":32,"x_max":629,"o":"m 597 289 l 233 286 q 283 179 243 214 q 397 144 324 144 q 592 188 471 144 l 608 176 l 575 19 q 374 -15 464 -15 q 123 75 214 -15 q 32 324 32 165 q 119 573 32 482 q 357 664 207 664 q 558 594 486 664 q 629 401 629 525 q 621 317 629 361 l 597 289 m 439 425 q 356 521 439 521 q 278 490 308 521 q 236 400 247 458 l 436 406 l 439 425 m 403 -62 l 450 -89 q 495 -126 482 -106 q 508 -174 508 -147 q 470 -251 508 -221 q 368 -282 432 -282 q 249 -246 307 -282 l 263 -157 l 272 -153 q 315 -183 293 -172 q 354 -193 336 -193 q 383 -168 383 -193 q 363 -143 383 -154 l 294 -106 l 326 42 l 425 42 l 403 -62 m 571 918 q 490 788 549 839 q 340 738 432 738 q 196 789 250 738 q 122 918 142 840 l 174 989 l 204 989 q 260 917 222 943 q 347 892 299 892 q 433 917 396 892 q 489 989 471 943 l 518 989 l 571 918 z "},"ê":{"ha":663,"x_min":32,"x_max":629,"o":"m 597 289 l 233 286 q 283 179 243 214 q 397 144 324 144 q 592 188 471 144 l 608 176 l 575 19 q 374 -15 464 -15 q 123 75 214 -15 q 32 324 32 165 q 119 573 32 482 q 357 664 207 664 q 558 594 486 664 q 629 401 629 525 q 621 317 629 361 l 597 289 m 439 425 q 356 521 439 521 q 278 490 308 521 q 236 400 247 458 l 436 406 l 439 425 m 115 814 q 324 1015 201 890 l 367 1015 q 575 814 460 918 l 521 732 l 500 732 q 346 851 393 808 q 192 732 301 814 l 169 732 l 115 814 z "},"ế":{"ha":663,"x_min":32,"x_max":632,"o":"m 597 289 l 233 286 q 283 179 243 214 q 397 144 324 144 q 592 188 471 144 l 608 176 l 575 19 q 374 -15 464 -15 q 123 75 214 -15 q 32 324 32 165 q 119 573 32 482 q 357 664 207 664 q 558 594 486 664 q 629 401 629 525 q 621 317 629 361 l 597 289 m 439 425 q 356 521 439 521 q 278 490 308 521 q 236 400 247 458 l 436 406 l 439 425 m 626 1089 l 632 1072 l 514 921 l 500 921 l 424 975 l 504 1131 l 519 1139 l 626 1089 m 128 818 q 325 971 249 901 l 367 971 q 563 818 447 897 l 524 732 l 503 732 q 346 818 431 769 q 189 732 261 769 l 168 732 l 128 818 z "},"ệ":{"ha":663,"x_min":32,"x_max":629,"o":"m 597 289 l 233 286 q 283 179 243 214 q 397 144 324 144 q 592 188 471 144 l 608 176 l 575 19 q 374 -15 464 -15 q 123 75 214 -15 q 32 324 32 165 q 119 573 32 482 q 357 664 207 664 q 558 594 486 664 q 629 401 629 525 q 621 317 629 361 l 597 289 m 439 425 q 356 521 439 521 q 278 490 308 521 q 236 400 247 458 l 436 406 l 439 425 m 372 -61 q 452 -90 424 -61 q 481 -171 481 -119 q 449 -259 481 -226 q 364 -292 417 -292 q 283 -262 311 -292 q 256 -181 256 -233 q 287 -94 256 -126 q 372 -61 318 -61 m 115 814 q 324 1015 201 890 l 367 1015 q 575 814 460 918 l 521 732 l 500 732 q 346 851 393 808 q 192 732 301 814 l 169 732 l 115 814 z "},"ề":{"ha":663,"x_min":32,"x_max":629,"o":"m 597 289 l 233 286 q 283 179 243 214 q 397 144 324 144 q 592 188 471 144 l 608 176 l 575 19 q 374 -15 464 -15 q 123 75 214 -15 q 32 324 32 165 q 119 573 32 482 q 357 664 207 664 q 558 594 486 664 q 629 401 629 525 q 621 317 629 361 l 597 289 m 439 425 q 356 521 439 521 q 278 490 308 521 q 236 400 247 458 l 436 406 l 439 425 m 381 1072 l 385 1089 l 492 1139 l 507 1131 l 589 975 l 513 921 l 499 921 l 381 1072 m 128 818 q 325 971 249 901 l 367 971 q 563 818 447 897 l 524 732 l 503 732 q 346 818 431 769 q 189 732 261 769 l 168 732 l 128 818 z "},"ể":{"ha":663,"x_min":32,"x_max":640,"o":"m 597 289 l 233 286 q 283 179 243 214 q 397 144 324 144 q 592 188 471 144 l 608 176 l 575 19 q 374 -15 464 -15 q 123 75 214 -15 q 32 324 32 165 q 119 573 32 482 q 357 664 207 664 q 558 594 486 664 q 629 401 629 525 q 621 317 629 361 l 597 289 m 439 425 q 356 521 439 521 q 278 490 308 521 q 236 400 247 458 l 436 406 l 439 425 m 128 847 q 324 1000 233 918 l 365 1000 q 563 847 460 915 l 524 760 l 503 760 l 440 793 q 397 817 421 804 q 346 846 374 829 l 188 760 l 167 760 l 128 847 m 458 1032 q 511 1083 492 1056 q 530 1130 530 1110 q 519 1153 530 1145 q 490 1161 507 1161 q 447 1151 470 1161 q 402 1126 423 1142 l 369 1180 q 441 1234 400 1215 q 521 1253 481 1253 q 606 1225 572 1253 q 640 1150 640 1196 q 623 1098 640 1122 q 563 1035 607 1073 l 595 981 l 522 937 l 458 1032 z "},"ễ":{"ha":663,"x_min":32,"x_max":629,"o":"m 597 289 l 233 286 q 283 179 243 214 q 397 144 324 144 q 592 188 471 144 l 608 176 l 575 19 q 374 -15 464 -15 q 123 75 214 -15 q 32 324 32 165 q 119 573 32 482 q 357 664 207 664 q 558 594 486 664 q 629 401 629 525 q 621 317 629 361 l 597 289 m 439 425 q 356 521 439 521 q 278 490 308 521 q 236 400 247 458 l 436 406 l 439 425 m 129 847 q 325 1000 235 918 l 367 1000 q 564 847 461 915 l 525 760 l 504 760 l 442 793 q 399 817 422 804 q 347 846 375 829 l 189 760 l 168 760 l 129 847 m 599 1194 l 599 1175 l 494 1038 l 475 1031 q 411 1044 449 1033 q 360 1057 374 1054 q 263 1079 286 1079 q 224 1063 242 1079 q 172 1004 207 1046 l 153 1004 l 89 1068 l 89 1086 l 193 1224 l 211 1231 q 332 1203 242 1226 q 425 1182 404 1182 q 460 1197 443 1182 q 493 1231 476 1211 q 515 1257 510 1250 l 533 1257 l 599 1194 z "},"ȅ":{"ha":663,"x_min":32,"x_max":629,"o":"m 597 289 l 233 286 q 283 179 243 214 q 397 144 324 144 q 592 188 471 144 l 608 176 l 575 19 q 374 -15 464 -15 q 123 75 214 -15 q 32 324 32 165 q 119 573 32 482 q 357 664 207 664 q 558 594 486 664 q 629 401 629 525 q 621 317 629 361 l 597 289 m 439 425 q 356 521 439 521 q 278 490 308 521 q 236 400 247 458 l 436 406 l 439 425 m 357 776 q 192 1025 257 921 l 176 1029 l 75 958 l 71 942 q 272 728 154 846 l 290 722 l 357 776 m 576 776 q 410 1025 500 883 l 394 1029 l 293 958 l 290 942 q 492 728 374 846 l 510 722 l 576 776 z "},"ë":{"ha":663,"x_min":32,"x_max":629,"o":"m 597 289 l 233 286 q 283 179 243 214 q 397 144 324 144 q 592 188 471 144 l 608 176 l 575 19 q 374 -15 464 -15 q 123 75 214 -15 q 32 324 32 165 q 119 573 32 482 q 357 664 207 664 q 558 594 486 664 q 629 401 629 525 q 621 317 629 361 l 597 289 m 439 425 q 356 521 439 521 q 278 490 308 521 q 236 400 247 458 l 436 406 l 439 425 m 222 965 q 292 940 267 965 q 318 868 318 914 q 290 791 318 819 q 214 763 263 763 q 142 788 167 763 q 118 860 118 813 q 146 937 118 908 q 222 965 174 965 m 475 965 q 544 940 519 965 q 569 868 569 914 q 542 791 569 819 q 467 763 514 763 q 395 788 419 763 q 371 860 371 813 q 399 937 371 908 q 475 965 426 965 z "},"ė":{"ha":663,"x_min":32,"x_max":629,"o":"m 597 289 l 233 286 q 283 179 243 214 q 397 144 324 144 q 592 188 471 144 l 608 176 l 575 19 q 374 -15 464 -15 q 123 75 214 -15 q 32 324 32 165 q 119 573 32 482 q 357 664 207 664 q 558 594 486 664 q 629 401 629 525 q 621 317 629 361 l 597 289 m 439 425 q 356 521 439 521 q 278 490 308 521 q 236 400 247 458 l 436 406 l 439 425 m 349 982 q 428 953 400 982 q 457 872 457 924 q 425 784 457 817 q 340 751 393 751 q 260 781 288 751 q 232 863 232 810 q 263 949 232 917 q 349 982 294 982 z "},"ẹ":{"ha":663,"x_min":32,"x_max":629,"o":"m 597 289 l 233 286 q 283 179 243 214 q 397 144 324 144 q 592 188 471 144 l 608 176 l 575 19 q 374 -15 464 -15 q 123 75 214 -15 q 32 324 32 165 q 119 573 32 482 q 357 664 207 664 q 558 594 486 664 q 629 401 629 525 q 621 317 629 361 l 597 289 m 439 425 q 356 521 439 521 q 278 490 308 521 q 236 400 247 458 l 436 406 l 439 425 m 372 -61 q 452 -90 424 -61 q 481 -171 481 -119 q 449 -259 481 -226 q 364 -292 417 -292 q 283 -262 311 -292 q 256 -181 256 -233 q 287 -94 256 -126 q 372 -61 318 -61 z "},"è":{"ha":663,"x_min":32,"x_max":629,"o":"m 597 289 l 233 286 q 283 179 243 214 q 397 144 324 144 q 592 188 471 144 l 608 176 l 575 19 q 374 -15 464 -15 q 123 75 214 -15 q 32 324 32 165 q 119 573 32 482 q 357 664 207 664 q 558 594 486 664 q 629 401 629 525 q 621 317 629 361 l 597 289 m 439 425 q 356 521 439 521 q 278 490 308 521 q 236 400 247 458 l 436 406 l 439 425 m 261 1022 q 525 806 382 914 l 474 722 l 453 721 q 167 881 304 801 l 163 900 l 242 1021 l 261 1022 z "},"ẻ":{"ha":663,"x_min":32,"x_max":629,"o":"m 597 289 l 233 286 q 283 179 243 214 q 397 144 324 144 q 592 188 471 144 l 608 176 l 575 19 q 374 -15 464 -15 q 123 75 214 -15 q 32 324 32 165 q 119 573 32 482 q 357 664 207 664 q 558 594 486 664 q 629 401 629 525 q 621 317 629 361 l 597 289 m 439 425 q 356 521 439 521 q 278 490 308 521 q 236 400 247 458 l 436 406 l 439 425 m 279 799 q 334 852 314 824 q 354 901 354 881 q 342 925 354 917 q 313 933 331 933 q 267 924 292 933 q 219 897 242 914 l 185 954 q 260 1010 218 990 q 344 1031 303 1031 q 434 1001 399 1031 q 469 922 469 971 q 452 867 469 893 q 389 801 435 842 l 422 744 l 346 699 l 279 799 z "},"ȇ":{"ha":663,"x_min":32,"x_max":629,"o":"m 597 289 l 233 286 q 283 179 243 214 q 397 144 324 144 q 592 188 471 144 l 608 176 l 575 19 q 374 -15 464 -15 q 123 75 214 -15 q 32 324 32 165 q 119 573 32 482 q 357 664 207 664 q 558 594 486 664 q 629 401 629 525 q 621 317 629 361 l 597 289 m 439 425 q 356 521 439 521 q 278 490 308 521 q 236 400 247 458 l 436 406 l 439 425 m 119 833 q 200 963 142 913 q 350 1014 258 1014 q 494 963 440 1014 q 568 833 549 911 l 517 763 l 486 763 q 430 834 468 808 q 343 860 392 860 q 257 834 294 860 q 201 763 219 808 l 172 763 l 119 833 z "},"ē":{"ha":663,"x_min":32,"x_max":629,"o":"m 597 289 l 233 286 q 283 179 243 214 q 397 144 324 144 q 592 188 471 144 l 608 176 l 575 19 q 374 -15 464 -15 q 123 75 214 -15 q 32 324 32 165 q 119 573 32 482 q 357 664 207 664 q 558 594 486 664 q 629 401 629 525 q 621 317 629 361 l 597 289 m 439 425 q 356 521 439 521 q 278 490 308 521 q 236 400 247 458 l 436 406 l 439 425 m 550 918 l 539 796 l 153 796 l 139 811 l 149 933 l 535 933 l 550 918 z "},"ḗ":{"ha":663,"x_min":32,"x_max":629,"o":"m 597 289 l 233 286 q 283 179 243 214 q 397 144 324 144 q 592 188 471 144 l 608 176 l 575 19 q 374 -15 464 -15 q 123 75 214 -15 q 32 324 32 165 q 119 573 32 482 q 357 664 207 664 q 558 594 486 664 q 629 401 629 525 q 621 317 629 361 l 597 289 m 439 425 q 356 521 439 521 q 278 490 308 521 q 236 400 247 458 l 436 406 l 439 425 m 496 1172 l 528 1033 l 518 1015 q 193 969 329 983 l 174 978 l 156 1074 q 478 1181 311 1119 l 496 1172 m 515 888 l 506 765 l 186 765 l 172 781 l 182 903 l 501 903 l 515 888 z "},"ḕ":{"ha":663,"x_min":32,"x_max":629,"o":"m 597 289 l 233 286 q 283 179 243 214 q 397 144 324 144 q 592 188 471 144 l 608 176 l 575 19 q 374 -15 464 -15 q 123 75 214 -15 q 32 324 32 165 q 119 573 32 482 q 357 664 207 664 q 558 594 486 664 q 629 401 629 525 q 621 317 629 361 l 597 289 m 439 425 q 356 521 439 521 q 278 490 308 521 q 236 400 247 458 l 436 406 l 439 425 m 494 969 q 169 1015 358 983 l 158 1033 l 190 1172 l 210 1181 q 532 1074 383 1117 l 513 978 l 494 969 m 515 888 l 506 765 l 186 765 l 172 781 l 182 903 l 501 903 l 515 888 z "},"ę":{"ha":663,"x_min":32,"x_max":629,"o":"m 597 289 l 233 286 q 283 179 243 214 q 397 144 324 144 q 592 188 471 144 l 608 176 l 575 19 q 374 -15 464 -15 q 123 75 214 -15 q 32 324 32 165 q 119 573 32 482 q 357 664 207 664 q 558 594 486 664 q 629 401 629 525 q 621 317 629 361 l 597 289 m 439 425 q 356 521 439 521 q 278 490 308 521 q 236 400 247 458 l 436 406 l 439 425 m 446 -308 q 335 -274 376 -308 q 293 -183 293 -240 q 328 -90 293 -136 q 461 19 364 -43 l 575 19 q 454 -103 482 -71 q 426 -156 426 -135 q 463 -186 426 -186 q 563 -151 501 -186 l 574 -154 l 599 -253 q 446 -308 521 -308 z "},"ẽ":{"ha":663,"x_min":32,"x_max":629,"o":"m 597 289 l 233 286 q 283 179 243 214 q 397 144 324 144 q 592 188 471 144 l 608 176 l 575 19 q 374 -15 464 -15 q 123 75 214 -15 q 32 324 32 165 q 119 573 32 482 q 357 664 207 664 q 558 594 486 664 q 629 401 629 525 q 621 317 629 361 l 597 289 m 439 425 q 356 521 439 521 q 278 490 308 521 q 236 400 247 458 l 436 406 l 439 425 m 599 932 l 599 914 l 496 776 l 476 768 q 413 781 450 771 q 361 794 375 792 q 263 817 288 817 q 228 803 244 817 q 195 769 211 789 q 172 742 179 750 l 153 742 l 89 806 l 89 824 l 192 961 l 211 968 q 332 940 242 964 q 425 919 406 919 q 459 933 443 919 q 491 967 475 947 q 515 996 507 986 l 535 996 l 599 932 z "},"ə":{"ha":663,"x_min":33,"x_max":631,"o":"m 289 665 q 540 575 449 665 q 631 326 631 485 q 543 77 631 168 q 306 -14 456 -14 q 105 56 176 -14 q 33 249 33 125 q 42 333 33 290 l 65 361 l 429 364 q 379 471 419 436 q 265 506 339 506 q 71 463 192 506 l 54 474 l 88 631 q 289 665 199 665 m 307 129 q 385 160 354 129 q 426 250 415 192 l 226 244 l 224 225 q 307 129 224 129 z "},"f":{"ha":475,"x_min":31,"x_max":568,"o":"m 442 978 q 568 965 501 978 l 554 804 l 540 793 q 419 824 465 824 q 343 742 344 824 l 342 644 l 496 644 l 501 632 l 492 514 l 339 514 l 336 288 l 346 0 l 126 0 l 138 267 l 135 514 l 36 514 l 31 525 l 40 644 l 133 644 l 132 703 q 213 906 132 835 q 442 978 294 978 z "},"g":{"ha":704,"x_min":57,"x_max":721,"o":"m 721 547 q 622 532 676 536 l 619 526 q 638 443 638 490 q 558 275 638 338 q 343 213 479 213 q 264 218 297 213 q 250 190 250 203 q 281 158 250 167 q 383 142 311 150 q 524 119 469 132 q 620 68 579 106 q 661 -37 661 31 q 620 -159 661 -106 q 505 -242 579 -212 q 333 -272 431 -272 q 129 -221 201 -272 q 57 -83 57 -169 q 169 14 104 -26 l 169 21 q 98 71 124 39 q 72 154 72 103 q 171 239 121 207 l 171 247 q 91 319 118 274 q 64 428 64 365 q 143 599 64 536 q 358 661 222 661 q 503 635 436 661 q 706 694 606 656 l 721 682 l 721 547 m 349 340 q 449 438 449 340 q 426 506 449 485 q 354 528 403 528 q 277 506 301 528 q 253 439 253 485 q 276 365 253 389 q 349 340 300 340 m 478 -76 q 440 -31 478 -43 q 321 -8 401 -18 l 279 -4 q 232 -75 232 -39 q 263 -130 232 -110 q 354 -150 294 -150 q 445 -132 413 -150 q 478 -76 478 -114 z "},"ğ":{"ha":704,"x_min":57,"x_max":721,"o":"m 721 547 q 622 532 676 536 l 619 526 q 638 443 638 490 q 558 275 638 338 q 343 213 479 213 q 264 218 297 213 q 250 190 250 203 q 281 158 250 167 q 383 142 311 150 q 524 119 469 132 q 620 68 579 106 q 661 -37 661 31 q 620 -159 661 -106 q 505 -242 579 -212 q 333 -272 431 -272 q 129 -221 201 -272 q 57 -83 57 -169 q 169 14 104 -26 l 169 21 q 98 71 124 39 q 72 154 72 103 q 171 239 121 207 l 171 247 q 91 319 118 274 q 64 428 64 365 q 143 599 64 536 q 358 661 222 661 q 503 635 436 661 q 706 694 606 656 l 721 682 l 721 547 m 349 340 q 449 438 449 340 q 426 506 449 485 q 354 528 403 528 q 277 506 301 528 q 253 439 253 485 q 276 365 253 389 q 349 340 300 340 m 478 -76 q 440 -31 478 -43 q 321 -8 401 -18 l 279 -4 q 232 -75 232 -39 q 263 -130 232 -110 q 354 -150 294 -150 q 445 -132 413 -150 q 478 -76 478 -114 m 583 908 q 503 778 561 829 q 353 728 444 728 q 208 779 263 728 q 135 908 154 831 l 186 979 l 217 979 q 273 908 235 933 q 360 882 311 882 q 446 908 408 882 q 501 979 483 933 l 531 979 l 583 908 z "},"ǧ":{"ha":704,"x_min":57,"x_max":721,"o":"m 721 547 q 622 532 676 536 l 619 526 q 638 443 638 490 q 558 275 638 338 q 343 213 479 213 q 264 218 297 213 q 250 190 250 203 q 281 158 250 167 q 383 142 311 150 q 524 119 469 132 q 620 68 579 106 q 661 -37 661 31 q 620 -159 661 -106 q 505 -242 579 -212 q 333 -272 431 -272 q 129 -221 201 -272 q 57 -83 57 -169 q 169 14 104 -26 l 169 21 q 98 71 124 39 q 72 154 72 103 q 171 239 121 207 l 171 247 q 91 319 118 274 q 64 428 64 365 q 143 599 64 536 q 358 661 222 661 q 503 635 436 661 q 706 694 606 656 l 721 682 l 721 547 m 349 340 q 449 438 449 340 q 426 506 449 485 q 354 528 403 528 q 277 506 301 528 q 253 439 253 485 q 276 365 253 389 q 349 340 300 340 m 478 -76 q 440 -31 478 -43 q 321 -8 401 -18 l 279 -4 q 232 -75 232 -39 q 263 -130 232 -110 q 354 -150 294 -150 q 445 -132 413 -150 q 478 -76 478 -114 m 588 919 q 379 718 501 843 l 336 718 q 128 919 243 815 l 182 1001 l 203 1001 q 357 882 310 925 q 511 1001 401 919 l 533 1001 l 588 919 z "},"ĝ":{"ha":704,"x_min":57,"x_max":721,"o":"m 721 547 q 622 532 676 536 l 619 526 q 638 443 638 490 q 558 275 638 338 q 343 213 479 213 q 264 218 297 213 q 250 190 250 203 q 281 158 250 167 q 383 142 311 150 q 524 119 469 132 q 620 68 579 106 q 661 -37 661 31 q 620 -159 661 -106 q 505 -242 579 -212 q 333 -272 431 -272 q 129 -221 201 -272 q 57 -83 57 -169 q 169 14 104 -26 l 169 21 q 98 71 124 39 q 72 154 72 103 q 171 239 121 207 l 171 247 q 91 319 118 274 q 64 428 64 365 q 143 599 64 536 q 358 661 222 661 q 503 635 436 661 q 706 694 606 656 l 721 682 l 721 547 m 349 340 q 449 438 449 340 q 426 506 449 485 q 354 528 403 528 q 277 506 301 528 q 253 439 253 485 q 276 365 253 389 q 349 340 300 340 m 478 -76 q 440 -31 478 -43 q 321 -8 401 -18 l 279 -4 q 232 -75 232 -39 q 263 -130 232 -110 q 354 -150 294 -150 q 445 -132 413 -150 q 478 -76 478 -114 m 128 804 q 336 1006 214 881 l 379 1006 q 588 804 472 908 l 533 722 l 513 722 q 358 842 406 799 q 204 722 314 804 l 182 722 l 128 804 z "},"ģ":{"ha":704,"x_min":57,"x_max":721,"o":"m 331 715 q 274 770 292 739 q 256 847 256 801 q 288 958 256 903 q 386 1078 319 1014 l 456 1032 l 458 1019 q 407 907 407 963 q 419 850 407 874 q 460 807 431 826 l 460 792 q 331 715 386 736 m 721 547 q 622 532 676 536 l 619 526 q 638 443 638 490 q 558 275 638 338 q 343 213 479 213 q 264 218 297 213 q 250 190 250 203 q 281 158 250 167 q 383 142 311 150 q 524 119 469 132 q 620 68 579 106 q 661 -37 661 31 q 620 -159 661 -106 q 505 -242 579 -212 q 333 -272 431 -272 q 129 -221 201 -272 q 57 -83 57 -169 q 169 14 104 -26 l 169 21 q 98 71 124 39 q 72 154 72 103 q 171 239 121 207 l 171 247 q 91 319 118 274 q 64 428 64 365 q 143 599 64 536 q 358 661 222 661 q 503 635 436 661 q 706 694 606 656 l 721 682 l 721 547 m 349 340 q 449 438 449 340 q 426 506 449 485 q 354 528 403 528 q 277 506 301 528 q 253 439 253 485 q 276 365 253 389 q 349 340 300 340 m 478 -76 q 440 -31 478 -43 q 321 -8 401 -18 l 279 -4 q 232 -75 232 -39 q 263 -130 232 -110 q 354 -150 294 -150 q 445 -132 413 -150 q 478 -76 478 -114 z "},"ġ":{"ha":704,"x_min":57,"x_max":721,"o":"m 721 547 q 622 532 676 536 l 619 526 q 638 443 638 490 q 558 275 638 338 q 343 213 479 213 q 264 218 297 213 q 250 190 250 203 q 281 158 250 167 q 383 142 311 150 q 524 119 469 132 q 620 68 579 106 q 661 -37 661 31 q 620 -159 661 -106 q 505 -242 579 -212 q 333 -272 431 -272 q 129 -221 201 -272 q 57 -83 57 -169 q 169 14 104 -26 l 169 21 q 98 71 124 39 q 72 154 72 103 q 171 239 121 207 l 171 247 q 91 319 118 274 q 64 428 64 365 q 143 599 64 536 q 358 661 222 661 q 503 635 436 661 q 706 694 606 656 l 721 682 l 721 547 m 349 340 q 449 438 449 340 q 426 506 449 485 q 354 528 403 528 q 277 506 301 528 q 253 439 253 485 q 276 365 253 389 q 349 340 300 340 m 478 -76 q 440 -31 478 -43 q 321 -8 401 -18 l 279 -4 q 232 -75 232 -39 q 263 -130 232 -110 q 354 -150 294 -150 q 445 -132 413 -150 q 478 -76 478 -114 m 361 972 q 441 943 413 972 q 469 863 469 914 q 438 774 469 807 q 353 742 406 742 q 272 771 300 742 q 244 853 244 800 q 276 940 244 907 q 361 972 307 972 z "},"ḡ":{"ha":704,"x_min":57,"x_max":721,"o":"m 721 547 q 622 532 676 536 l 619 526 q 638 443 638 490 q 558 275 638 338 q 343 213 479 213 q 264 218 297 213 q 250 190 250 203 q 281 158 250 167 q 383 142 311 150 q 524 119 469 132 q 620 68 579 106 q 661 -37 661 31 q 620 -159 661 -106 q 505 -242 579 -212 q 333 -272 431 -272 q 129 -221 201 -272 q 57 -83 57 -169 q 169 14 104 -26 l 169 21 q 98 71 124 39 q 72 154 72 103 q 171 239 121 207 l 171 247 q 91 319 118 274 q 64 428 64 365 q 143 599 64 536 q 358 661 222 661 q 503 635 436 661 q 706 694 606 656 l 721 682 l 721 547 m 349 340 q 449 438 449 340 q 426 506 449 485 q 354 528 403 528 q 277 506 301 528 q 253 439 253 485 q 276 365 253 389 q 349 340 300 340 m 478 -76 q 440 -31 478 -43 q 321 -8 401 -18 l 279 -4 q 232 -75 232 -39 q 263 -130 232 -110 q 354 -150 294 -150 q 445 -132 413 -150 q 478 -76 478 -114 m 563 908 l 551 786 l 165 786 l 151 801 l 161 924 l 547 924 l 563 908 z "},"h":{"ha":750,"x_min":78,"x_max":682,"o":"m 461 0 l 474 388 q 396 483 474 483 q 290 442 350 483 l 288 288 l 297 0 l 78 0 l 89 267 l 81 960 l 299 975 l 292 557 l 300 557 q 465 658 376 629 q 626 610 571 658 q 678 474 681 563 l 674 288 l 682 0 l 461 0 z "},"ħ":{"ha":750,"x_min":-12,"x_max":688,"o":"m 467 0 l 479 388 q 401 483 479 483 q 296 442 356 483 l 293 288 l 303 0 l 83 0 l 94 267 l 89 724 l 3 724 l -12 738 l -4 839 l 88 839 l 86 960 l 304 975 l 301 839 l 464 839 l 478 824 l 469 724 l 300 724 l 297 557 l 306 557 q 471 658 382 629 q 631 610 576 658 q 683 474 686 563 l 679 288 l 688 0 l 467 0 z "},"ḫ":{"ha":750,"x_min":78,"x_max":682,"o":"m 461 0 l 474 388 q 396 483 474 483 q 290 442 350 483 l 288 288 l 297 0 l 78 0 l 89 267 l 81 960 l 299 975 l 292 557 l 300 557 q 465 658 376 629 q 626 610 571 658 q 678 474 681 563 l 674 288 l 682 0 l 461 0 m 599 -143 q 518 -273 576 -222 q 368 -324 460 -324 q 224 -272 278 -324 q 150 -143 169 -221 l 201 -72 l 232 -72 q 288 -144 250 -118 q 375 -169 326 -169 q 461 -144 424 -169 q 517 -72 499 -118 l 546 -72 l 599 -143 z "},"ĥ":{"ha":750,"x_min":-31,"x_max":682,"o":"m 461 0 l 474 388 q 396 483 474 483 q 290 442 350 483 l 288 288 l 297 0 l 78 0 l 89 267 l 81 960 l 299 975 l 292 557 l 300 557 q 465 658 376 629 q 626 610 571 658 q 678 474 681 563 l 674 288 l 682 0 l 461 0 m -31 1110 q 165 1263 75 1181 l 207 1263 q 404 1110 301 1178 l 365 1022 l 344 1022 l 282 1056 q 239 1079 263 1067 q 188 1108 215 1092 l 29 1022 l 8 1022 l -31 1110 z "},"ḥ":{"ha":750,"x_min":78,"x_max":682,"o":"m 461 0 l 474 388 q 396 483 474 483 q 290 442 350 483 l 288 288 l 297 0 l 78 0 l 89 267 l 81 960 l 299 975 l 292 557 l 300 557 q 465 658 376 629 q 626 610 571 658 q 678 474 681 563 l 674 288 l 682 0 l 461 0 m 379 -61 q 459 -90 431 -61 q 488 -171 488 -119 q 456 -259 488 -226 q 371 -292 424 -292 q 290 -262 318 -292 q 263 -181 263 -233 q 294 -94 263 -126 q 379 -61 325 -61 z "},"i":{"ha":376,"x_min":75,"x_max":300,"o":"m 86 265 l 79 636 l 297 653 l 288 288 l 296 0 l 76 0 l 86 265 m 192 983 q 272 954 243 983 q 300 874 300 925 q 268 785 300 818 q 183 753 236 753 q 103 782 131 753 q 75 864 75 811 q 106 951 75 918 q 192 983 138 983 z "},"ı":{"ha":376,"x_min":76,"x_max":297,"o":"m 86 265 l 79 636 l 297 653 l 288 288 l 296 0 l 76 0 l 86 265 z "},"í":{"ha":376,"x_min":36,"x_max":397,"o":"m 86 265 l 79 636 l 297 653 l 288 288 l 296 0 l 76 0 l 86 265 m 318 1022 l 397 901 l 393 882 q 107 722 256 803 l 88 724 l 36 807 q 299 1024 182 918 l 318 1022 z "},"ĭ":{"ha":376,"x_min":-36,"x_max":413,"o":"m 86 265 l 79 636 l 297 653 l 288 288 l 296 0 l 76 0 l 86 265 m 413 919 q 332 790 390 840 q 182 739 274 739 q 38 790 92 739 q -36 919 -17 842 l 15 990 l 46 990 q 102 919 64 944 q 189 893 140 893 q 275 919 238 893 q 331 990 313 944 l 360 990 l 413 919 z "},"ǐ":{"ha":376,"x_min":-43,"x_max":417,"o":"m 86 265 l 79 636 l 297 653 l 288 288 l 296 0 l 76 0 l 86 265 m 417 931 q 208 729 331 854 l 165 729 q -43 931 72 826 l 11 1013 l 32 1013 q 186 893 139 936 q 340 1013 231 931 l 363 1013 l 417 931 z "},"î":{"ha":376,"x_min":-43,"x_max":417,"o":"m 86 265 l 79 636 l 297 653 l 288 288 l 296 0 l 76 0 l 86 265 m -43 815 q 165 1017 43 892 l 208 1017 q 417 815 301 919 l 363 733 l 342 733 q 188 853 235 810 q 33 733 143 815 l 11 733 l -43 815 z "},"ȉ":{"ha":376,"x_min":-87,"x_max":418,"o":"m 86 265 l 79 636 l 297 653 l 288 288 l 296 0 l 76 0 l 86 265 m 199 778 q 33 1026 99 922 l 18 1031 l -83 960 l -87 943 q 114 729 -4 847 l 132 724 l 199 778 m 418 778 q 251 1026 342 885 l 236 1031 l 135 960 l 132 943 q 333 729 215 847 l 351 724 l 418 778 z "},"ï":{"ha":376,"x_min":-8,"x_max":382,"o":"m 86 265 l 79 636 l 297 653 l 288 288 l 296 0 l 76 0 l 86 265 m 89 960 q 153 936 131 960 q 176 869 176 913 q 150 798 176 825 q 81 771 124 771 q 15 794 38 771 q -8 861 -8 818 q 18 933 -8 907 q 89 960 44 960 m 293 960 q 359 936 336 960 q 382 869 382 913 q 356 798 382 825 q 286 771 329 771 q 219 794 243 771 q 196 861 196 818 q 222 933 196 907 q 293 960 249 960 z "},"ḯ":{"ha":376,"x_min":-39,"x_max":410,"o":"m 86 265 l 79 636 l 297 653 l 288 288 l 296 0 l 76 0 l 86 265 m 335 1199 l 367 1060 l 356 1042 q 32 994 176 1011 l 13 1004 l -7 1100 q 315 1207 142 1143 l 335 1199 m 64 938 q 133 913 108 938 q 157 842 157 888 q 131 765 157 793 q 57 738 104 738 q -15 763 10 738 q -39 833 -39 788 q -11 910 -39 882 q 64 938 17 938 m 317 938 q 385 913 361 938 q 410 842 410 888 q 383 765 410 793 q 308 738 356 738 q 238 763 263 738 q 214 833 214 788 q 242 910 214 882 q 317 938 269 938 z "},"ị":{"ha":376,"x_min":74,"x_max":300,"o":"m 86 265 l 79 636 l 297 653 l 288 288 l 296 0 l 76 0 l 86 265 m 192 983 q 272 954 243 983 q 300 874 300 925 q 268 785 300 818 q 183 753 236 753 q 103 782 131 753 q 75 864 75 811 q 106 951 75 918 q 192 983 138 983 m 190 -61 q 270 -90 242 -61 q 299 -171 299 -119 q 267 -259 299 -226 q 182 -292 235 -292 q 101 -262 129 -292 q 74 -181 74 -233 q 105 -94 74 -126 q 190 -61 136 -61 z "},"ì":{"ha":376,"x_min":4,"x_max":367,"o":"m 86 265 l 79 636 l 297 653 l 288 288 l 296 0 l 76 0 l 86 265 m 103 1024 q 367 807 224 915 l 315 724 l 294 722 q 8 882 146 803 l 4 901 l 83 1022 l 103 1024 z "},"ỉ":{"ha":376,"x_min":26,"x_max":311,"o":"m 86 265 l 79 636 l 297 653 l 288 288 l 296 0 l 76 0 l 86 265 m 121 800 q 176 853 156 825 q 196 903 196 882 q 184 926 196 918 q 154 935 172 935 q 108 925 133 935 q 61 899 83 915 l 26 956 q 102 1012 60 992 q 186 1032 144 1032 q 276 1002 240 1032 q 311 924 311 972 q 294 869 311 894 q 231 803 276 843 l 264 746 l 188 700 l 121 800 z "},"ȋ":{"ha":376,"x_min":-39,"x_max":410,"o":"m 86 265 l 79 636 l 297 653 l 288 288 l 296 0 l 76 0 l 86 265 m -39 835 q 42 965 -17 914 q 192 1015 100 1015 q 336 964 282 1015 q 410 835 390 913 l 358 764 l 328 764 q 272 835 310 810 q 185 861 233 861 q 99 835 136 861 q 43 764 61 810 l 14 764 l -39 835 z "},"ĳ":{"ha":785,"x_min":75,"x_max":707,"o":"m 86 265 l 79 636 l 297 653 l 288 288 l 296 0 l 76 0 l 86 265 m 192 983 q 272 954 243 983 q 300 874 300 925 q 268 785 300 818 q 183 753 236 753 q 103 782 131 753 q 75 864 75 811 q 106 951 75 918 q 192 983 138 983 m 707 650 l 694 288 l 704 42 q 647 -143 704 -68 q 463 -272 589 -218 l 388 -175 l 388 -156 q 470 -79 444 -125 q 496 36 496 -33 l 496 265 l 490 514 l 389 514 l 376 526 l 386 644 l 496 644 l 700 654 l 707 650 m 583 983 q 663 954 635 983 q 692 874 692 925 q 660 785 692 818 q 575 753 628 753 q 494 782 522 753 q 467 864 467 811 q 498 951 467 918 q 583 983 529 983 z "},"ī":{"ha":376,"x_min":14,"x_max":357,"o":"m 86 265 l 79 636 l 297 653 l 288 288 l 296 0 l 76 0 l 86 265 m 357 919 l 347 797 l 28 797 l 14 813 l 24 935 l 343 935 l 357 919 z "},"į":{"ha":376,"x_min":33,"x_max":324,"o":"m 86 265 l 79 636 l 297 653 l 288 288 l 296 0 l 76 0 l 86 265 m 190 983 q 270 954 242 983 q 299 874 299 925 q 267 785 299 818 q 182 753 235 753 q 101 782 129 753 q 74 864 74 811 q 105 951 74 918 q 190 983 136 983 m 296 0 q 190 -79 218 -53 q 161 -124 161 -106 q 193 -150 161 -150 q 286 -112 231 -150 l 297 -115 l 324 -210 q 167 -271 250 -271 q 70 -240 107 -271 q 33 -157 33 -208 q 168 0 33 -62 l 296 0 z "},"ĩ":{"ha":376,"x_min":-37,"x_max":410,"o":"m 86 265 l 79 636 l 297 653 l 288 288 l 296 0 l 76 0 l 86 265 m 410 929 l 410 911 l 318 775 l 300 768 q 197 796 267 772 q 125 814 140 814 q 89 797 104 814 q 46 742 74 781 l 26 742 l -37 804 l -37 824 l 56 958 l 74 965 q 176 938 107 961 q 249 919 233 919 q 283 936 268 919 q 328 993 299 953 l 346 993 l 410 929 z "},"j":{"ha":408,"x_min":0,"x_max":331,"o":"m 331 650 l 318 288 l 328 42 q 270 -143 328 -68 q 86 -272 213 -218 l 11 -175 l 11 -156 q 94 -79 68 -125 q 119 36 119 -33 l 119 265 l 114 514 l 13 514 l 0 526 l 10 644 l 119 644 l 324 654 l 331 650 m 207 983 q 287 954 258 983 q 315 874 315 925 q 283 785 315 818 q 199 753 251 753 q 118 782 146 753 q 90 864 90 811 q 122 951 90 918 q 207 983 153 983 z "},"ȷ":{"ha":408,"x_min":0,"x_max":331,"o":"m 331 650 l 318 288 l 328 42 q 270 -143 328 -68 q 86 -272 213 -218 l 11 -175 l 11 -156 q 94 -79 68 -125 q 119 36 119 -33 l 119 265 l 114 514 l 13 514 l 0 526 l 10 644 l 119 644 l 324 654 l 331 650 z "},"ĵ":{"ha":408,"x_min":-26,"x_max":433,"o":"m 331 650 l 318 288 l 328 42 q 270 -143 328 -68 q 86 -272 213 -218 l 11 -175 l 11 -156 q 94 -79 68 -125 q 119 36 119 -33 l 119 265 l 114 514 l 13 514 l 0 526 l 10 644 l 119 644 l 324 654 l 331 650 m -26 815 q 182 1017 60 892 l 225 1017 q 433 815 318 919 l 379 733 l 358 733 q 204 853 251 810 q 50 733 160 815 l 28 733 l -26 815 z "},"k":{"ha":713,"x_min":78,"x_max":704,"o":"m 288 288 l 297 0 l 78 0 l 89 267 l 81 960 l 299 975 l 288 288 m 499 358 q 704 36 569 236 l 703 14 q 497 -15 631 -1 l 475 -4 q 289 339 364 167 l 289 353 l 432 578 l 464 650 l 692 650 l 499 358 z "},"ķ":{"ha":713,"x_min":78,"x_max":704,"o":"m 288 288 l 297 0 l 78 0 l 89 267 l 81 960 l 299 975 l 288 288 m 499 358 q 704 36 569 236 l 703 14 q 497 -15 631 -1 l 475 -4 q 289 339 364 167 l 289 353 l 432 578 l 464 650 l 692 650 l 499 358 m 435 -46 q 490 -161 490 -96 q 451 -281 490 -224 q 328 -396 411 -337 l 267 -342 l 265 -328 q 333 -203 333 -268 q 324 -160 333 -179 q 293 -122 314 -142 l 294 -106 q 435 -46 363 -65 z "},"ĸ":{"ha":710,"x_min":74,"x_max":700,"o":"m 494 358 q 700 36 565 236 l 700 14 q 494 -15 628 -1 l 472 -4 q 285 339 360 171 l 285 340 l 283 288 l 292 0 l 74 0 l 83 265 l 75 636 l 293 653 l 285 353 l 431 578 l 461 650 l 688 650 l 494 358 z "},"l":{"ha":376,"x_min":78,"x_max":299,"o":"m 288 288 l 297 0 l 78 0 l 89 267 l 81 960 l 299 975 l 288 288 z "},"ĺ":{"ha":376,"x_min":25,"x_max":399,"o":"m 288 288 l 297 0 l 78 0 l 89 267 l 81 960 l 299 975 l 288 288 m 343 1294 l 399 1163 l 392 1144 q 79 1040 256 1094 l 60 1046 l 25 1138 q 322 1299 179 1214 l 343 1294 z "},"ľ":{"ha":490,"x_min":78,"x_max":529,"o":"m 288 288 l 297 0 l 78 0 l 89 267 l 81 960 l 299 975 l 288 288 m 529 881 l 478 585 l 383 569 l 368 582 l 360 885 l 517 894 l 529 881 z "},"ļ":{"ha":376,"x_min":75,"x_max":300,"o":"m 288 288 l 297 0 l 78 0 l 89 267 l 81 960 l 299 975 l 288 288 m 244 -46 q 300 -161 300 -96 q 260 -281 300 -224 q 138 -396 221 -337 l 76 -342 l 75 -328 q 143 -203 143 -268 q 133 -160 143 -179 q 103 -122 124 -142 l 104 -106 q 244 -46 172 -65 z "},"ŀ":{"ha":485,"x_min":78,"x_max":542,"o":"m 288 288 l 297 0 l 78 0 l 89 267 l 81 960 l 299 975 l 288 288 m 433 529 q 513 500 485 529 q 542 419 542 471 q 510 331 542 364 q 425 299 478 299 q 344 328 372 299 q 317 410 317 357 q 348 497 317 464 q 433 529 379 529 z "},"ḷ":{"ha":376,"x_min":75,"x_max":300,"o":"m 288 288 l 297 0 l 78 0 l 89 267 l 81 960 l 299 975 l 288 288 m 192 -61 q 272 -90 243 -61 q 300 -171 300 -119 q 268 -259 300 -226 q 183 -292 236 -292 q 103 -262 131 -292 q 75 -181 75 -233 q 106 -94 75 -126 q 192 -61 138 -61 z "},"ǉ":{"ha":785,"x_min":78,"x_max":707,"o":"m 288 288 l 297 0 l 78 0 l 89 267 l 81 960 l 299 975 l 288 288 m 707 650 l 694 288 l 704 42 q 647 -143 704 -68 q 463 -272 589 -218 l 388 -175 l 388 -156 q 470 -79 444 -125 q 496 36 496 -33 l 496 265 l 490 514 l 389 514 l 376 526 l 386 644 l 496 644 l 700 654 l 707 650 m 583 983 q 663 954 635 983 q 692 874 692 925 q 660 785 692 818 q 575 753 628 753 q 494 782 522 753 q 467 864 467 811 q 498 951 467 918 q 583 983 529 983 z "},"ḻ":{"ha":376,"x_min":1,"x_max":372,"o":"m 288 288 l 297 0 l 78 0 l 89 267 l 81 960 l 299 975 l 288 288 m 372 -122 l 363 -244 l 15 -244 l 1 -229 l 11 -108 l 358 -108 l 372 -122 z "},"ł":{"ha":419,"x_min":-24,"x_max":443,"o":"m 310 288 l 319 0 l 100 0 l 111 267 l 110 385 l 31 346 l 19 349 l -24 471 l 107 538 l 101 960 l 321 975 l 315 619 l 390 658 l 400 654 l 443 532 l 313 465 l 310 288 z "},"m":{"ha":1125,"x_min":74,"x_max":1057,"o":"m 850 389 q 772 485 853 485 q 668 444 724 485 l 664 288 l 674 0 l 456 0 l 467 389 q 388 485 469 485 q 282 442 340 485 l 282 288 l 292 0 l 74 0 l 83 265 l 75 636 l 282 653 l 282 557 l 292 557 q 457 658 368 629 q 585 631 535 658 q 656 554 636 604 l 664 554 q 842 658 740 626 q 1001 610 946 658 q 1053 474 1056 563 l 1049 288 l 1057 0 l 839 0 l 850 389 z "},"ṃ":{"ha":1125,"x_min":74,"x_max":1057,"o":"m 850 389 q 772 485 853 485 q 668 444 724 485 l 664 288 l 674 0 l 456 0 l 467 389 q 388 485 469 485 q 282 442 340 485 l 282 288 l 292 0 l 74 0 l 83 265 l 75 636 l 282 653 l 282 557 l 292 557 q 457 658 368 629 q 585 631 535 658 q 656 554 636 604 l 664 554 q 842 658 740 626 q 1001 610 946 658 q 1053 474 1056 563 l 1049 288 l 1057 0 l 839 0 l 850 389 m 567 -61 q 647 -90 618 -61 q 675 -171 675 -119 q 643 -259 675 -226 q 558 -292 611 -292 q 478 -262 506 -292 q 450 -181 450 -233 q 481 -94 450 -126 q 567 -61 513 -61 z "},"n":{"ha":743,"x_min":74,"x_max":675,"o":"m 467 388 q 389 483 469 483 q 283 442 340 483 l 283 288 l 293 0 l 74 0 l 83 265 l 75 636 l 285 653 l 285 557 l 293 557 q 460 658 368 628 q 619 610 564 658 q 672 474 674 563 l 667 288 l 675 0 l 456 0 l 467 388 z "},"ń":{"ha":743,"x_min":74,"x_max":675,"o":"m 467 388 q 389 483 469 483 q 283 442 340 483 l 283 288 l 293 0 l 74 0 l 83 265 l 75 636 l 285 653 l 285 557 l 293 557 q 460 658 368 628 q 619 610 564 658 q 672 474 674 563 l 667 288 l 675 0 l 456 0 l 467 388 m 529 1022 l 608 901 l 604 882 q 318 722 467 803 l 299 724 l 247 807 q 510 1024 393 918 l 529 1022 z "},"ň":{"ha":743,"x_min":74,"x_max":675,"o":"m 467 388 q 389 483 469 483 q 283 442 340 483 l 283 288 l 293 0 l 74 0 l 83 265 l 75 636 l 285 653 l 285 557 l 293 557 q 460 658 368 628 q 619 610 564 658 q 672 474 674 563 l 667 288 l 675 0 l 456 0 l 467 388 m 628 931 q 419 729 542 854 l 376 729 q 168 931 283 826 l 222 1013 l 243 1013 q 397 893 350 936 q 551 1013 442 931 l 574 1013 l 628 931 z "},"ņ":{"ha":743,"x_min":74,"x_max":675,"o":"m 467 388 q 389 483 469 483 q 283 442 340 483 l 283 288 l 293 0 l 74 0 l 83 265 l 75 636 l 285 653 l 285 557 l 293 557 q 460 658 368 628 q 619 610 564 658 q 672 474 674 563 l 667 288 l 675 0 l 456 0 l 467 388 m 438 -46 q 493 -161 493 -96 q 453 -281 493 -224 q 331 -396 414 -337 l 269 -342 l 268 -328 q 336 -203 336 -268 q 326 -160 336 -179 q 296 -122 317 -142 l 297 -106 q 438 -46 365 -65 z "},"ṅ":{"ha":743,"x_min":74,"x_max":675,"o":"m 467 388 q 389 483 469 483 q 283 442 340 483 l 283 288 l 293 0 l 74 0 l 83 265 l 75 636 l 285 653 l 285 557 l 293 557 q 460 658 368 628 q 619 610 564 658 q 672 474 674 563 l 667 288 l 675 0 l 456 0 l 467 388 m 401 983 q 481 954 453 983 q 510 874 510 925 q 478 785 510 818 q 393 753 446 753 q 313 782 340 753 q 285 864 285 811 q 316 951 285 918 q 401 983 347 983 z "},"ṇ":{"ha":743,"x_min":74,"x_max":675,"o":"m 467 388 q 389 483 469 483 q 283 442 340 483 l 283 288 l 293 0 l 74 0 l 83 265 l 75 636 l 285 653 l 285 557 l 293 557 q 460 658 368 628 q 619 610 564 658 q 672 474 674 563 l 667 288 l 675 0 l 456 0 l 467 388 m 385 -61 q 465 -90 436 -61 q 493 -171 493 -119 q 461 -259 493 -226 q 376 -292 429 -292 q 296 -262 324 -292 q 268 -181 268 -233 q 299 -94 268 -126 q 385 -61 331 -61 z "},"ŋ":{"ha":754,"x_min":74,"x_max":676,"o":"m 676 42 q 619 -143 676 -68 q 438 -272 563 -218 l 363 -175 l 363 -156 q 443 -79 418 -125 q 468 36 468 -33 l 467 388 q 389 483 467 483 q 283 442 340 483 l 283 288 l 293 0 l 74 0 l 83 265 l 75 636 l 285 653 l 285 557 l 293 557 q 460 658 368 628 q 619 610 564 658 q 672 474 674 563 l 667 288 l 676 42 z "},"ǌ":{"ha":1151,"x_min":74,"x_max":1074,"o":"m 467 388 q 389 483 469 483 q 283 442 340 483 l 283 288 l 293 0 l 74 0 l 83 265 l 75 636 l 285 653 l 285 557 l 293 557 q 460 658 368 628 q 619 610 564 658 q 672 474 674 563 l 667 288 l 675 0 l 456 0 l 467 388 m 1074 650 l 1061 288 l 1071 42 q 1013 -143 1071 -68 q 829 -272 956 -218 l 754 -175 l 754 -156 q 837 -79 811 -125 q 863 36 863 -33 l 863 265 l 857 514 l 756 514 l 743 526 l 753 644 l 863 644 l 1067 654 l 1074 650 m 950 983 q 1030 954 1001 983 q 1058 874 1058 925 q 1026 785 1058 818 q 942 753 994 753 q 861 782 889 753 q 833 864 833 811 q 865 951 833 918 q 950 983 896 983 z "},"ṉ":{"ha":743,"x_min":74,"x_max":675,"o":"m 467 388 q 389 483 469 483 q 283 442 340 483 l 283 288 l 293 0 l 74 0 l 83 265 l 75 636 l 285 653 l 285 557 l 293 557 q 460 658 368 628 q 619 610 564 658 q 672 474 674 563 l 667 288 l 675 0 l 456 0 l 467 388 m 565 -122 l 556 -244 l 208 -244 l 194 -229 l 204 -108 l 551 -108 l 565 -122 z "},"ñ":{"ha":743,"x_min":74,"x_max":675,"o":"m 467 388 q 389 483 469 483 q 283 442 340 483 l 283 288 l 293 0 l 74 0 l 83 265 l 75 636 l 285 653 l 285 557 l 293 557 q 460 658 368 628 q 619 610 564 658 q 672 474 674 563 l 667 288 l 675 0 l 456 0 l 467 388 m 651 933 l 651 915 l 549 778 l 529 769 q 465 783 503 772 q 414 796 428 793 q 315 818 340 818 q 281 804 297 818 q 248 771 264 790 q 225 743 232 751 l 206 743 l 142 807 l 142 825 l 244 963 l 264 969 q 385 942 294 965 q 478 921 458 921 q 512 935 496 921 q 544 968 528 949 q 568 997 560 988 l 588 997 l 651 933 z "},"o":{"ha":688,"x_min":32,"x_max":656,"o":"m 354 664 q 578 581 501 664 q 656 338 656 497 q 573 75 656 165 q 333 -15 490 -15 q 109 68 186 -15 q 32 310 32 151 q 115 573 32 482 q 354 664 197 664 m 339 515 q 260 478 283 515 q 238 350 238 442 q 248 217 238 265 q 283 149 258 169 q 349 129 307 129 q 426 166 403 129 q 449 296 449 203 q 424 467 449 419 q 339 515 400 515 z "},"ó":{"ha":688,"x_min":32,"x_max":656,"o":"m 354 664 q 578 581 501 664 q 656 338 656 497 q 573 75 656 165 q 333 -15 490 -15 q 109 68 186 -15 q 32 310 32 151 q 115 573 32 482 q 354 664 197 664 m 339 515 q 260 478 283 515 q 238 350 238 442 q 248 217 238 265 q 283 149 258 169 q 349 129 307 129 q 426 166 403 129 q 449 296 449 203 q 424 467 449 419 q 339 515 400 515 m 478 1022 l 557 901 l 553 882 q 267 722 415 803 l 247 724 l 196 807 q 458 1024 342 918 l 478 1022 z "},"ŏ":{"ha":688,"x_min":32,"x_max":656,"o":"m 354 664 q 578 581 501 664 q 656 338 656 497 q 573 75 656 165 q 333 -15 490 -15 q 109 68 186 -15 q 32 310 32 151 q 115 573 32 482 q 354 664 197 664 m 339 515 q 260 478 283 515 q 238 350 238 442 q 248 217 238 265 q 283 149 258 169 q 349 129 307 129 q 426 166 403 129 q 449 296 449 203 q 424 467 449 419 q 339 515 400 515 m 572 919 q 492 790 550 840 q 342 739 433 739 q 197 790 251 739 q 124 919 143 842 l 175 990 l 206 990 q 262 919 224 944 q 349 893 300 893 q 435 919 397 893 q 490 990 472 944 l 519 990 l 572 919 z "},"ǒ":{"ha":688,"x_min":32,"x_max":656,"o":"m 354 664 q 578 581 501 664 q 656 338 656 497 q 573 75 656 165 q 333 -15 490 -15 q 109 68 186 -15 q 32 310 32 151 q 115 573 32 482 q 354 664 197 664 m 339 515 q 260 478 283 515 q 238 350 238 442 q 248 217 238 265 q 283 149 258 169 q 349 129 307 129 q 426 166 403 129 q 449 296 449 203 q 424 467 449 419 q 339 515 400 515 m 576 931 q 368 729 490 854 l 325 729 q 117 931 232 826 l 171 1013 l 192 1013 q 346 893 299 936 q 500 1013 390 931 l 522 1013 l 576 931 z "},"ô":{"ha":688,"x_min":32,"x_max":656,"o":"m 354 664 q 578 581 501 664 q 656 338 656 497 q 573 75 656 165 q 333 -15 490 -15 q 109 68 186 -15 q 32 310 32 151 q 115 573 32 482 q 354 664 197 664 m 339 515 q 260 478 283 515 q 238 350 238 442 q 248 217 238 265 q 283 149 258 169 q 349 129 307 129 q 426 166 403 129 q 449 296 449 203 q 424 467 449 419 q 339 515 400 515 m 117 815 q 325 1017 203 892 l 368 1017 q 576 815 461 919 l 522 733 l 501 733 q 347 853 394 810 q 193 733 303 815 l 171 733 l 117 815 z "},"ố":{"ha":688,"x_min":32,"x_max":656,"o":"m 354 664 q 578 581 501 664 q 656 338 656 497 q 573 75 656 165 q 333 -15 490 -15 q 109 68 186 -15 q 32 310 32 151 q 115 573 32 482 q 354 664 197 664 m 339 515 q 260 478 283 515 q 238 350 238 442 q 248 217 238 265 q 283 149 258 169 q 349 129 307 129 q 426 166 403 129 q 449 296 449 203 q 424 467 449 419 q 339 515 400 515 m 628 1090 l 633 1074 l 515 922 l 501 922 l 425 976 l 506 1132 l 521 1140 l 628 1090 m 129 819 q 326 972 250 903 l 368 972 q 564 819 449 899 l 525 733 l 504 733 q 347 819 432 771 q 190 733 263 771 l 169 733 l 129 819 z "},"ộ":{"ha":688,"x_min":32,"x_max":656,"o":"m 354 664 q 578 581 501 664 q 656 338 656 497 q 573 75 656 165 q 333 -15 490 -15 q 109 68 186 -15 q 32 310 32 151 q 115 573 32 482 q 354 664 197 664 m 339 515 q 260 478 283 515 q 238 350 238 442 q 248 217 238 265 q 283 149 258 169 q 349 129 307 129 q 426 166 403 129 q 449 296 449 203 q 424 467 449 419 q 339 515 400 515 m 349 -61 q 428 -90 400 -61 q 457 -171 457 -119 q 425 -259 457 -226 q 340 -292 393 -292 q 260 -262 288 -292 q 232 -181 232 -233 q 263 -94 232 -126 q 349 -61 294 -61 m 117 815 q 325 1017 203 892 l 368 1017 q 576 815 461 919 l 522 733 l 501 733 q 347 853 394 810 q 193 733 303 815 l 171 733 l 117 815 z "},"ồ":{"ha":688,"x_min":32,"x_max":656,"o":"m 354 664 q 578 581 501 664 q 656 338 656 497 q 573 75 656 165 q 333 -15 490 -15 q 109 68 186 -15 q 32 310 32 151 q 115 573 32 482 q 354 664 197 664 m 339 515 q 260 478 283 515 q 238 350 238 442 q 248 217 238 265 q 283 149 258 169 q 349 129 307 129 q 426 166 403 129 q 449 296 449 203 q 424 467 449 419 q 339 515 400 515 m 382 1074 l 386 1090 l 493 1140 l 508 1132 l 590 976 l 514 922 l 500 922 l 382 1074 m 129 819 q 326 972 250 903 l 368 972 q 564 819 449 899 l 525 733 l 504 733 q 347 819 432 771 q 190 733 263 771 l 169 733 l 129 819 z "},"ổ":{"ha":688,"x_min":32,"x_max":656,"o":"m 354 664 q 578 581 501 664 q 656 338 656 497 q 573 75 656 165 q 333 -15 490 -15 q 109 68 186 -15 q 32 310 32 151 q 115 573 32 482 q 354 664 197 664 m 339 515 q 260 478 283 515 q 238 350 238 442 q 248 217 238 265 q 283 149 258 169 q 349 129 307 129 q 426 166 403 129 q 449 296 449 203 q 424 467 449 419 q 339 515 400 515 m 129 849 q 325 1001 235 919 l 367 1001 q 564 849 461 917 l 525 761 l 504 761 l 442 794 q 399 818 422 806 q 347 847 375 831 l 189 761 l 168 761 l 129 849 m 460 1034 q 512 1085 493 1058 q 531 1132 531 1112 q 520 1154 531 1146 q 492 1162 509 1162 q 448 1153 472 1162 q 403 1128 424 1144 l 370 1182 q 442 1235 402 1216 q 522 1255 482 1255 q 607 1226 574 1255 q 641 1151 641 1198 q 624 1099 641 1124 q 564 1036 608 1075 l 596 982 l 523 939 l 460 1034 z "},"ỗ":{"ha":688,"x_min":32,"x_max":656,"o":"m 354 664 q 578 581 501 664 q 656 338 656 497 q 573 75 656 165 q 333 -15 490 -15 q 109 68 186 -15 q 32 310 32 151 q 115 573 32 482 q 354 664 197 664 m 339 515 q 260 478 283 515 q 238 350 238 442 q 248 217 238 265 q 283 149 258 169 q 349 129 307 129 q 426 166 403 129 q 449 296 449 203 q 424 467 449 419 q 339 515 400 515 m 131 849 q 326 1001 236 919 l 368 1001 q 565 849 463 917 l 526 761 l 506 761 l 443 794 q 400 818 424 806 q 349 847 376 831 l 190 761 l 169 761 l 131 849 m 600 1196 l 600 1176 l 496 1039 l 476 1032 q 413 1045 450 1035 q 361 1058 375 1056 q 264 1081 288 1081 q 226 1064 243 1081 q 174 1006 208 1047 l 154 1006 l 90 1069 l 90 1088 l 194 1225 l 213 1232 q 333 1204 243 1228 q 426 1183 406 1183 q 461 1198 444 1183 q 494 1232 478 1213 q 517 1258 511 1251 l 535 1258 l 600 1196 z "},"ȍ":{"ha":688,"x_min":32,"x_max":656,"o":"m 354 664 q 578 581 501 664 q 656 338 656 497 q 573 75 656 165 q 333 -15 490 -15 q 109 68 186 -15 q 32 310 32 151 q 115 573 32 482 q 354 664 197 664 m 339 515 q 260 478 283 515 q 238 350 238 442 q 248 217 238 265 q 283 149 258 169 q 349 129 307 129 q 426 166 403 129 q 449 296 449 203 q 424 467 449 419 q 339 515 400 515 m 358 778 q 193 1026 258 922 l 178 1031 l 76 960 l 72 943 q 274 729 156 847 l 292 724 l 358 778 m 578 778 q 411 1026 501 885 l 396 1031 l 294 960 l 292 943 q 493 729 375 847 l 511 724 l 578 778 z "},"ö":{"ha":688,"x_min":32,"x_max":656,"o":"m 354 664 q 578 581 501 664 q 656 338 656 497 q 573 75 656 165 q 333 -15 490 -15 q 109 68 186 -15 q 32 310 32 151 q 115 573 32 482 q 354 664 197 664 m 339 515 q 260 478 283 515 q 238 350 238 442 q 248 217 238 265 q 283 149 258 169 q 349 129 307 129 q 426 166 403 129 q 449 296 449 203 q 424 467 449 419 q 339 515 400 515 m 224 967 q 294 941 268 967 q 319 869 319 915 q 292 792 319 821 q 215 764 264 764 q 144 789 168 764 q 119 861 119 814 q 147 938 119 910 q 224 967 175 967 m 476 967 q 546 941 521 967 q 571 869 571 915 q 543 792 571 821 q 468 764 515 764 q 397 789 421 764 q 372 861 372 814 q 400 938 372 910 q 476 967 428 967 z "},"ȫ":{"ha":688,"x_min":32,"x_max":656,"o":"m 354 664 q 578 581 501 664 q 656 338 656 497 q 573 75 656 165 q 333 -15 490 -15 q 109 68 186 -15 q 32 310 32 151 q 115 573 32 482 q 354 664 197 664 m 339 515 q 260 478 283 515 q 238 350 238 442 q 248 217 238 265 q 283 149 258 169 q 349 129 307 129 q 426 166 403 129 q 449 296 449 203 q 424 467 449 419 q 339 515 400 515 m 556 1133 l 544 1011 l 154 1011 l 139 1026 l 150 1149 l 542 1149 l 556 1133 m 225 938 q 294 913 269 938 q 318 842 318 888 q 291 765 318 793 q 217 738 264 738 q 146 763 171 738 q 121 833 121 788 q 149 910 121 882 q 225 938 176 938 m 476 938 q 546 913 521 938 q 571 842 571 888 q 544 765 571 793 q 469 738 517 738 q 399 763 424 738 q 374 833 374 788 q 401 909 374 881 q 476 938 429 938 z "},"ȱ":{"ha":688,"x_min":32,"x_max":656,"o":"m 354 664 q 578 581 501 664 q 656 338 656 497 q 573 75 656 165 q 333 -15 490 -15 q 109 68 186 -15 q 32 310 32 151 q 115 573 32 482 q 354 664 197 664 m 339 515 q 260 478 283 515 q 238 350 238 442 q 248 217 238 265 q 283 149 258 169 q 349 129 307 129 q 426 166 403 129 q 449 296 449 203 q 424 467 449 419 q 339 515 400 515 m 350 964 q 430 935 401 964 q 458 854 458 906 q 426 766 458 799 q 342 733 394 733 q 261 763 289 733 q 233 844 233 792 q 265 931 233 899 q 350 964 296 964 m 517 1133 l 507 1011 l 188 1011 l 174 1026 l 183 1149 l 503 1149 l 517 1133 z "},"ọ":{"ha":688,"x_min":32,"x_max":656,"o":"m 354 664 q 578 581 501 664 q 656 338 656 497 q 573 75 656 165 q 333 -15 490 -15 q 109 68 186 -15 q 32 310 32 151 q 115 573 32 482 q 354 664 197 664 m 339 515 q 260 478 283 515 q 238 350 238 442 q 248 217 238 265 q 283 149 258 169 q 349 129 307 129 q 426 166 403 129 q 449 296 449 203 q 424 467 449 419 q 339 515 400 515 m 349 -61 q 428 -90 400 -61 q 457 -171 457 -119 q 425 -259 457 -226 q 340 -292 393 -292 q 260 -262 288 -292 q 232 -181 232 -233 q 263 -94 232 -126 q 349 -61 294 -61 z "}}}
